<?xml version="1.0" encoding="UTF-8" standalone="no"?>
<svg
   width="110"
   height="110"
   viewBox="0 0 110 110"
   fill="none"
   version="1.1"
   id="svg77"
   sodipodi:docname="an94.svg"
   inkscape:version="1.2.2 (b0a8486541, 2022-12-01)"
   xml:space="preserve"
   xmlns:inkscape="http://www.inkscape.org/namespaces/inkscape"
   xmlns:sodipodi="http://sodipodi.sourceforge.net/DTD/sodipodi-0.dtd"
   xmlns="http://www.w3.org/2000/svg"
   xmlns:svg="http://www.w3.org/2000/svg"><sodipodi:namedview
     id="namedview79"
     pagecolor="#505050"
     bordercolor="#ffffff"
     borderopacity="1"
     inkscape:pageshadow="0"
     inkscape:pageopacity="0"
     inkscape:pagecheckerboard="1"
     showgrid="false"
     inkscape:zoom="4"
     inkscape:cx="22.25"
     inkscape:cy="62"
     inkscape:window-width="1302"
     inkscape:window-height="699"
     inkscape:window-x="0"
     inkscape:window-y="0"
     inkscape:window-maximized="1"
     inkscape:current-layer="g3177"
     inkscape:showpageshadow="0"
     inkscape:deskcolor="#505050"
     showguides="false"><sodipodi:guide
       position="57.654338,63.78046"
       orientation="0,-1"
       id="guide1973"
       inkscape:locked="false" /><sodipodi:guide
       position="28.983063,63.189843"
       orientation="1,0"
       id="guide1975"
       inkscape:locked="false" /><sodipodi:guide
       position="40.628902,69.020713"
       orientation="0,-1"
       id="guide1977"
       inkscape:locked="false" /><sodipodi:guide
       position="61.337334,69.012805"
       orientation="1,0"
       id="guide2153"
       inkscape:locked="false" /><sodipodi:guide
       position="59.39619,57.993715"
       orientation="1,0"
       id="guide5568"
       inkscape:locked="false" /></sodipodi:namedview><defs
     id="defs75"><clipPath
       id="clip0_619_1191"><rect
         width="110"
         height="110"
         fill="#ffffff"
         transform="translate(0.0859375)"
         id="rect72"
         x="0"
         y="0" /></clipPath></defs><g
     id="g3177"
     inkscape:label="an94"
     transform="matrix(0.97640772,-0.56372926,0.56372926,0.97640772,-22.607988,39.578753)"><g
       id="g3097"
       style="display:inline;fill:#333333;fill-opacity:1"
       transform="matrix(0.20231714,0,0,0.20231714,106.87386,53.171259)"
       inkscape:label="barrel"><path
         style="display:inline;fill:#333333;fill-opacity:1;stroke:#333333;stroke-width:0;stroke-miterlimit:29;stroke-dasharray:none;stroke-opacity:1"
         d="m -146.30615,-55.170518 v 10.272298 h 36.49009 v -1.889751 h 86.936594 c 0,0 5.654884,5.283977 11.33117,0 h 3.8472863 c 0,0 4.6691983,5.360023 10.7019098,0 H 8.8998054 V -54.11836 H 5.4182519 c 0,0 -5.02291799,-11.308099 -13.5409503,-3.628287 h -3.5052506 c 0,0 -5.424729,-5.777735 -11.202464,0 h -3.080058 v -1.495822 h -8.775816 v 1.251729 h -6.638497 v -3.599282 l -2.248999,-3.89538 v -12.463883 h -4.186199 v 12.264609 l -2.528216,4.378998 v 4.151227 h -95.889212 z"
         id="path2875" /><path
         style="fill:#333333;fill-opacity:1;stroke:#333333;stroke-width:0;stroke-miterlimit:29;stroke-dasharray:none;stroke-opacity:1"
         d="m -146.2425,-39.989313 v 10.03828 h 3.90876 v -1.206942 h 56.597201 l 3.55052,6.149687 h 8.165181 l 7.79797,-4.50216 v -2.43311 h 14.826944 v -15.154831 h -9.560243 v 1.650053 l 1.106605,0.296514 v 1.126811 H -87.29349 v 4.997802 h -55.09219 v -0.94823 z"
         id="path3093" /></g><path
       style="fill:#404040;fill-opacity:1;stroke:#333333;stroke-width:9.88547;stroke-miterlimit:29;stroke-opacity:1"
       d="m -391.52224,-28.690834 22.1132,-4.756131 1.87878,11.539645 c 0,0 -4.87677,0.918054 -5.55007,7.01858 -0.67329,6.1005309 -3.56308,32.570394 -3.56308,32.570394 0,0 2.88156,3.710917 -3.2272,2.649301 -6.10876,-1.06161 -11.99867,-1.946132 -11.99867,-1.946132 l 6.80095,-34.929834 c 0,0 1.76579,-5.173453 -6.90814,-9.113268 z"
       id="path1939"
       sodipodi:nodetypes="cccscscccc"
       transform="matrix(0.20231714,0,0,0.20231714,108.18582,53.424372)"
       inkscape:label="handle" /><g
       id="g2873"
       inkscape:label="trigger"><path
         d="m 35.105816,46.980036 h 1.571019 c -0.20609,1.27422 0.628633,2.533852 0.628633,2.533852 0.234198,0.436852 0.233402,0.767874 0,0.749041 -1.256976,-0.628356 -1.885334,-1.88507 -2.199652,-3.282893 z"
         style="display:inline;fill:#323232;stroke-width:1.31102"
         id="path2840"
         inkscape:label="trigger" /><path
         d="M 38.848297,51.51551 H 35.17705 l -0.447323,-0.316627 -0.895051,-4.382189 h 0.564869 l 0.763545,3.786365 0.440444,0.379547 2.929755,0.0087 0.447525,-0.435184 v -2.173291 l -0.576401,-0.447525 0.0077,-0.895051 h 2.582578 l -0.534117,3.580001 -0.447121,0.223763 -0.137576,0.895051 -0.302666,0.09003 0.0034,-0.874414 -0.208386,0.0526 z"
         fill="#323232"
         id="path281-1"
         style="display:inline;stroke-width:0.202317"
         inkscape:label="trigger_guard" /></g><path
       style="fill:#404040;fill-opacity:1;stroke:#333333;stroke-width:2.03027;stroke-miterlimit:29;stroke-opacity:1"
       d="m 2.2502496,44.661 c 0,0 0.4762912,7.067157 0.099381,7.54554 C 1.9727207,52.684924 21.59135,47.135524 21.59135,47.135524 l 7.336861,0.790969 0.05485,-3.545373 z"
       id="path467"
       sodipodi:nodetypes="cscccc"
       inkscape:label="stock" /><path
       style="display:inline;fill:#666666;fill-opacity:1;stroke:#404040;stroke-width:2;stroke-miterlimit:29;stroke-dasharray:none;stroke-opacity:1"
       d="m 41.993799,47.38915 5.471214,0.07552 c 0,0 0.77912,10.190499 10.270566,18.019169 l -2.922761,3.867445 c 0,0 -13.065559,-11.333475 -12.819019,-21.962136 z"
       id="path2093"
       inkscape:label="mag"
       sodipodi:nodetypes="cccccc" /><g
       id="g2037"
       inkscape:label="body"
       style="display:inline"><path
         style="display:inline;fill:#404040;fill-opacity:1;stroke:#333333;stroke-width:2;stroke-miterlimit:29;stroke-opacity:1"
         d="m 28.983063,44.38112 -0.136464,3.203503 4.854549,-1.422124 23.95319,0.05704 0.557711,-0.965983 3.819089,-0.193893 V 40.979287 H 40.628902 l -5.961359,0.0028 -2.297066,2.41146 z"
         id="path1942"
         sodipodi:nodetypes="ccccccccccc"
         inkscape:label="main" /><path
         style="fill:#4d4d4d;fill-opacity:1;stroke:#333333;stroke-width:1;stroke-miterlimit:29;stroke-dasharray:none;stroke-opacity:1"
         d="m 34.439133,42.000995 h 5.587982 l 0.23421,0.405664 v 1.842837 H 33.270799 L 32.787581,43.97051 Z"
         id="path2033"
         inkscape:label="clip" /><path
         style="fill-opacity:1;stroke:#333333;stroke-width:1;stroke-miterlimit:29;stroke-dasharray:none;stroke-opacity:1"
         d="m 45.0625,54.579346 0.697555,1.2082 15.077449,-8.70497"
         id="path3298"
         transform="matrix(0.77283609,0.44619712,-0.44619712,0.77283609,34.955874,-20.475204)"
         inkscape:label="eject" /></g><path
       style="fill:#404040;fill-opacity:1;stroke:#333333;stroke-width:2;stroke-miterlimit:29;stroke-dasharray:none;stroke-opacity:1"
       d="m 61.337334,40.987195 h 14.947737 l 0.02485,5.232345 h -8.964865 l -7.350338,1.776108 -1.488994,0.02564 0.02867,-1.80175 h 1.837898 L 61.33733,44.24323 Z"
       id="path2151"
       sodipodi:nodetypes="cccccccccc"
       inkscape:label="grip" /><g
       id="g2762"
       inkscape:label="grip_texture"
       transform="translate(0.50442649,-0.1962086)"><rect
         style="fill:#404040;fill-opacity:1;stroke:#333333;stroke-width:1.18621;stroke-miterlimit:29;stroke-dasharray:none;stroke-opacity:1"
         id="rect2623-5-3"
         width="0.015711429"
         height="2.7550817"
         x="69.205399"
         y="43.660667" /><rect
         style="fill:#404040;fill-opacity:1;stroke:#333333;stroke-width:1.18621;stroke-miterlimit:29;stroke-dasharray:none;stroke-opacity:1"
         id="rect2623-5-5"
         width="0.015711429"
         height="2.7550817"
         x="70.724342"
         y="43.660667" /><rect
         style="fill:#404040;fill-opacity:1;stroke:#333333;stroke-width:1.18621;stroke-miterlimit:29;stroke-dasharray:none;stroke-opacity:1"
         id="rect2623-5-6"
         width="0.015711429"
         height="2.7550817"
         x="72.243286"
         y="43.660667" /><rect
         style="fill:#404040;fill-opacity:1;stroke:#333333;stroke-width:1.18621;stroke-miterlimit:29;stroke-dasharray:none;stroke-opacity:1"
         id="rect2623-5-2"
         width="0.015711429"
         height="2.7550817"
         x="73.762238"
         y="43.660667" /><rect
         style="fill:#404040;fill-opacity:1;stroke:#333333;stroke-width:1.18621;stroke-miterlimit:29;stroke-dasharray:none;stroke-opacity:1"
         id="rect2623-5"
         width="0.015711429"
         height="2.7550817"
         x="67.686447"
         y="43.660667" /></g></g></svg>
