<?xml version="1.0" encoding="UTF-8" standalone="no"?>
<!-- Created with Inkscape (http://www.inkscape.org/) -->

<svg
   width="110px"
   height="110px"
   viewBox="0 0 110 110"
   version="1.1"
   id="SVGRoot"
   sodipodi:docname="bar.svg"
   xml:space="preserve"
   inkscape:version="1.2.2 (b0a8486541, 2022-12-01)"
   xmlns:inkscape="http://www.inkscape.org/namespaces/inkscape"
   xmlns:sodipodi="http://sodipodi.sourceforge.net/DTD/sodipodi-0.dtd"
   xmlns="http://www.w3.org/2000/svg"
   xmlns:svg="http://www.w3.org/2000/svg"><sodipodi:namedview
     id="namedview225"
     pagecolor="#505050"
     bordercolor="#ffffff"
     borderopacity="1"
     inkscape:showpageshadow="0"
     inkscape:pageopacity="0"
     inkscape:pagecheckerboard="1"
     inkscape:deskcolor="#505050"
     inkscape:document-units="px"
     showgrid="false"
     inkscape:zoom="2.8284271"
     inkscape:cx="29.875262"
     inkscape:cy="56.922096"
     inkscape:window-width="1302"
     inkscape:window-height="699"
     inkscape:window-x="0"
     inkscape:window-y="0"
     inkscape:window-maximized="1"
     inkscape:current-layer="layer1" /><defs
     id="defs220" /><g
     inkscape:label="Layer 1"
     inkscape:groupmode="layer"
     id="layer1"><path
       style="fill:#333333;fill-opacity:1;stroke:#333333;stroke-width:1.06791;stroke-opacity:1"
       d="m 73.906,36.240163 1.888789,1.795025 24.663991,-19.572196 -1.187254,-1.487605 z"
       id="path336" /><path
       style="fill:#404040;fill-opacity:1;stroke:#333333;stroke-width:2.25756;stroke-dasharray:none;stroke-opacity:1"
       d="m 27.150269,70.410741 c 0,0 -23.4657782,19.627481 -21.770771,21.416235 1.6950072,1.788752 8.831178,6.860682 8.831178,6.860682 0,0 2.353296,0.774084 2.69772,0.119019 C 17.25282,98.1516 30.398603,76.935405 30.398603,76.935405 l 4.553796,-1.49166 0.395662,-2.637751 -3.508115,0.312486 z"
       id="path324" /><path
       style="fill:#333333;fill-opacity:1;stroke-width:1.12878"
       d="M 4.4866246,90.763737 2.4184922,88.66759 c 0,0 1.1067981,-1.876754 1.7839278,-1.715915 0.6771298,0.160838 0.9471086,0.39819 0.9471086,0.39819 l 0.9521634,-1.00639 1.1899148,0.73899 z"
       id="path326"
       sodipodi:nodetypes="ccscccc" /><path
       style="fill:#666666;stroke:#333333;stroke-width:2.25756;stroke-dasharray:none;stroke-opacity:1"
       d="m 31.326262,72.894059 2.891016,-1.08141 24.035684,-18.968853 -5.083078,-5.553271 -6.702268,5.351807 c 0,0 -8.62661,-0.438392 -9.417077,4.511169 -0.789664,4.944525 -0.581704,3.567075 -0.581704,3.567075 l -6.732518,5.625887 -1.442745,3.886315 z"
       id="path328"
       sodipodi:nodetypes="cccccscccc" /><path
       style="fill:#543d26;fill-opacity:1;stroke:#342618;stroke-width:2.25756;stroke-dasharray:none;stroke-opacity:1"
       d="m 74.43137,35.93032 -18.43939,14.451279 2.593925,2.835048 5.713011,0.939688 13.238014,-10.16893 1.197558,-3.526038 z"
       id="path332"
       sodipodi:nodetypes="ccccccc" /><path
       style="fill:#333333;fill-opacity:1;stroke:#333333;stroke-width:1.28134;stroke-opacity:1"
       d="M 53.013918,47.887781 60.235236,42.311896 103.17617,9.1553699 104.56013,10.617159 54.592636,49.376497 Z"
       id="path334"
       sodipodi:nodetypes="cccccc" /><path
       style="fill:#333333;fill-opacity:1;stroke-width:1.59092"
       d="m 94.551721,13.116235 -3.305228,2.456593 5.966539,7.840126 2.981888,-2.877476 z"
       id="path338" /><path
       style="fill:#333333;fill-opacity:1;stroke-width:1.12878"
       d="m 87.49268,16.020247 2.04395,3.273853 2.646302,-2.224867 -3.609417,-3.343462 z"
       id="path340"
       sodipodi:nodetypes="ccccc" /><path
       style="fill:#808080;fill-opacity:1;stroke:#333333;stroke-width:2.25756;stroke-dasharray:none;stroke-opacity:1"
       d="m 53.621917,56.713255 -5.772439,5.075414 c 1.47094,1.346791 4.854462,5.622809 2.821136,3.156922 l 6.130455,6.106977 3.672404,-7.049626 z"
       id="path344"
       sodipodi:nodetypes="cccccc" /><path
       style="fill:none;stroke:#333333;stroke-width:1.80605;stroke-dasharray:none;stroke-opacity:1"
       d="m 37.771093,69.364611 2.865994,2.370734 c 1.354524,1.218745 1.338594,1.563749 2.721098,0.902417 l 4.442645,-4.081963 c 0,0 -2.361511,-3.975754 -3.649827,-4.448159 -1.995601,0.43755 -4.210574,3.819969 -6.37991,5.256971 z"
       id="path427"
       sodipodi:nodetypes="cccccc" /><path
       style="fill:#333333;fill-opacity:1;stroke:none;stroke-width:1.80605;stroke-dasharray:none;stroke-opacity:1"
       d="m 41.556267,66.9271 0.138651,1.850219 1.038149,1.114588 -0.509273,0.04605 -0.823782,-0.868357 -1.793414,-0.359186 z"
       id="path1308" /><path
       style="fill:#666666;stroke:#343434;stroke-width:1.44371;stroke-dasharray:none;stroke-opacity:1"
       d="m 45.532916,63.428662 3.934102,-3.141348 3.215468,2.885738 -1.12147,0.786291 0.96264,1.019165 -3.758921,2.791298 z"
       id="path1415" /><circle
       style="fill:#333333;fill-opacity:1;stroke:#333333;stroke-width:0.995257;stroke-dasharray:none;stroke-opacity:1"
       id="path12490"
       cx="45.6297"
       cy="58.870422"
       r="0.603751" /><rect
       style="fill:#333333;fill-opacity:1;stroke:#333333;stroke-width:0.983385;stroke-dasharray:none;stroke-opacity:1"
       id="rect13270"
       width="6.7289515"
       height="0.44451532"
       x="2.3788919"
       y="72.591629"
       transform="rotate(-39.069706)" /></g></svg>
