<?xml version="1.0" encoding="UTF-8" standalone="no"?>
<!-- Created with Inkscape (http://www.inkscape.org/) -->

<svg
   width="129"
   height="24"
   viewBox="0 0 129 24"
   version="1.1"
   id="SVGRoot"
   sodipodi:docname="bar_world.svg"
   xml:space="preserve"
   inkscape:version="1.2.2 (b0a8486541, 2022-12-01)"
   xmlns:inkscape="http://www.inkscape.org/namespaces/inkscape"
   xmlns:sodipodi="http://sodipodi.sourceforge.net/DTD/sodipodi-0.dtd"
   xmlns="http://www.w3.org/2000/svg"
   xmlns:svg="http://www.w3.org/2000/svg"><sodipodi:namedview
     id="namedview18204"
     pagecolor="#505050"
     bordercolor="#ffffff"
     borderopacity="1"
     inkscape:showpageshadow="0"
     inkscape:pageopacity="0"
     inkscape:pagecheckerboard="1"
     inkscape:deskcolor="#505050"
     inkscape:document-units="px"
     showgrid="false"
     inkscape:zoom="5.6568542"
     inkscape:cx="59.220193"
     inkscape:cy="-20.152543"
     inkscape:window-width="1302"
     inkscape:window-height="699"
     inkscape:window-x="0"
     inkscape:window-y="0"
     inkscape:window-maximized="1"
     inkscape:current-layer="layer1"
     showguides="true" /><defs
     id="defs18199" /><g
     inkscape:label="Layer 1"
     inkscape:groupmode="layer"
     id="layer1"><path
       style="fill:#333333;fill-opacity:1;stroke:#333333;stroke-width:1.46046;stroke-dasharray:none;stroke-opacity:1"
       d="m 37.652265,5.4224426 4.989666,0.054892 c 0,0 1.019741,-0.9197053 1.195153,-2.5950576 0.175412,-1.6753522 0.0535,-3.63773876 0.0535,-3.63773876 0,0 1.452176,-0.98090144 1.390093,0.073569 -0.06208,1.0544603 -0.395184,5.12259696 0.03262,5.27545056 0.427805,0.1528444 1.356906,2.4318576 1.356906,2.4318576 l -8.547021,0.023994 z"
       id="path35610" /><path
       style="fill:#666666;fill-opacity:1;stroke:#333333;stroke-width:1.82362;stroke-dasharray:none;stroke-opacity:1"
       d="m 22.078235,7.8186084 5.505625,-0.358772 0.498435,-2.6864061 8.777371,-0.3026894 1.232524,3.0613895 0.190278,10.0355036 -0.882685,1.722519 -9.179826,0.259176 -5.987031,-0.657752 c 0,0 -1.883103,-7.829152 -0.154691,-11.0729686 z"
       id="path26874"
       sodipodi:nodetypes="cccccccccc" /><path
       style="fill:#553d25;fill-opacity:1;stroke:#352617;stroke-width:1.6421;stroke-dasharray:none;stroke-opacity:1"
       d="m 53.218534,5.8122437 -1.05669,2.2770691 -0.123487,6.3773002 c 0,0 0.513563,4.221629 0.903342,4.05024 0.389777,-0.171399 24.757177,-0.131178 24.757177,-0.131178 1.001334,0.109422 -0.916649,-6.716743 -0.166339,-11.504082 0,0 0.156103,-0.7632978 0.305284,-1.0424126 C 78.337747,5.4039762 53.918856,5.3644471 53.218534,5.8122365 Z"
       id="path18280-6"
       sodipodi:nodetypes="cccscccc" /><path
       style="fill:#666666;fill-opacity:1;stroke:#363636;stroke-width:1.20602;stroke-dasharray:none;stroke-opacity:1"
       d="m 34.80949,9.5216084 0.04569,4.9693156 -4.286069,-0.01601 -1.322235,-1.006155 0.03065,-3.219092 1.470903,-0.6286006 z"
       id="path30411" /><rect
       style="fill:#666666;fill-opacity:1;stroke:#333333;stroke-width:1.69563;stroke-dasharray:none;stroke-opacity:1"
       id="rect36465"
       width="74.814377"
       height="7.7089634"
       x="50.332283"
       y="8.1455183" /><path
       style="fill:#666666;fill-opacity:1;stroke:#333333;stroke-width:1.24418;stroke-dasharray:none;stroke-opacity:1"
       d="M 42.004472,6.7744277 53.056659,6.6389286 c 0,0 -0.651292,7.7852284 -0.03247,10.3830494 0.152771,0.641346 -10.990341,0.198207 -10.990341,0.198207 z"
       id="path36338"
       sodipodi:nodetypes="ccscc" /><path
       style="fill:#666666;fill-opacity:1;stroke:#333333;stroke-width:1.21024;stroke-dasharray:none;stroke-opacity:1"
       d="m 37.772022,7.0892033 0.550359,-0.2930632 3.699613,-0.1097996 0.598907,2.1233175 -0.15889,8.339086 -4.153408,0.156623 z"
       id="path31198"
       sodipodi:nodetypes="ccccccc" /><path
       style="fill:#553d25;fill-opacity:1;stroke:#352617;stroke-width:1.93844;stroke-dasharray:none;stroke-opacity:1"
       d="M 3.7564526,3.8070859 2.9267786,5.6736221 2.8049159,14.67878 c 0,0 0.5470883,5.883462 0.9317435,5.641451 0.3846552,-0.242028 19.1182626,-0.649079 19.1182626,-0.649079 0.988174,0.154517 -1.187564,-6.249083 -0.447115,-13.0091131 0,0 0.510477,-2.3896678 0.657697,-2.7837953 C 23.21277,3.4841143 3.7564526,3.8070859 3.7564526,3.8070859 Z"
       id="path18280"
       sodipodi:nodetypes="cccscccc" /></g></svg>
