<?xml version="1.0" encoding="UTF-8" standalone="no"?>
<!-- Created with Inkscape (http://www.inkscape.org/) -->

<svg
   width="110"
   height="110"
   viewBox="0 0 29.104166 29.104166"
   version="1.1"
   id="svg1"
   xml:space="preserve"
   sodipodi:docname="dual_deagle.svg"
   inkscape:version="1.3 (0e150ed6c4, 2023-07-21)"
   xmlns:inkscape="http://www.inkscape.org/namespaces/inkscape"
   xmlns:sodipodi="http://sodipodi.sourceforge.net/DTD/sodipodi-0.dtd"
   xmlns="http://www.w3.org/2000/svg"
   xmlns:svg="http://www.w3.org/2000/svg"><sodipodi:namedview
     id="namedview1"
     pagecolor="#ffffff"
     bordercolor="#000000"
     borderopacity="0.25"
     inkscape:showpageshadow="2"
     inkscape:pageopacity="0.0"
     inkscape:pagecheckerboard="0"
     inkscape:deskcolor="#d1d1d1"
     inkscape:document-units="mm"
     inkscape:zoom="3.9156336"
     inkscape:cx="25.410958"
     inkscape:cy="57.334272"
     inkscape:window-width="1920"
     inkscape:window-height="991"
     inkscape:window-x="-9"
     inkscape:window-y="-9"
     inkscape:window-maximized="1"
     inkscape:current-layer="layer1"
     showgrid="false" /><defs
     id="defs1" /><g
     inkscape:label="Layer 1"
     inkscape:groupmode="layer"
     id="layer1"><g
       id="g1"
       transform="matrix(0.13080717,-0.07552155,0.07552155,0.13080717,-3.2921174,14.977122)"><g
         id="Rail">&#10;	<rect
   x="124.9"
   y="9.6999998"
   class="st0"
   width="4.4000001"
   height="4.4000001"
   id="rect1"
   style="stroke-linejoin:round" />&#10;	<rect
   x="132.7"
   y="9.6999998"
   class="st0"
   width="4.4000001"
   height="4.4000001"
   id="rect2"
   style="stroke-linejoin:round" />&#10;	<rect
   x="140.8"
   y="9.6999998"
   class="st0"
   width="4.4000001"
   height="4.4000001"
   id="rect3"
   style="stroke-linejoin:round" />&#10;	<rect
   x="149"
   y="9.6999998"
   class="st0"
   width="4.4000001"
   height="4.4000001"
   id="rect4"
   style="stroke-linejoin:round" />&#10;	<rect
   x="157.10001"
   y="9.6999998"
   class="st0"
   width="4.4000001"
   height="4.4000001"
   id="rect5"
   style="stroke-linejoin:round" />&#10;	<rect
   x="165.8"
   y="9.6999998"
   class="st0"
   width="4.4000001"
   height="4.4000001"
   id="rect6"
   style="stroke-linejoin:round" />&#10;	<rect
   x="173.89999"
   y="9.6999998"
   class="st0"
   width="4.4000001"
   height="4.4000001"
   id="rect7"
   style="stroke-linejoin:round" />&#10;</g><g
         id="Layer_3">&#10;	<rect
   x="30.6"
   y="114.7"
   class="st1"
   width="31.700001"
   height="4.1999998"
   id="rect8" />&#10;	<path
   class="st2"
   d="m 7.2,34.1 c 2.6,-2.5 6.4,-6.6 7.9,-9.7 0.2,-0.5 1.1,-0.5 1.3,0 1.1,2.4 3.3,6.7 6.4,9.5 0.5,0.5 0.1,1.2 -0.6,1.1 C 18.7,34.5 12.7,34 8,35.2 7.2,35.4 6.7,34.6 7.2,34.1 Z"
   id="path8" />&#10;	<path
   class="st2"
   d="M 192,11.2 V 6.4 L 197.6,3 c 0,0 2.9,-1.9 2.9,2.1 0,4 0,8.4 0,8.4 h -8.1 z"
   id="path9" />&#10;	<polygon
   class="st0"
   points="204.2,12.6 203.7,8.8 188.7,8.8 181.7,9.8 181.7,12.6 "
   id="polygon9"
   style="fill:#e0a320;fill-opacity:1;stroke-width:1.79879;stroke-linejoin:round;stroke-dasharray:none"
   transform="matrix(1.0081185,0,0,1.2262792,-1.363311,-2.1051628)" />&#10;	<path
   class="st3"
   d="m 81.5,47.1 c 0,0 -1.91269,5.20423 -0.41269,9.20423 C 82.58731,60.30423 85,62.8 88.1,62.7 90.49991,62.693 88.02427,61.624607 87.2,60.2 86,58 83.3,51.9 86.9,44.6 91.5,35.4 85.3,40 85.3,40 l -2.4,4.3 z"
   id="path10"
   sodipodi:nodetypes="cscccccc"
   style="stroke-linejoin:round" />&#10;	<path
   class="st0"
   d="m 120.2,14.1 v -2.4 h -6.4 L 110.4,9.5 H 88 V 8.4 H 59.3 l -6.1,3.4 -18.3,-0.3 c 0,0 -11.1,7.7 -11.2,15.7 -0.1,8 -3.4,10.8 -8.8,11.1 -5.4,0.3 -12,4.4 -12,4.4 0,0 -3.2,2.6 9.5,2.6 12.7,0 18.2,3 18.5,16.8 0,0 -14,27.1 -14.2,47.5 0,0 4.5,6.3 9.8,6.7 5.2,0.3 40.8,0.7 42.7,-1.2 0,0 -4.6,-7.4 0,-25.1 4.6,-17.6 1.5,-21.8 14.4,-21.8 h 25.7 l -1.6,-10.7 c 0,0 1.4,-16.4 16.7,-17.2 15.2,-0.8 73.8,0 73.8,0 L 204,26.4 V 14.1 Z m -16.3,47.5 c -0.3,3.4 -3.6,3.419414 -3.6,3.419414 0,0 -8.3,0.380586 -16.4,-0.01941 -8.1,-0.4 -8.7,-10.3 -8.7,-10.3 -0.2,-7.4 10,-9.9 18.6,-10.2 8.6,-0.3 10.11269,9.7 10.11269,9.7 z"
   id="path11"
   style="stroke:#61480e;stroke-opacity:1"
   sodipodi:nodetypes="cccccccccsscscccccscccccccccscscc" />&#10;	<path
   class="st4"
   d="m 105.6,46.1 3.8,-3.4 c 0.8,-0.7 0.6,-1.9 -0.3,-2.4 L 107,39.1 c -0.2,-0.1 -0.5,-0.2 -0.7,-0.2 h -4.5 c -0.9,0 -1.7,0.8 -1.5,1.8 v 0 c 0,0.2 0.1,0.4 0.2,0.5 l 2.9,4.6 c 0.4,0.8 1.5,0.9 2.2,0.3 z"
   id="path12" />&#10;	<circle
   class="st5"
   cx="105.4"
   cy="39.799999"
   r="2.3"
   id="circle12" />&#10;	<path
   class="st6"
   d="m 98.3,41.4 c 0,0 2.7,4.5 5.5,4.8 2.8,0.3 3.4,-1.4 3.4,-1.4 l -2.8,-4.3 z"
   id="path13"
   style="stroke:#34322d;stroke-linejoin:round;stroke-opacity:1" />&#10;	<path
   class="st7"
   d="m 98.1,38.6 -2,2.1 c 0,0 0,0 0,0.1 L 96,42.9 c 0,0 0,0.1 0.1,0.1 h 10.1 l -2.3,-4.3 c 0,0 0,0 -0.1,0 l -5.7,-0.1 c 0.1,0 0.1,0 0,0 z"
   id="path14"
   style="stroke:#3b3934;stroke-width:1.00157;stroke-linejoin:round;stroke-dasharray:none;stroke-opacity:1" />&#10;	<path
   class="st2"
   d="m 35.1,4.6 c -0.1,0 -0.3,0.1 -0.3,0.2 v 8 h 9.8 V 9.9 c 0,0 -3.8,-5.1 -9.6,-5.3 z"
   id="path15" />&#10;	<path
   class="st8"
   d="m 88,18.6 c 0,0 1.1,4.8 9,4.7 12.6,-0.2 85.6,0 85.6,0 V 29 h 20.3 L 199,36.7 176.6,36.5 80,31.9 V 18 Z"
   id="path16" />&#10;	<path
   class="st9"
   d="m 87.6,9.5 c 0,0 -1.4,19.5 6.2,19.5 H 182 v 7 l 8.7,0.1 -0.9,4 H 21 L 23.565023,32.504469 23.5,25.8 c 0,0 1.5,-7.5 11.1,-14.4 l 1.1,-0.1 -0.6,1.5 H 42 l -0.6,-1.3 h 11.5 l 6.5,-2.2 z"
   id="path17"
   sodipodi:nodetypes="csccccccccccccccc"
   style="stroke-linejoin:round" />&#10;	<path
   class="st10"
   d="m 16.2,108.9 c 0,0.7 0.2,1.3 0.6,1.8 1.4,1.7 5.1,5.6 9.2,5.9 5.2,0.3 40.8,0.7 42.7,-1.2 0,0 -4.6,-7.4 0,-25.1 4.6,-17.6 1.5,-21.8 14.4,-21.8 12.9,0 26.8,-0.2 26.8,-0.2 0,0 -2,-3.9 -2.2,-6.4 v -6.1 c 0,0 0.9,-14.5 16.2,-15.3 15.3,-0.8 73.8,0 73.8,0 l 5.8,-13.9 V 14.4 H 119.7 V 12 h -6.4 L 109.9,9.8 H 88.804626 v -1 H 58.8 L 52.7,12.2 41.9,12 37.6,11.9 34.4,11.8 c 0,0 -11.1,7.7 -11.2,15.7 -0.1,8 -3.439743,10.380523 -8.8,11.1 -8.2893686,1.112635 -11.7291217,4.670878 -11.7291217,4.670878 0,0 -3.4708783,1.877658 9.2291217,1.877658 12.7,0 18.327693,3.323771 17.797687,18.46455 C 29.597687,63.613086 16.8,88.7 16.2,108.9 Z"
   id="path18"
   sodipodi:nodetypes="cccccscccsccccccccccccccsscscc"
   style="stroke-linejoin:round" />&#10;	<path
   class="st2"
   d="m 61.8,63.7 c -1,-1.7 0.2,-4.8 1.7,-4.8 0,0 1.5,0 2.7,0.1 0.9,0 1.8,-0.6 1.9,-1.5 0.5,-2.4 1.4,-6.9 1.8,-9.1 0.1,-0.7 -0.4,-1.3 -1.1,-1.3 H 50 c -0.6,0 -1.1,-0.5 -1.1,-1.1 v -3.5 c 0,-0.6 -0.5,-1.1 -1.1,-1.1 h -5.2 c -1,0 -1.9,0.7 -2.2,1.7 l -5.7,19.4 c -0.1,0.4 -0.4,0.6 -0.8,0.7 L 31.1,64 c -0.3,0.1 -2.7,-0.2 -2.8,0 -1.6,3.2 -12.3,26.2 -13.3,44.9 0,0.6 2.2,0.7 2.8,0.7 h 38.9 c 0.5,0 1,-0.4 1.1,-0.9 L 66,67.8 c 0.2,-0.9 -0.3,-1.9 -1.2,-2.2 -1.4,-0.5 -2.7,-1.4 -3,-1.9 z"
   id="path19" />&#10;	<path
   class="st11"
   d="m 26.8,88.3 11,-22.9 c 0,0 5.8,-12 14.8,-12 h 8.5 l -0.3,2.480586 C 59.716487,56.512635 56.70997,59.898159 58,64.1 Z"
   id="path20"
   sodipodi:nodetypes="ccscccc" />&#10;	<path
   class="st6"
   d="m 21.4,97.7 c 0,0 -1.2,5.9 0,7.4 l 34.3,1.5 6.6,-39.4 z"
   id="path21" />&#10;	<circle
   class="st12"
   cx="46"
   cy="78.199997"
   r="5.4000001"
   id="circle21" />&#10;	<path
   class="st13"
   d="M 25.4,120.8 H 62 c 0.5,0 1.1,0 1.6,-0.1 2,-0.3 7.1,-1.3 9.2,-2.6"
   id="path22" />&#10;	<circle
   class="st7"
   cx="104.5"
   cy="46.5"
   r="2.3"
   id="circle22"
   style="stroke:#3b3a35;stroke-opacity:1" />&#10;</g><g
         id="diamonds">&#10;	<polygon
   class="st8"
   points="80,17.3 74.8,38.1 72,38.1 77,17.3 "
   id="polygon22" />&#10;	<polygon
   class="st8"
   points="83.9,17.3 78.7,38.1 75.9,38.1 80.9,17.3 "
   id="polygon23" />&#10;	<polygon
   class="st8"
   points="72.4,17.3 67.1,38.1 64.3,38.1 69.4,17.3 "
   id="polygon24" />&#10;	<polygon
   class="st8"
   points="76.2,17.3 70.9,38.1 68.1,38.1 73.2,17.3 "
   id="polygon25" />&#10;	<polygon
   class="st8"
   points="64.2,17.3 58.9,38.1 56.2,38.1 61.2,17.3 "
   id="polygon26" />&#10;	<polygon
   class="st8"
   points="68.1,17.3 62.9,38.1 60.1,38.1 65.1,17.3 "
   id="polygon27" />&#10;	<polygon
   class="st8"
   points="56.6,17.3 51.3,38.1 48.5,38.1 53.6,17.3 "
   id="polygon28" />&#10;	<polygon
   class="st8"
   points="60.4,17.3 55.1,38.1 52.3,38.1 57.4,17.3 "
   id="polygon29" />&#10;	<polygon
   class="st8"
   points="44.6,17.3 39.3,38.1 36.6,38.1 41.6,17.3 "
   id="polygon30" />&#10;	<polygon
   class="st8"
   points="48.5,17.3 43.3,38.1 40.5,38.1 45.5,17.3 "
   id="polygon31" />&#10;	<polygon
   class="st8"
   points="37,17.3 31.7,38.1 29,38.1 34,17.3 "
   id="polygon32" />&#10;	<polygon
   class="st8"
   points="40.8,17.3 35.5,38.1 32.7,38.1 37.8,17.3 "
   id="polygon33" />&#10;	<polygon
   class="st8"
   points="52.6,17.3 47.3,38.1 44.5,38.1 49.6,17.3 "
   id="polygon34" />&#10;</g><g
         id="Garnish">&#10;	<path
   class="st8"
   d="m 39.2,25.7 15.1,2 c 0.8,0.1 1.5,-0.5 1.5,-1.2 l 0.7,-8.7 C 56.6,17 55.9,16.3 55.1,16.3 l -13.4,0.9 c -0.5,0 -1,0.4 -1.2,0.8 l -2.4,5.8 c -0.3,0.9 0.2,1.8 1.1,1.9 z"
   id="path34" />&#10;	<path
   class="st2"
   d="M 54.5,15.1 40.8,14.5 c -0.8,-0.4 -1.7,-0.6 -2.6,-0.6 -3.4,0 -6.1,2.7 -6.1,6.1 0,3.4 2.7,6.1 6.1,6.1 1.6,0 3.2,-0.5 4.3,-1.5 v 0 l 12.1,-5.3 c 0,0 1.8,-0.2 2.1,-2.2 0.1,-2 -2.2,-2 -2.2,-2 z"
   id="path35" />&#10;	<circle
   class="st14"
   cx="49.700001"
   cy="25.200001"
   r="1"
   id="circle35" />&#10;	<circle
   class="st15"
   cx="54.374302"
   cy="25.238443"
   id="ellipse35"
   style="stroke-width:1.44313"
   r="0.99968505" />&#10;	&#10;	<circle
   class="st16"
   cx="72"
   cy="63.400002"
   r="1.3"
   id="circle37"
   style="stroke-width:3.001;stroke-dasharray:none" />&#10;	<line
   class="st17"
   x1="73.699997"
   y1="63.400002"
   x2="64.800003"
   y2="62"
   id="line37" />&#10;	<path
   class="st18"
   d="m 52.1,15.9 -2.3,0.8 c -1.6,0.5 -1.1,2.9 0.5,2.8 l 3.9,-0.2 c 0,0 2.4,-0.6 2.4,-2.5 0,-1.9 -3.3,0 -3.3,0 z"
   id="path37" />&#10;<circle
   class="st16"
   cx="37.900002"
   cy="20"
   r="1.7252698"
   id="circle1"
   style="stroke-width:2;stroke-dasharray:none" /></g></g><text
       xml:space="preserve"
       style="font-style:normal;font-variant:normal;font-weight:normal;font-stretch:normal;font-size:2.35313px;line-height:0px;font-family:sans-serif;-inkscape-font-specification:sans-serif;fill:#3e3e41;stroke:#484a51;stroke-width:0.313751;stroke-linecap:round;stroke-linejoin:round;stroke-miterlimit:3.8;stroke-opacity:1"
       x="-2.1311035"
       y="16.66666"
       id="text1"
       transform="rotate(-30)"><tspan
         sodipodi:role="line"
         id="tspan1"
         style="font-style:normal;font-variant:normal;font-weight:normal;font-stretch:normal;font-family:sans-serif;-inkscape-font-specification:sans-serif;stroke:#484a51;stroke-width:0.313751;stroke-opacity:1"
         x="-2.1311035"
         y="16.66666">chps is a femboy</tspan></text><g
       id="g142"
       transform="matrix(0.13080717,-0.07552155,0.07552155,0.13080717,-0.12211738,14.977122)"
       style="opacity:1"><g
         id="g110">&#10;	<rect
   x="124.9"
   y="9.6999998"
   class="st0"
   width="4.4000001"
   height="4.4000001"
   id="rect104"
   style="stroke-linejoin:round" />&#10;	<rect
   x="132.7"
   y="9.6999998"
   class="st0"
   width="4.4000001"
   height="4.4000001"
   id="rect105"
   style="stroke-linejoin:round" />&#10;	<rect
   x="140.8"
   y="9.6999998"
   class="st0"
   width="4.4000001"
   height="4.4000001"
   id="rect106"
   style="stroke-linejoin:round" />&#10;	<rect
   x="149"
   y="9.6999998"
   class="st0"
   width="4.4000001"
   height="4.4000001"
   id="rect107"
   style="stroke-linejoin:round" />&#10;	<rect
   x="157.10001"
   y="9.6999998"
   class="st0"
   width="4.4000001"
   height="4.4000001"
   id="rect108"
   style="stroke-linejoin:round" />&#10;	<rect
   x="165.8"
   y="9.6999998"
   class="st0"
   width="4.4000001"
   height="4.4000001"
   id="rect109"
   style="stroke-linejoin:round" />&#10;	<rect
   x="173.89999"
   y="9.6999998"
   class="st0"
   width="4.4000001"
   height="4.4000001"
   id="rect110"
   style="stroke-linejoin:round" />&#10;</g><g
         id="g125">&#10;	<rect
   x="30.6"
   y="114.7"
   class="st1"
   width="31.700001"
   height="4.1999998"
   id="rect111" />&#10;	<path
   class="st2"
   d="m 7.2,34.1 c 2.6,-2.5 6.4,-6.6 7.9,-9.7 0.2,-0.5 1.1,-0.5 1.3,0 1.1,2.4 3.3,6.7 6.4,9.5 0.5,0.5 0.1,1.2 -0.6,1.1 C 18.7,34.5 12.7,34 8,35.2 7.2,35.4 6.7,34.6 7.2,34.1 Z"
   id="path111" />&#10;	<path
   class="st2"
   d="M 192,11.2 V 6.4 L 197.6,3 c 0,0 2.9,-1.9 2.9,2.1 0,4 0,8.4 0,8.4 h -8.1 z"
   id="path112" />&#10;	<polygon
   class="st0"
   points="181.7,12.6 204.2,12.6 203.7,8.8 188.7,8.8 181.7,9.8 "
   id="polygon112"
   style="fill:#e0a320;fill-opacity:1;stroke-width:1.79879;stroke-linejoin:round;stroke-dasharray:none"
   transform="matrix(1.0081185,0,0,1.2262792,-1.363311,-2.1051628)" />&#10;	<path
   class="st3"
   d="m 81.5,47.1 c 0,0 -1.91269,5.20423 -0.41269,9.20423 C 82.58731,60.30423 85,62.8 88.1,62.7 90.49991,62.693 88.02427,61.624607 87.2,60.2 86,58 83.3,51.9 86.9,44.6 91.5,35.4 85.3,40 85.3,40 l -2.4,4.3 z"
   id="path113"
   sodipodi:nodetypes="cscccccc"
   style="stroke-linejoin:round" />&#10;	<path
   class="st0"
   d="m 120.2,14.1 v -2.4 h -6.4 L 110.4,9.5 H 88 V 8.4 H 59.3 l -6.1,3.4 -18.3,-0.3 c 0,0 -11.1,7.7 -11.2,15.7 -0.1,8 -3.4,10.8 -8.8,11.1 -5.4,0.3 -12,4.4 -12,4.4 0,0 -3.2,2.6 9.5,2.6 12.7,0 18.2,3 18.5,16.8 0,0 -14,27.1 -14.2,47.5 0,0 4.5,6.3 9.8,6.7 5.2,0.3 40.8,0.7 42.7,-1.2 0,0 -4.6,-7.4 0,-25.1 4.6,-17.6 1.5,-21.8 14.4,-21.8 h 25.7 l -1.6,-10.7 c 0,0 1.4,-16.4 16.7,-17.2 15.2,-0.8 73.8,0 73.8,0 L 204,26.4 V 14.1 Z m -16.3,47.5 c -0.3,3.4 -3.6,3.419414 -3.6,3.419414 0,0 -8.3,0.380586 -16.4,-0.01941 -8.1,-0.4 -8.7,-10.3 -8.7,-10.3 -0.2,-7.4 10,-9.9 18.6,-10.2 8.6,-0.3 10.11269,9.7 10.11269,9.7 z"
   id="path114"
   style="stroke:#61480e;stroke-opacity:1"
   sodipodi:nodetypes="cccccccccsscscccccscccccccccscscc" />&#10;	<path
   class="st4"
   d="m 105.6,46.1 3.8,-3.4 c 0.8,-0.7 0.6,-1.9 -0.3,-2.4 L 107,39.1 c -0.2,-0.1 -0.5,-0.2 -0.7,-0.2 h -4.5 c -0.9,0 -1.7,0.8 -1.5,1.8 v 0 c 0,0.2 0.1,0.4 0.2,0.5 l 2.9,4.6 c 0.4,0.8 1.5,0.9 2.2,0.3 z"
   id="path115" />&#10;	<circle
   class="st5"
   cx="105.4"
   cy="39.799999"
   r="2.3"
   id="circle115" />&#10;	<path
   class="st6"
   d="m 98.3,41.4 c 0,0 2.7,4.5 5.5,4.8 2.8,0.3 3.4,-1.4 3.4,-1.4 l -2.8,-4.3 z"
   id="path116"
   style="stroke:#34322d;stroke-linejoin:round;stroke-opacity:1" />&#10;	<path
   class="st7"
   d="m 98.1,38.6 -2,2.1 c 0,0 0,0 0,0.1 L 96,42.9 c 0,0 0,0.1 0.1,0.1 h 10.1 l -2.3,-4.3 c 0,0 0,0 -0.1,0 l -5.7,-0.1 c 0.1,0 0.1,0 0,0 z"
   id="path117"
   style="stroke:#3b3934;stroke-width:1.00157;stroke-linejoin:round;stroke-dasharray:none;stroke-opacity:1" />&#10;	<path
   class="st2"
   d="m 35.1,4.6 c -0.1,0 -0.3,0.1 -0.3,0.2 v 8 h 9.8 V 9.9 c 0,0 -3.8,-5.1 -9.6,-5.3 z"
   id="path118" />&#10;	<path
   class="st8"
   d="m 88,18.6 c 0,0 1.1,4.8 9,4.7 12.6,-0.2 85.6,0 85.6,0 V 29 h 20.3 L 199,36.7 176.6,36.5 80,31.9 V 18 Z"
   id="path119" />&#10;	<path
   class="st9"
   d="m 87.6,9.5 c 0,0 -1.4,19.5 6.2,19.5 H 182 v 7 l 8.7,0.1 -0.9,4 H 21 L 23.565023,32.504469 23.5,25.8 c 0,0 1.5,-7.5 11.1,-14.4 l 1.1,-0.1 -0.6,1.5 H 42 l -0.6,-1.3 h 11.5 l 6.5,-2.2 z"
   id="path120"
   sodipodi:nodetypes="csccccccccccccccc"
   style="stroke-linejoin:round" />&#10;	<path
   class="st10"
   d="m 16.2,108.9 c 0,0.7 0.2,1.3 0.6,1.8 1.4,1.7 5.1,5.6 9.2,5.9 5.2,0.3 40.8,0.7 42.7,-1.2 0,0 -4.6,-7.4 0,-25.1 4.6,-17.6 1.5,-21.8 14.4,-21.8 12.9,0 26.8,-0.2 26.8,-0.2 0,0 -2,-3.9 -2.2,-6.4 v -6.1 c 0,0 0.9,-14.5 16.2,-15.3 15.3,-0.8 73.8,0 73.8,0 l 5.8,-13.9 V 14.4 H 119.7 V 12 h -6.4 L 109.9,9.8 H 88.804626 v -1 H 58.8 L 52.7,12.2 41.9,12 37.6,11.9 34.4,11.8 c 0,0 -11.1,7.7 -11.2,15.7 -0.1,8 -3.439743,10.380523 -8.8,11.1 -8.2893686,1.112635 -11.7291217,4.670878 -11.7291217,4.670878 0,0 -3.4708783,1.877658 9.2291217,1.877658 12.7,0 18.327693,3.323771 17.797687,18.46455 C 29.597687,63.613086 16.8,88.7 16.2,108.9 Z"
   id="path121"
   sodipodi:nodetypes="cccccscccsccccccccccccccsscscc"
   style="stroke-linejoin:round" />&#10;	<path
   class="st2"
   d="m 61.8,63.7 c -1,-1.7 0.2,-4.8 1.7,-4.8 0,0 1.5,0 2.7,0.1 0.9,0 1.8,-0.6 1.9,-1.5 0.5,-2.4 1.4,-6.9 1.8,-9.1 0.1,-0.7 -0.4,-1.3 -1.1,-1.3 H 50 c -0.6,0 -1.1,-0.5 -1.1,-1.1 v -3.5 c 0,-0.6 -0.5,-1.1 -1.1,-1.1 h -5.2 c -1,0 -1.9,0.7 -2.2,1.7 l -5.7,19.4 c -0.1,0.4 -0.4,0.6 -0.8,0.7 L 31.1,64 c -0.3,0.1 -2.7,-0.2 -2.8,0 -1.6,3.2 -12.3,26.2 -13.3,44.9 0,0.6 2.2,0.7 2.8,0.7 h 38.9 c 0.5,0 1,-0.4 1.1,-0.9 L 66,67.8 c 0.2,-0.9 -0.3,-1.9 -1.2,-2.2 -1.4,-0.5 -2.7,-1.4 -3,-1.9 z"
   id="path122" />&#10;	<path
   class="st11"
   d="m 26.8,88.3 11,-22.9 c 0,0 5.8,-12 14.8,-12 h 8.5 l -0.3,2.480586 C 59.716487,56.512635 56.70997,59.898159 58,64.1 Z"
   id="path123"
   sodipodi:nodetypes="ccscccc" />&#10;	<path
   class="st6"
   d="m 21.4,97.7 c 0,0 -1.2,5.9 0,7.4 l 34.3,1.5 6.6,-39.4 z"
   id="path124" />&#10;	<circle
   class="st12"
   cx="46"
   cy="78.199997"
   r="5.4000001"
   id="circle124" />&#10;	<path
   class="st13"
   d="M 25.4,120.8 H 62 c 0.5,0 1.1,0 1.6,-0.1 2,-0.3 7.1,-1.3 9.2,-2.6"
   id="path125" />&#10;	<circle
   class="st7"
   cx="104.5"
   cy="46.5"
   r="2.3"
   id="circle125"
   style="stroke:#3b3a35;stroke-opacity:1" />&#10;</g><g
         id="g137">&#10;	<polygon
   class="st8"
   points="80,17.3 74.8,38.1 72,38.1 77,17.3 "
   id="polygon125" />&#10;	<polygon
   class="st8"
   points="83.9,17.3 78.7,38.1 75.9,38.1 80.9,17.3 "
   id="polygon126" />&#10;	<polygon
   class="st8"
   points="72.4,17.3 67.1,38.1 64.3,38.1 69.4,17.3 "
   id="polygon127" />&#10;	<polygon
   class="st8"
   points="76.2,17.3 70.9,38.1 68.1,38.1 73.2,17.3 "
   id="polygon128" />&#10;	<polygon
   class="st8"
   points="64.2,17.3 58.9,38.1 56.2,38.1 61.2,17.3 "
   id="polygon129" />&#10;	<polygon
   class="st8"
   points="68.1,17.3 62.9,38.1 60.1,38.1 65.1,17.3 "
   id="polygon130" />&#10;	<polygon
   class="st8"
   points="56.6,17.3 51.3,38.1 48.5,38.1 53.6,17.3 "
   id="polygon131" />&#10;	<polygon
   class="st8"
   points="60.4,17.3 55.1,38.1 52.3,38.1 57.4,17.3 "
   id="polygon132" />&#10;	<polygon
   class="st8"
   points="44.6,17.3 39.3,38.1 36.6,38.1 41.6,17.3 "
   id="polygon133" />&#10;	<polygon
   class="st8"
   points="48.5,17.3 43.3,38.1 40.5,38.1 45.5,17.3 "
   id="polygon134" />&#10;	<polygon
   class="st8"
   points="37,17.3 31.7,38.1 29,38.1 34,17.3 "
   id="polygon135" />&#10;	<polygon
   class="st8"
   points="40.8,17.3 35.5,38.1 32.7,38.1 37.8,17.3 "
   id="polygon136" />&#10;	<polygon
   class="st8"
   points="52.6,17.3 47.3,38.1 44.5,38.1 49.6,17.3 "
   id="polygon137" />&#10;</g><g
         id="g141">&#10;	<path
   class="st8"
   d="m 39.2,25.7 15.1,2 c 0.8,0.1 1.5,-0.5 1.5,-1.2 l 0.7,-8.7 C 56.6,17 55.9,16.3 55.1,16.3 l -13.4,0.9 c -0.5,0 -1,0.4 -1.2,0.8 l -2.4,5.8 c -0.3,0.9 0.2,1.8 1.1,1.9 z"
   id="path137" />&#10;	<path
   class="st2"
   d="M 54.5,15.1 40.8,14.5 c -0.8,-0.4 -1.7,-0.6 -2.6,-0.6 -3.4,0 -6.1,2.7 -6.1,6.1 0,3.4 2.7,6.1 6.1,6.1 1.6,0 3.2,-0.5 4.3,-1.5 v 0 l 12.1,-5.3 c 0,0 1.8,-0.2 2.1,-2.2 0.1,-2 -2.2,-2 -2.2,-2 z"
   id="path138" />&#10;	<circle
   class="st14"
   cx="49.700001"
   cy="25.200001"
   r="1"
   id="circle138" />&#10;	<circle
   class="st15"
   cx="54.374302"
   cy="25.238443"
   id="circle139"
   style="stroke-width:1.44313"
   r="0.99968505" />&#10;	&#10;	<circle
   class="st16"
   cx="72"
   cy="63.400002"
   r="1.3"
   id="circle140"
   style="stroke-width:3.001;stroke-dasharray:none" />&#10;	<line
   class="st17"
   x1="73.699997"
   y1="63.400002"
   x2="64.800003"
   y2="62"
   id="line140" />&#10;	<path
   class="st18"
   d="m 52.1,15.9 -2.3,0.8 c -1.6,0.5 -1.1,2.9 0.5,2.8 l 3.9,-0.2 c 0,0 2.4,-0.6 2.4,-2.5 0,-1.9 -3.3,0 -3.3,0 z"
   id="path140" />&#10;<circle
   class="st16"
   cx="37.900002"
   cy="20"
   r="1.7252698"
   id="circle141"
   style="stroke-width:2;stroke-dasharray:none" /></g></g></g><style
     type="text/css"
     id="style1">&#10;	.st0{fill:#E0A420;stroke:#61480E;stroke-width:2;stroke-miterlimit:11.34;}&#10;	.st1{fill:#4D4A44;stroke:#373531;stroke-width:4;stroke-linecap:round;stroke-miterlimit:11.34;}&#10;	.st2{fill:#4D4A44;stroke:#373531;stroke-width:2;stroke-linecap:round;stroke-miterlimit:11.34;}&#10;	.st3{fill:#DB9A11;stroke:#604407;stroke-width:2;stroke-linecap:round;stroke-miterlimit:11.34;}&#10;	.st4{fill:#DB9A11;}&#10;	.st5{fill:#292724;}&#10;	.st6{fill:#413E39;}&#10;	.st7{fill:#4D4A44;}&#10;	.st8{fill:#D69811;}&#10;	.st9{fill:#F3AC14;stroke:#634605;stroke-width:2;stroke-linecap:round;stroke-miterlimit:11.34;}&#10;	.st10{fill:none;stroke:#61480E;stroke-width:4;stroke-miterlimit:11.34;}&#10;	.st11{fill:#413E39;stroke:#413E39;stroke-width:4;stroke-linecap:round;stroke-miterlimit:11.34;}&#10;	.st12{fill:#413E39;stroke:#33312D;stroke-width:2;stroke-miterlimit:11.34;}&#10;	.st13{fill:none;stroke:#57544D;stroke-width:2;stroke-linecap:round;stroke-miterlimit:11.34;}&#10;	.st14{fill:#D01600;}&#10;	.st15{fill:#B98619;}&#10;	.st16{fill:#4D4A44;stroke:#373531;stroke-width:3;stroke-linecap:round;stroke-miterlimit:11.34;}&#10;	.st17{fill:none;stroke:#373531;stroke-width:2;stroke-linecap:round;stroke-miterlimit:11.34;}&#10;	.st18{fill:#373531;stroke:#373531;stroke-width:2;stroke-linecap:round;stroke-miterlimit:11.34;}&#10;</style><style
     type="text/css"
     id="style1-0">&#10;	.st0{fill:#E0A420;stroke:#61480E;stroke-width:2;stroke-miterlimit:11.34;}&#10;	.st1{fill:#4D4A44;stroke:#373531;stroke-width:4;stroke-linecap:round;stroke-miterlimit:11.34;}&#10;	.st2{fill:#4D4A44;stroke:#373531;stroke-width:2;stroke-linecap:round;stroke-miterlimit:11.34;}&#10;	.st3{fill:#DB9A11;stroke:#604407;stroke-width:2;stroke-linecap:round;stroke-miterlimit:11.34;}&#10;	.st4{fill:#DB9A11;}&#10;	.st5{fill:#292724;}&#10;	.st6{fill:#413E39;}&#10;	.st7{fill:#4D4A44;}&#10;	.st8{fill:#D69811;}&#10;	.st9{fill:#F3AC14;stroke:#634605;stroke-width:2;stroke-linecap:round;stroke-miterlimit:11.34;}&#10;	.st10{fill:none;stroke:#61480E;stroke-width:4;stroke-miterlimit:11.34;}&#10;	.st11{fill:#413E39;stroke:#413E39;stroke-width:4;stroke-linecap:round;stroke-miterlimit:11.34;}&#10;	.st12{fill:#413E39;stroke:#33312D;stroke-width:2;stroke-miterlimit:11.34;}&#10;	.st13{fill:none;stroke:#57544D;stroke-width:2;stroke-linecap:round;stroke-miterlimit:11.34;}&#10;	.st14{fill:#D01600;}&#10;	.st15{fill:#B98619;}&#10;	.st16{fill:#4D4A44;stroke:#373531;stroke-width:3;stroke-linecap:round;stroke-miterlimit:11.34;}&#10;	.st17{fill:none;stroke:#373531;stroke-width:2;stroke-linecap:round;stroke-miterlimit:11.34;}&#10;	.st18{fill:#373531;stroke:#373531;stroke-width:2;stroke-linecap:round;stroke-miterlimit:11.34;}&#10;</style><style
     type="text/css"
     id="style1-1">&#10;	.st0{fill:#E0A420;stroke:#61480E;stroke-width:2;stroke-miterlimit:11.34;}&#10;	.st1{fill:#4D4A44;stroke:#373531;stroke-width:4;stroke-linecap:round;stroke-miterlimit:11.34;}&#10;	.st2{fill:#4D4A44;stroke:#373531;stroke-width:2;stroke-linecap:round;stroke-miterlimit:11.34;}&#10;	.st3{fill:#DB9A11;stroke:#604407;stroke-width:2;stroke-linecap:round;stroke-miterlimit:11.34;}&#10;	.st4{fill:#DB9A11;}&#10;	.st5{fill:#292724;}&#10;	.st6{fill:#413E39;}&#10;	.st7{fill:#4D4A44;}&#10;	.st8{fill:#D69811;}&#10;	.st9{fill:#F3AC14;stroke:#634605;stroke-width:2;stroke-linecap:round;stroke-miterlimit:11.34;}&#10;	.st10{fill:none;stroke:#61480E;stroke-width:4;stroke-miterlimit:11.34;}&#10;	.st11{fill:#413E39;stroke:#413E39;stroke-width:4;stroke-linecap:round;stroke-miterlimit:11.34;}&#10;	.st12{fill:#413E39;stroke:#33312D;stroke-width:2;stroke-miterlimit:11.34;}&#10;	.st13{fill:none;stroke:#57544D;stroke-width:2;stroke-linecap:round;stroke-miterlimit:11.34;}&#10;	.st14{fill:#D01600;}&#10;	.st15{fill:#B98619;}&#10;	.st16{fill:#4D4A44;stroke:#373531;stroke-width:3;stroke-linecap:round;stroke-miterlimit:11.34;}&#10;	.st17{fill:none;stroke:#373531;stroke-width:2;stroke-linecap:round;stroke-miterlimit:11.34;}&#10;	.st18{fill:#373531;stroke:#373531;stroke-width:2;stroke-linecap:round;stroke-miterlimit:11.34;}&#10;</style></svg>
