<?xml version="1.0" encoding="UTF-8" standalone="no"?>
<!-- Created with Inkscape (http://www.inkscape.org/) -->

<svg
   width="110"
   height="110"
   viewBox="0 0 29.104167 29.104168"
   version="1.1"
   id="svg1"
   xml:space="preserve"
   sodipodi:docname="fort_17.svg"
   inkscape:version="1.3.2 (091e20ef0f, 2023-11-25, custom)"
   xmlns:inkscape="http://www.inkscape.org/namespaces/inkscape"
   xmlns:sodipodi="http://sodipodi.sourceforge.net/DTD/sodipodi-0.dtd"
   xmlns="http://www.w3.org/2000/svg"
   xmlns:svg="http://www.w3.org/2000/svg"><sodipodi:namedview
     id="namedview1"
     pagecolor="#ffffff"
     bordercolor="#000000"
     borderopacity="0.25"
     inkscape:showpageshadow="2"
     inkscape:pageopacity="0"
     inkscape:pagecheckerboard="false"
     inkscape:deskcolor="#d1d1d1"
     inkscape:document-units="px"
     inkscape:zoom="4"
     inkscape:cx="28.875"
     inkscape:cy="41.375"
     inkscape:window-width="1920"
     inkscape:window-height="1011"
     inkscape:window-x="0"
     inkscape:window-y="32"
     inkscape:window-maximized="1"
     inkscape:current-layer="layer1"
     showgrid="false"
     showborder="false" /><defs
     id="defs1"><clipPath
       id="clip0_619_1202"><rect
         width="110"
         height="110"
         fill="#ffffff"
         id="rect56"
         x="0"
         y="0" /></clipPath><style
       id="style1">
      .cls-1, .cls-2 {
        stroke-width: 1.5px;
      }

      .cls-1, .cls-2, .cls-3, .cls-4, .cls-5 {
        stroke: #171717;
      }

      .cls-1, .cls-3 {
        fill: #474747;
      }

      .cls-2, .cls-6, .cls-5 {
        fill: #787878;
      }

      .cls-7 {
        fill: #ff3700;
      }

      .cls-8, .cls-4 {
        fill: #252525;
      }

      .cls-3, .cls-4, .cls-5 {
        stroke-width: 3px;
      }
    </style><clipPath
       id="clip0_619_1202-1"><rect
         width="110"
         height="110"
         fill="#ffffff"
         id="rect56-0"
         x="0"
         y="0" /></clipPath><style
       id="style1-0">
      .cls-1, .cls-2 {
        stroke-width: 1.5px;
      }

      .cls-1, .cls-2, .cls-3, .cls-4, .cls-5 {
        stroke: #171717;
      }

      .cls-1, .cls-3 {
        fill: #474747;
      }

      .cls-2, .cls-6, .cls-5 {
        fill: #787878;
      }

      .cls-7 {
        fill: #ff3700;
      }

      .cls-8, .cls-4 {
        fill: #252525;
      }

      .cls-3, .cls-4, .cls-5 {
        stroke-width: 3px;
      }
    </style><clipPath
       id="clip0_619_1202-0"><rect
         width="110"
         height="110"
         fill="#ffffff"
         id="rect56-1"
         x="0"
         y="0" /></clipPath><style
       id="style1-6">
      .cls-1, .cls-2 {
        stroke-width: 1.5px;
      }

      .cls-1, .cls-2, .cls-3, .cls-4, .cls-5 {
        stroke: #171717;
      }

      .cls-1, .cls-3 {
        fill: #474747;
      }

      .cls-2, .cls-6, .cls-5 {
        fill: #787878;
      }

      .cls-7 {
        fill: #ff3700;
      }

      .cls-8, .cls-4 {
        fill: #252525;
      }

      .cls-3, .cls-4, .cls-5 {
        stroke-width: 3px;
      }
    </style><clipPath
       id="clip0_619_1202-02"><rect
         width="110"
         height="110"
         fill="white"
         id="rect56-3" /></clipPath><clipPath
       id="clip0_619_1202-8"><rect
         width="110"
         height="110"
         fill="white"
         id="rect56-6" /></clipPath><style
       id="style1-7">
      .cls-1, .cls-2 {
        stroke-width: 1.5px;
      }

      .cls-1, .cls-2, .cls-3, .cls-4, .cls-5 {
        stroke: #171717;
      }

      .cls-1, .cls-3 {
        fill: #474747;
      }

      .cls-2, .cls-6, .cls-5 {
        fill: #787878;
      }

      .cls-7 {
        fill: #ff3700;
      }

      .cls-8, .cls-4 {
        fill: #252525;
      }

      .cls-3, .cls-4, .cls-5 {
        stroke-width: 3px;
      }
    </style><clipPath
       id="clip0_619_1202-1-5"><rect
         width="110"
         height="110"
         fill="white"
         id="rect56-0-9" /></clipPath><style
       id="style1-0-2">
      .cls-1, .cls-2 {
        stroke-width: 1.5px;
      }

      .cls-1, .cls-2, .cls-3, .cls-4, .cls-5 {
        stroke: #171717;
      }

      .cls-1, .cls-3 {
        fill: #474747;
      }

      .cls-2, .cls-6, .cls-5 {
        fill: #787878;
      }

      .cls-7 {
        fill: #ff3700;
      }

      .cls-8, .cls-4 {
        fill: #252525;
      }

      .cls-3, .cls-4, .cls-5 {
        stroke-width: 3px;
      }
    </style><clipPath
       id="clip0_619_1202-0-2"><rect
         width="110"
         height="110"
         fill="white"
         id="rect56-1-8" /></clipPath><style
       id="style1-6-9">
      .cls-1, .cls-2 {
        stroke-width: 1.5px;
      }

      .cls-1, .cls-2, .cls-3, .cls-4, .cls-5 {
        stroke: #171717;
      }

      .cls-1, .cls-3 {
        fill: #474747;
      }

      .cls-2, .cls-6, .cls-5 {
        fill: #787878;
      }

      .cls-7 {
        fill: #ff3700;
      }

      .cls-8, .cls-4 {
        fill: #252525;
      }

      .cls-3, .cls-4, .cls-5 {
        stroke-width: 3px;
      }
    </style><clipPath
       id="clip0_619_1202-86"><rect
         width="110"
         height="110"
         fill="white"
         id="rect56-7" /></clipPath></defs><g
     inkscape:label="Шар 1"
     inkscape:groupmode="layer"
     id="layer1"><g
       id="g1"
       transform="matrix(0.29388046,-0.16967196,0.16967196,0.29388046,-40.690107,-11.82918)"><g
         id="layer7-7"
         inkscape:label="Шар 2" /><g
         id="layer8"
         inkscape:label="Шар 3" /><g
         inkscape:label="Шар 1"
         id="layer1-3"><g
           id="layer7-8"
           inkscape:label="Шар 2"
           transform="translate(-28.067629,-39.330595)" /><g
           id="layer8-3"
           inkscape:label="Шар 3"
           transform="translate(-28.067629,-39.330595)" /><path
           id="rect6"
           style="fill:#848484;fill-opacity:1;stroke:#4e4e4e;stroke-width:1.05833;stroke-linecap:square;stroke-linejoin:bevel;stroke-miterlimit:0;stroke-dasharray:none;stroke-opacity:1"
           d="m 74.593622,128.03938 c 0,0 0.203606,-0.71601 1.613881,-1.11714 l 2.884654,4.29062 -0.68695,5.67928 -2.714223,-4.84272 c -0.743923,-1.04478 -1.54924,-0.78782 -2.497864,-0.98804 -0.72287,-0.54681 -1.084498,-1.3836 -1.340372,-1.8248 -0.102151,-0.48051 2.740874,-1.1972 2.740874,-1.1972 z"
           sodipodi:nodetypes="cccccccc" /><ellipse
           style="fill:#afafaf;fill-opacity:1;stroke:#5b5b5b;stroke-width:0;stroke-linecap:square;stroke-linejoin:bevel;stroke-miterlimit:0"
           id="path6"
           cx="39.16975"
           cy="144.76468"
           rx="0.98458201"
           ry="1.0174783"
           transform="matrix(0.96424947,-0.26499615,0.2557603,0.96674023,0,0)" /><path
           id="rect24-7"
           style="fill:#373737;fill-opacity:1;stroke:#373737;stroke-width:1.05833;stroke-miterlimit:8;stroke-dasharray:none;stroke-opacity:1"
           d="m 106.28017,144.8979 c 0,0 0.0149,1.4829 1.54842,3.68992 1.90523,2.7421 3.86038,2.02911 3.86038,2.02911 0,0 -4.31363,-3.20424 -1.41242,-5.81279 z"
           sodipodi:nodetypes="csccc" /><path
           id="rect1-7"
           style="fill:#505452;fill-opacity:1;stroke:#373737;stroke-width:2.11667;stroke-miterlimit:8;stroke-dasharray:none;stroke-opacity:1"
           d="m 148.90724,128.22625 c 0.37841,3.02394 0.42493,6.04787 0.0242,9.0718 l -2.05812,4.65713 -16.10034,-0.31504 c 0,0 -5.54026,0.16544 -10.13411,12.73714 l -1.63008,0.4821 c 0,0 -3.60789,-1.05177 -7.37315,-0.2327 -3.18096,0.38472 -12.241423,-1.56635 -13.857533,3.64804 -2.39822,7.73796 -5.8597,15.06387 -6.52313,21.64556 l -12.74673,-0.84657 -0.937993,1.83197 -5.689999,-1.4048 c 0,0 -1.393162,-1.66413 -1.867967,-5.9393 0.03194,-7.97508 2.394905,-12.72693 3.23645,-13.96393 2.117045,-2.31577 8.986199,-14.94924 2.858043,-16.73482 -5.042503,-1.06148 -7.222193,-1.90493 -6.331502,-4.35396 0.291948,-0.80276 2.499477,1.49701 4.666468,0.8457 1.589451,-0.47773 2.389124,-1.27169 3.74907,-2.40101 0.4014,-0.33334 2.70044,-9.28341 2.70044,-9.28341 z m -40.72789,16.67139 c -11.498643,-0.66365 -9.232553,10.68708 0.30006,9.26957 0,0 4.02918,-0.72169 4.50795,-0.63553 1.51413,0.27244 2.628,1.00438 3.89207,0.76928 4.92921,-0.91679 7.56994,-6.28628 6.69085,-8.26655 -1.03561,-2.33285 -9.57343,-1.08143 -14.8747,-1.34347 z"
           sodipodi:nodetypes="cccccccsccccccssssccccssscc" /><path
           id="rect2-2"
           style="fill:#383838;fill-opacity:1;stroke:#2a0202;stroke-width:0;stroke-miterlimit:8"
           d="m 139.10094,128.05775 c 0,0 9.07697,0.50405 9.14467,-0.14192 0.18457,-1.761 -1.44459,-2.90855 -1.44459,-2.90855 0,0 -6.42587,-0.31663 -6.48177,-0.15497 z"
           sodipodi:nodetypes="csccc" /><path
           id="rect3-4"
           style="fill:#434745;fill-opacity:1;stroke:#373737;stroke-width:1.05833;stroke-miterlimit:8;stroke-dasharray:none;stroke-opacity:1"
           d="m 88.015457,149.80475 c 0.0138,-0.28294 -0.19276,-0.40067 -0.45214,-0.47876 l -5.72086,-1.62066 c -0.57567,0.026 -1.02068,0.20135 -0.92036,0.99992 1.57525,6.61288 -3.417638,10.05536 -7.034231,16.12813 l 2.225092,1.58612 c 2.857509,2.03692 2.410769,5.5753 2.543359,7.30154 l 5.26896,1.16737 0.7173,1.82586 c 0,0 4.71691,0.54698 4.72548,0.41948 0.0896,-1.33325 0.13026,-4.78973 0.90045,-7.90263 0.68661,-2.77508 2.71482,-4.87859 3.01568,-5.70332 0.2843,-0.77934 -0.14724,-2.07563 0.63349,-3.80303 0.47454,-1.04992 1.21896,-1.84314 1.82207,-2.12256 0.55359,-0.25648 0.29165,-0.81935 0.10212,-0.81935 l -6.69099,-4.22152 c -1.14228,-0.7207 -0.93619,-0.91571 -1.13542,-2.75659 z"
           sodipodi:nodetypes="cccccscccssssscsc" /><path
           id="rect4-3"
           style="fill:#636966;fill-opacity:1;stroke:#373737;stroke-width:1.05833;stroke-miterlimit:8;stroke-dasharray:none;stroke-opacity:1"
           d="m 88.322087,128.54423 -2.10046,7.58355 33.742033,0.34751 c -0.0835,-2.45423 1.67685,-5.05076 2.98894,-7.5181 0,0 -23.114513,-0.39838 -34.630513,-0.41296 z"
           sodipodi:nodetypes="ccccc" /><path
           id="rect5-8"
           style="fill:#373737;fill-opacity:1;stroke:#373737;stroke-width:0;stroke-miterlimit:8;stroke-dasharray:none;stroke-opacity:1"
           d="m 79.397607,135.14304 c -0.11456,0.58136 -0.0686,1.41881 -1.07782,1.99473 l 70.037693,1.29784 0.63218,-2.15067 z"
           sodipodi:nodetypes="ccccc" /><path
           id="rect25-5"
           style="fill:#434745;fill-opacity:1;stroke:#4f4f4f;stroke-width:0;stroke-miterlimit:8"
           d="m 89.844267,146.28529 c -1.23096,6.70485 7.20999,5.61658 7.20999,5.61658 0,0 0.0143,0.19874 0.85074,-0.52612 1.00198,-0.86833 0.8005,-2.71501 0.922,-3.89331 0.21814,-2.11561 3.107303,-3.67084 3.107303,-3.67084 -1.79762,0.0464 -11.388893,-1.34532 -12.090033,2.47369 z"
           sodipodi:nodetypes="scsscs" /><path
           id="path26-2"
           style="fill:#373737;fill-opacity:1;stroke:#373737;stroke-width:0;stroke-miterlimit:8;stroke-opacity:1"
           d="m 84.812137,123.01642 -2.45954,4.30196 5.07127,0.0114 -0.61557,-4.36253 z"
           sodipodi:nodetypes="ccccc" /><path
           id="rect5-9-6-2"
           style="fill:#373737;fill-opacity:1;stroke:#2a0202;stroke-width:0;stroke-miterlimit:8;stroke-dasharray:none"
           d="m 91.215317,144.88487 c -2.23607,1.10705 -1.63879,7.11305 9.897783,7.23774 2.95484,0.38611 2.5869,2.73938 -1.454833,3.79012 -11.56922,-2.14419 -12.74903,-13.70789 -8.44295,-11.02786 z"
           sodipodi:nodetypes="cccc" /><path
           id="rect5-9-1"
           style="fill:#373737;fill-opacity:1;stroke:#2a0202;stroke-width:0;stroke-miterlimit:8;stroke-dasharray:none"
           d="m 90.487877,143.86033 c -1.74743,0.48098 -1.09664,2.28998 0.61022,1.44722 13.047843,-1.35617 33.616243,-0.56926 33.616243,0.30834 l 2.34405,-2.81833 c -0.1061,0.30782 -24.77286,0.0718 -36.570513,1.06277 z"
           sodipodi:nodetypes="ccccc" /><path
           id="rect26-7"
           style="fill:#373737;stroke:#373737;stroke-width:0;stroke-miterlimit:8"
           d="m 119.33419,137.783 -1.49389,-0.22448 c -0.17663,2.24908 -1.9181,4.32717 -2.5936,6.22364 l 1.18462,0.0977 c 1.04666,-1.92613 2.66885,-4.05583 2.90287,-6.09683 z"
           sodipodi:nodetypes="ccccc" /><ellipse
           style="fill:#646a67;fill-opacity:1;stroke:#373737;stroke-width:1.05845;stroke-miterlimit:8;stroke-dasharray:none;stroke-opacity:1"
           id="path29-9-2"
           cx="-113.13681"
           cy="136.65372"
           rx="1.5130715"
           ry="1.5174811"
           transform="matrix(-0.99978147,-0.0209048,0,1,0,0)" /><rect
           style="fill:#5a5a5a;fill-opacity:1;stroke:#373737;stroke-width:1.06308;stroke-miterlimit:8;stroke-dasharray:none;stroke-opacity:1"
           id="rect29-85-8"
           width="0.27378011"
           height="7.5892744"
           x="-129.51393"
           y="81.369041"
           rx="0.19986854"
           ry="0.31735322"
           transform="matrix(-0.92167292,-0.38796781,-0.26179355,0.9651239,0,0)" /><rect
           style="fill:#5a5a5a;fill-opacity:1;stroke:#373737;stroke-width:1.06308;stroke-miterlimit:8;stroke-dasharray:none;stroke-opacity:1"
           id="rect29-85-7-4"
           width="0.27378011"
           height="7.5892744"
           x="-132.63504"
           y="80.431366"
           rx="0.19986854"
           ry="0.31735322"
           transform="matrix(-0.92167292,-0.38796781,-0.26179355,0.9651239,0,0)" /><ellipse
           style="fill:#373737;fill-opacity:1;stroke:#373737;stroke-width:0.945386;stroke-miterlimit:8;stroke-dasharray:none;stroke-opacity:1"
           id="path30-3"
           cx="-82.639091"
           cy="138.36401"
           rx="0.89033484"
           ry="0.94476801"
           transform="matrix(-0.99975536,-0.02211843,0,1,0,0)" /><rect
           style="fill:#5a5a5a;fill-opacity:1;stroke:#373737;stroke-width:1.06308;stroke-miterlimit:8;stroke-dasharray:none;stroke-opacity:1"
           id="rect29-85-1-5"
           width="0.27378011"
           height="7.5892744"
           x="-126.24497"
           y="82.671295"
           rx="0.19986854"
           ry="0.31735322"
           transform="matrix(-0.92167292,-0.38796781,-0.26179355,0.9651239,0,0)" /><rect
           style="fill:#5a5a5a;fill-opacity:1;stroke:#373737;stroke-width:1.06308;stroke-miterlimit:8;stroke-dasharray:none;stroke-opacity:1"
           id="rect29-85-5-2"
           width="0.27378011"
           height="7.5892744"
           x="-123.10616"
           y="83.516884"
           rx="0.19986854"
           ry="0.31735322"
           transform="matrix(-0.92167292,-0.38796781,-0.26179355,0.9651239,0,0)" /><rect
           style="fill:#7e7e30;fill-opacity:1;stroke:#373737;stroke-width:0;stroke-miterlimit:8;stroke-dasharray:none;stroke-opacity:1"
           id="rect30-8"
           width="3.6846285"
           height="1.2159095"
           x="-91.842087"
           y="139.20058"
           rx="0.19756383"
           ry="0.32129508"
           transform="matrix(-0.99979925,-0.02003633,0,1,0,0)" /><rect
           style="fill:#30497e;fill-opacity:1;stroke:#373737;stroke-width:0;stroke-miterlimit:8;stroke-dasharray:none;stroke-opacity:1"
           id="rect30-1-4"
           width="3.6738138"
           height="1.1022362"
           x="-91.829216"
           y="138.4368"
           rx="0.19756"
           ry="0.32129508"
           transform="matrix(-0.99983406,-0.01821663,0,1,0,0)" /><rect
           style="fill:#3f4341;fill-opacity:1;stroke:#373737;stroke-width:1.05834;stroke-miterlimit:8;stroke-dasharray:none;stroke-opacity:1"
           id="rect31-9"
           width="9.7529869"
           height="3.7114625"
           x="109.52447"
           y="126.90199"
           rx="0.19747031"
           ry="0.32121855"
           transform="matrix(0.99987553,0.01577738,-0.02191551,0.99975983,0,0)" /><path
           id="path1"
           style="fill:#434745;stroke:#5b5b5b;stroke-width:0;stroke-linecap:square;stroke-linejoin:bevel;stroke-miterlimit:0"
           d="m 77.047708,172.89632 c -0.160953,2.32503 -0.562265,4.89287 -2.572655,4.81369 -1.944041,-0.0766 -3.102836,-2.17132 -2.905444,-4.77508 0.19739,-2.60377 0.68262,-5.03279 2.542775,-5.58444 1.56723,-0.46477 3.121607,2.85485 2.935324,5.54583 z"
           sodipodi:nodetypes="sssss" /><path
           id="rect7"
           style="fill:#646967;fill-opacity:1;stroke:#373737;stroke-width:1.13958;stroke-linecap:square;stroke-linejoin:bevel;stroke-miterlimit:0;stroke-dasharray:none;stroke-opacity:1"
           d="m 79.052157,179.30389 c 2.258,-0.0654 7.2265,0.34499 12.53801,0.81547 l 0.90913,2.50294 c -5.24057,0.2734 -11.98463,-0.30879 -14.688201,-0.72463 0.183347,-0.95315 0.499381,-1.74284 1.241061,-2.59378 z"
           sodipodi:nodetypes="ccccc" /><g
           id="layer10-9"
           inkscape:label="Шар 4"
           transform="translate(-28.067629,-39.330595)" /></g><g
         id="layer10-6"
         inkscape:label="Шар 4" /></g></g></svg>
