<?xml version="1.0" encoding="UTF-8" standalone="no"?>
<svg
   width="110"
   height="110"
   viewBox="0 0 110 110"
   fill="none"
   version="1.1"
   id="svg35"
   sodipodi:docname="kukri.svg"
   inkscape:version="1.3.2 (091e20ef0f, 2023-11-25, custom)"
   xml:space="preserve"
   xmlns:inkscape="http://www.inkscape.org/namespaces/inkscape"
   xmlns:sodipodi="http://sodipodi.sourceforge.net/DTD/sodipodi-0.dtd"
   xmlns:xlink="http://www.w3.org/1999/xlink"
   xmlns="http://www.w3.org/2000/svg"
   xmlns:svg="http://www.w3.org/2000/svg"><sodipodi:namedview
     id="namedview35"
     pagecolor="#505050"
     bordercolor="#000000"
     borderopacity="0.25"
     inkscape:showpageshadow="2"
     inkscape:pageopacity="0"
     inkscape:pagecheckerboard="true"
     inkscape:deskcolor="#d1d1d1"
     inkscape:zoom="3.7136364"
     inkscape:cx="10.905753"
     inkscape:cy="66.646266"
     inkscape:window-width="1920"
     inkscape:window-height="1011"
     inkscape:window-x="0"
     inkscape:window-y="32"
     inkscape:window-maximized="1"
     inkscape:current-layer="svg35"
     inkscape:pageshadow="0"
     showgrid="false" /><defs
     id="defs35"><radialGradient
       id="paint0_radial_544_64"
       cx="0"
       cy="0"
       r="1"
       gradientUnits="userSpaceOnUse"
       gradientTransform="matrix(6.0719259,6.0719259,-6.0470216,6.0470216,97.7668,11.9392)"><stop
         stop-color="#CCCCCC"
         id="stop18" /><stop
         offset="0.19"
         stop-color="#A8CEF0"
         id="stop19" /><stop
         offset="0.56"
         stop-color="#2685D9"
         id="stop20" /><stop
         offset="0.93"
         stop-color="#2685D9"
         stop-opacity="0"
         id="stop21" /></radialGradient><radialGradient
       id="paint1_angular_544_64"
       cx="0"
       cy="0"
       r="1"
       gradientUnits="userSpaceOnUse"
       gradientTransform="matrix(-5.6165704,-5.6165704,5.6165704,-5.6165704,97.7668,11.9392)"><stop
         stop-color="#2685D9"
         stop-opacity="0"
         id="stop22" /><stop
         offset="0.249909"
         stop-color="#ABB3BA"
         id="stop23" /></radialGradient><radialGradient
       id="paint2_radial_544_64"
       cx="0"
       cy="0"
       r="1"
       gradientUnits="userSpaceOnUse"
       gradientTransform="matrix(6.0719259,6.0719259,-6.0470216,6.0470216,97.7667,11.9389)"><stop
         stop-color="#CCCCCC"
         id="stop24" /><stop
         offset="0.19"
         stop-color="#F0CAA8"
         id="stop25" /><stop
         offset="0.56"
         stop-color="#D97A26"
         id="stop26" /><stop
         offset="0.93"
         stop-color="#D97A26"
         stop-opacity="0"
         id="stop27" /></radialGradient><radialGradient
       id="paint3_angular_544_64"
       cx="0"
       cy="0"
       r="1"
       gradientUnits="userSpaceOnUse"
       gradientTransform="matrix(5.6165704,5.6165704,-5.6165704,5.6165704,97.7667,11.9388)"><stop
         stop-color="#D97A26"
         stop-opacity="0"
         id="stop28" /><stop
         offset="0.749995"
         stop-color="#BAB2AB"
         id="stop29" /></radialGradient><linearGradient
       id="paint4_linear_544_64"
       x1="57.834801"
       y1="40.6381"
       x2="69.068001"
       y2="51.8713"
       gradientUnits="userSpaceOnUse"
       gradientTransform="translate(-0.70670098,-3.9962843)"><stop
         stop-color="#2685D9"
         stop-opacity="0"
         id="stop30" /><stop
         offset="0.2"
         stop-color="#2685D9"
         id="stop31" /><stop
         offset="0.4"
         stop-color="#A8CEF0"
         id="stop32" /><stop
         offset="0.6"
         stop-color="#F0CAA8"
         id="stop33" /><stop
         offset="0.8"
         stop-color="#D97A26"
         id="stop34" /><stop
         offset="1"
         stop-color="#D97A26"
         stop-opacity="0"
         id="stop35" /></linearGradient><linearGradient
       id="linearGradient26"
       x1="249.536"
       y1="17.1152"
       x2="249.536"
       y2="10.0732"
       gradientUnits="userSpaceOnUse"
       gradientTransform="rotate(-90,210.03612,27.697769)"><stop
         stop-color="#2685D9"
         id="stop25-6"
         offset="0"
         style="stop-color:#cccccc;stop-opacity:1;" /><stop
         stop-color="#2685D9"
         id="stop27-5"
         offset="0.19"
         style="stop-color:#a8cef0;stop-opacity:1;" /><stop
         stop-color="#2685D9"
         id="stop28-4"
         offset="0.56"
         style="stop-color:#2685d9;stop-opacity:1;" /><stop
         offset="0.93000001"
         stop-color="#2685D9"
         stop-opacity="0"
         id="stop26-8"
         style="stop-color:#2685d9;stop-opacity:0;" /></linearGradient><linearGradient
       id="linearGradient143"
       x1="249.536"
       y1="17.1152"
       x2="249.536"
       y2="10.0732"
       gradientUnits="userSpaceOnUse"
       gradientTransform="rotate(-90,210.03612,27.697769)"><stop
         stop-color="#2685D9"
         id="stop140"
         offset="0"
         style="stop-color:#cccccc;stop-opacity:1;" /><stop
         stop-color="#2685D9"
         id="stop141"
         offset="0.19"
         style="stop-color:#f0caa8;stop-opacity:1;" /><stop
         stop-color="#2685D9"
         id="stop142"
         offset="0.56"
         style="stop-color:#d97a26;stop-opacity:1;" /><stop
         offset="0.93000001"
         stop-color="#2685D9"
         stop-opacity="0"
         id="stop143"
         style="stop-color:#d97a26;stop-opacity:0;" /></linearGradient><linearGradient
       id="b"><stop
         stop-color="#430000"
         offset="0"
         id="stop2" /><stop
         stop-color="#c00"
         offset="1"
         id="stop4" /></linearGradient><linearGradient
       id="a"><stop
         offset="0"
         stop-color="#35311b"
         id="stop7" /><stop
         offset=".281"
         stop-color="#c6c3af"
         id="stop9" /><stop
         offset=".579"
         stop-color="#7b715d"
         id="stop11" /><stop
         offset="1"
         stop-color="#5b542e"
         id="stop13" /></linearGradient><linearGradient
       id="c"><stop
         offset="0"
         stop-color="#3b1208"
         id="stop16" /><stop
         offset="1"
         stop-color="#1b0a01"
         id="stop18-3" /></linearGradient><clipPath
       id="f"><path
         d="m 976,-1056 v 156 h 124 v -156 z"
         id="path21"
         inkscape:connector-curvature="0"
         style="fill:#b2b2b2;stroke-width:95.45800018" /></clipPath><clipPath
       id="h"><path
         d="m 848,-864 c -32,0 -56,-56 -128,-56 H 376 v -152 h 560 v 208 z"
         id="path24"
         inkscape:connector-curvature="0"
         style="fill:#894a00;fill-opacity:0.57099998;stroke-width:10.90999985" /></clipPath><clipPath
       id="d"><path
         d="m -624,-1096 -136,16 c -32,200 72,352 88,360 176.814,48.814 296,16 336,-16 102.372,-81.897 176,-120 328,-120 h 320 v -48 c 0,0 6.78,-46.373 48,-16 h 64 v -152 H 304 l -16,-24 h -864 l -8,8 c -9.512,8 -28,24 -40,-8 z m 184,120 c 16.325,0 29.558,13.234 29.559,29.559 0,16.325 -13.234,29.56 -29.559,29.56 -16.325,0 -29.56,-13.235 -29.559,-29.56 0,-16.325 13.234,-29.559 29.559,-29.559 z"
         id="path27"
         inkscape:connector-curvature="0"
         style="fill:#1a27de;fill-opacity:0.48500001;stroke-width:5.9460001" /></clipPath><linearGradient
       xlink:href="#a"
       id="e"
       gradientUnits="userSpaceOnUse"
       x1="-766.078"
       y1="-895.58197"
       x2="424"
       y2="-895.58197" /><linearGradient
       xlink:href="#b"
       id="g"
       gradientUnits="userSpaceOnUse"
       x1="987.93201"
       y1="-938.94897"
       x2="1084.814"
       y2="-1019.22" /><linearGradient
       xlink:href="#c"
       id="i"
       gradientUnits="userSpaceOnUse"
       x1="376"
       y1="-968"
       x2="936"
       y2="-968" /><linearGradient
       id="c-3"><stop
         stop-color="#35311b"
         offset="0"
         id="stop2-6" /><stop
         stop-color="#c6c3af"
         offset=".414"
         id="stop4-7" /><stop
         stop-color="#7b715d"
         offset=".579"
         id="stop6" /><stop
         stop-color="#5b542e"
         offset="1"
         id="stop8" /></linearGradient><linearGradient
       id="b-6"><stop
         offset="0"
         stop-color="#1f70ff"
         id="stop16-2" /><stop
         offset="1"
         stop-color="#001e4d"
         id="stop18-9" /></linearGradient><clipPath
       id="h-1"><path
         d="m -192.761,431.42 -29.96,-3.625 -1.949,39.397 c 16.108,1.917 97.844,5.786 125.457,6.553 23.586,-6.136 113.06,-40.822 157.74,-59.806 -21.285,-11.505 -35.361,-25.759 -84.122,-20.294 -58.414,6.546 -110.991,50.394 -166.584,31.954 z"
         id="path21-2"
         inkscape:connector-curvature="0"
         style="fill:#1a27de;fill-opacity:0.48500001;stroke-width:1.35500002" /></clipPath><clipPath
       id="f-7"><path
         d="m -326.511,412.55 c -6.616,-1.247 -23.639,-11.87 -23.639,-11.87 -5.752,12.368 -17.503,46.948 -17.503,46.948 l 31.608,5.4 z"
         id="path24-0"
         inkscape:connector-curvature="0"
         style="fill:#454545;fill-opacity:0.57099998" /></clipPath><clipPath
       id="d-9"><path
         d="m -251.818,419.903 c 5.122,1.263 20.717,14.86 30.343,4.143 l 7.636,0.645 -2.075,44.316 c -40.407,-4.746 -83.565,-9.772 -129.531,-17.637 l 9.695,-42.121 c 54.645,18.576 70.238,9.823 83.932,10.654 z"
         id="path27-3"
         inkscape:connector-curvature="0"
         style="fill:#894a00;fill-opacity:0.57099998;stroke-width:2.48600006" /></clipPath><linearGradient
       xlink:href="#c"
       id="e-6"
       gradientUnits="userSpaceOnUse"
       x1="-326.54401"
       y1="453.522"
       x2="-253.314"
       y2="426.06201" /><linearGradient
       xlink:href="#b-6"
       id="g-0"
       gradientUnits="userSpaceOnUse"
       x1="-355.40302"
       y1="433.48001"
       x2="-335.50101"
       y2="422.49899" /><linearGradient
       xlink:href="#c-3"
       id="i-6"
       gradientUnits="userSpaceOnUse"
       x1="-224.67"
       y1="433.09299"
       x2="58.527"
       y2="433.09299" /></defs><g
     id="g2"
     transform="matrix(0.79474674,0,0,0.79474674,-1.4845454,-9.8358766)"><path
       clip-path="url(#d-9)"
       d="m -251.818,419.903 c 5.122,1.263 20.717,14.86 30.343,4.143 l 7.636,0.645 -2.075,44.316 c -40.407,-4.746 -83.565,-9.772 -129.531,-17.637 l 9.695,-42.121 c 54.645,18.576 70.238,9.823 83.932,10.654 z"
       transform="matrix(0.22392764,-0.29384065,0.29384065,0.22392764,-15.960479,-60.300674)"
       id="path35-2"
       inkscape:connector-curvature="0"
       style="fill:url(#e-6);stroke:#000000;stroke-width:21.654" /><path
       clip-path="url(#f-7)"
       d="m -326.511,412.55 c -6.616,-1.247 -23.639,-11.87 -23.639,-11.87 -5.752,12.368 -17.503,46.948 -17.503,46.948 l 31.608,5.4 z"
       transform="matrix(0.22392764,-0.29384065,0.29384065,0.22392764,-15.960479,-60.300674)"
       id="path37-6"
       inkscape:connector-curvature="0"
       style="fill:url(#g-0);stroke:#000000;stroke-width:21.654" /><path
       clip-path="url(#h-1)"
       d="m -192.761,431.42 -29.96,-3.625 -1.949,39.397 c 16.108,1.917 97.844,5.786 125.457,6.553 23.586,-6.136 113.06,-40.822 157.74,-59.806 -21.285,-11.505 -35.361,-25.759 -84.122,-20.294 -58.414,6.546 -110.991,50.394 -166.584,31.954 z"
       transform="matrix(0.22392764,-0.29384065,0.29384065,0.22392764,-15.960479,-60.300674)"
       id="path39-1"
       inkscape:connector-curvature="0"
       style="fill:url(#i-6);stroke:#000000;stroke-width:21.654" /><path
       d="m 69.311581,93.81876 c 0,0 2.003234,0.232638 3.425225,-1.408557 3.333302,-3.849489 10.102435,-11.549175 14.748834,-25.540697 3.474015,-10.46023 8.514979,-36.179825 26.27397,-44.418326"
       id="path41-8"
       inkscape:connector-curvature="0"
       style="fill:none;stroke:#000000;stroke-width:3.694;stroke-opacity:0.561" /><path
       d="m 69.006111,104.40556 c 3.456338,-3.60059 26.07032,-30.717423 27.485948,-32.400337"
       id="path43-7"
       inkscape:connector-curvature="0"
       style="fill:none;stroke:#000000;stroke-width:1.478" /></g></svg>
