<?xml version="1.0" encoding="UTF-8" standalone="no"?>
<svg
   width="110"
   height="110"
   viewBox="0 0 110 110"
   fill="none"
   version="1.1"
   id="svg35"
   sodipodi:docname="machete.svg"
   inkscape:version="1.3.2 (091e20ef0f, 2023-11-25, custom)"
   xml:space="preserve"
   xmlns:inkscape="http://www.inkscape.org/namespaces/inkscape"
   xmlns:sodipodi="http://sodipodi.sourceforge.net/DTD/sodipodi-0.dtd"
   xmlns:xlink="http://www.w3.org/1999/xlink"
   xmlns="http://www.w3.org/2000/svg"
   xmlns:svg="http://www.w3.org/2000/svg"><sodipodi:namedview
     id="namedview35"
     pagecolor="#505050"
     bordercolor="#000000"
     borderopacity="0.25"
     inkscape:showpageshadow="2"
     inkscape:pageopacity="0"
     inkscape:pagecheckerboard="true"
     inkscape:deskcolor="#d1d1d1"
     inkscape:zoom="3.7136364"
     inkscape:cx="11.040392"
     inkscape:cy="66.915544"
     inkscape:window-width="1920"
     inkscape:window-height="1011"
     inkscape:window-x="0"
     inkscape:window-y="32"
     inkscape:window-maximized="1"
     inkscape:current-layer="svg35"
     inkscape:pageshadow="0"
     showgrid="false" /><defs
     id="defs35"><radialGradient
       id="paint0_radial_544_64"
       cx="0"
       cy="0"
       r="1"
       gradientUnits="userSpaceOnUse"
       gradientTransform="matrix(6.0719259,6.0719259,-6.0470216,6.0470216,97.7668,11.9392)"><stop
         stop-color="#CCCCCC"
         id="stop18" /><stop
         offset="0.19"
         stop-color="#A8CEF0"
         id="stop19" /><stop
         offset="0.56"
         stop-color="#2685D9"
         id="stop20" /><stop
         offset="0.93"
         stop-color="#2685D9"
         stop-opacity="0"
         id="stop21" /></radialGradient><radialGradient
       id="paint1_angular_544_64"
       cx="0"
       cy="0"
       r="1"
       gradientUnits="userSpaceOnUse"
       gradientTransform="matrix(-5.6165704,-5.6165704,5.6165704,-5.6165704,97.7668,11.9392)"><stop
         stop-color="#2685D9"
         stop-opacity="0"
         id="stop22" /><stop
         offset="0.249909"
         stop-color="#ABB3BA"
         id="stop23" /></radialGradient><radialGradient
       id="paint2_radial_544_64"
       cx="0"
       cy="0"
       r="1"
       gradientUnits="userSpaceOnUse"
       gradientTransform="matrix(6.0719259,6.0719259,-6.0470216,6.0470216,97.7667,11.9389)"><stop
         stop-color="#CCCCCC"
         id="stop24" /><stop
         offset="0.19"
         stop-color="#F0CAA8"
         id="stop25" /><stop
         offset="0.56"
         stop-color="#D97A26"
         id="stop26" /><stop
         offset="0.93"
         stop-color="#D97A26"
         stop-opacity="0"
         id="stop27" /></radialGradient><radialGradient
       id="paint3_angular_544_64"
       cx="0"
       cy="0"
       r="1"
       gradientUnits="userSpaceOnUse"
       gradientTransform="matrix(5.6165704,5.6165704,-5.6165704,5.6165704,97.7667,11.9388)"><stop
         stop-color="#D97A26"
         stop-opacity="0"
         id="stop28" /><stop
         offset="0.749995"
         stop-color="#BAB2AB"
         id="stop29" /></radialGradient><linearGradient
       id="paint4_linear_544_64"
       x1="57.834801"
       y1="40.6381"
       x2="69.068001"
       y2="51.8713"
       gradientUnits="userSpaceOnUse"
       gradientTransform="translate(-0.70670098,-3.9962843)"><stop
         stop-color="#2685D9"
         stop-opacity="0"
         id="stop30" /><stop
         offset="0.2"
         stop-color="#2685D9"
         id="stop31" /><stop
         offset="0.4"
         stop-color="#A8CEF0"
         id="stop32" /><stop
         offset="0.6"
         stop-color="#F0CAA8"
         id="stop33" /><stop
         offset="0.8"
         stop-color="#D97A26"
         id="stop34" /><stop
         offset="1"
         stop-color="#D97A26"
         stop-opacity="0"
         id="stop35" /></linearGradient><linearGradient
       id="linearGradient26"
       x1="249.536"
       y1="17.1152"
       x2="249.536"
       y2="10.0732"
       gradientUnits="userSpaceOnUse"
       gradientTransform="rotate(-90,210.03612,27.697769)"><stop
         stop-color="#2685D9"
         id="stop25-6"
         offset="0"
         style="stop-color:#cccccc;stop-opacity:1;" /><stop
         stop-color="#2685D9"
         id="stop27-5"
         offset="0.19"
         style="stop-color:#a8cef0;stop-opacity:1;" /><stop
         stop-color="#2685D9"
         id="stop28-4"
         offset="0.56"
         style="stop-color:#2685d9;stop-opacity:1;" /><stop
         offset="0.93000001"
         stop-color="#2685D9"
         stop-opacity="0"
         id="stop26-8"
         style="stop-color:#2685d9;stop-opacity:0;" /></linearGradient><linearGradient
       id="linearGradient143"
       x1="249.536"
       y1="17.1152"
       x2="249.536"
       y2="10.0732"
       gradientUnits="userSpaceOnUse"
       gradientTransform="rotate(-90,210.03612,27.697769)"><stop
         stop-color="#2685D9"
         id="stop140"
         offset="0"
         style="stop-color:#cccccc;stop-opacity:1;" /><stop
         stop-color="#2685D9"
         id="stop141"
         offset="0.19"
         style="stop-color:#f0caa8;stop-opacity:1;" /><stop
         stop-color="#2685D9"
         id="stop142"
         offset="0.56"
         style="stop-color:#d97a26;stop-opacity:1;" /><stop
         offset="0.93000001"
         stop-color="#2685D9"
         stop-opacity="0"
         id="stop143"
         style="stop-color:#d97a26;stop-opacity:0;" /></linearGradient><linearGradient
       id="b"><stop
         stop-color="#430000"
         offset="0"
         id="stop2" /><stop
         stop-color="#c00"
         offset="1"
         id="stop4" /></linearGradient><linearGradient
       id="a"><stop
         offset="0"
         stop-color="#35311b"
         id="stop7" /><stop
         offset=".281"
         stop-color="#c6c3af"
         id="stop9" /><stop
         offset=".579"
         stop-color="#7b715d"
         id="stop11" /><stop
         offset="1"
         stop-color="#5b542e"
         id="stop13" /></linearGradient><linearGradient
       id="c"><stop
         offset="0"
         stop-color="#3b1208"
         id="stop16" /><stop
         offset="1"
         stop-color="#1b0a01"
         id="stop18-3" /></linearGradient><clipPath
       id="f"><path
         d="m 976,-1056 v 156 h 124 v -156 z"
         id="path21"
         inkscape:connector-curvature="0"
         style="fill:#b2b2b2;stroke-width:95.45800018" /></clipPath><clipPath
       id="h"><path
         d="m 848,-864 c -32,0 -56,-56 -128,-56 H 376 v -152 h 560 v 208 z"
         id="path24"
         inkscape:connector-curvature="0"
         style="fill:#894a00;fill-opacity:0.57099998;stroke-width:10.90999985" /></clipPath><clipPath
       id="d"><path
         d="m -624,-1096 -136,16 c -32,200 72,352 88,360 176.814,48.814 296,16 336,-16 102.372,-81.897 176,-120 328,-120 h 320 v -48 c 0,0 6.78,-46.373 48,-16 h 64 v -152 H 304 l -16,-24 h -864 l -8,8 c -9.512,8 -28,24 -40,-8 z m 184,120 c 16.325,0 29.558,13.234 29.559,29.559 0,16.325 -13.234,29.56 -29.559,29.56 -16.325,0 -29.56,-13.235 -29.559,-29.56 0,-16.325 13.234,-29.559 29.559,-29.559 z"
         id="path27"
         inkscape:connector-curvature="0"
         style="fill:#1a27de;fill-opacity:0.48500001;stroke-width:5.9460001" /></clipPath><linearGradient
       xlink:href="#a"
       id="e"
       gradientUnits="userSpaceOnUse"
       x1="-766.078"
       y1="-895.58197"
       x2="424"
       y2="-895.58197" /><linearGradient
       xlink:href="#b"
       id="g"
       gradientUnits="userSpaceOnUse"
       x1="987.93201"
       y1="-938.94897"
       x2="1084.814"
       y2="-1019.22" /><linearGradient
       xlink:href="#c"
       id="i"
       gradientUnits="userSpaceOnUse"
       x1="376"
       y1="-968"
       x2="936"
       y2="-968" /></defs><g
     id="g1"
     transform="matrix(0.5541294,0.55412939,-0.55412939,0.5541294,53.757197,-37.803717)"><path
       clip-path="url(#d)"
       d="m -624,-1096 -136,16 c -32,200 72,352 88,360 176.814,48.814 296,16 336,-16 102.372,-81.897 176,-120 328,-120 h 320 v -48 c 0,0 6.78,-46.373 48,-16 h 64 v -152 H 304 l -16,-24 h -864 l -8,8 c -9.512,8 -28,24 -40,-8 z m 184,120 c 16.325,0 29.558,13.234 29.559,29.559 0,16.325 -13.234,29.56 -29.559,29.56 -16.325,0 -29.56,-13.235 -29.559,-29.56 0,-16.325 13.234,-29.559 29.559,-29.559 z"
       transform="matrix(0,0.09159,-0.09159,0,-3.145,73.745)"
       id="path35"
       inkscape:connector-curvature="0"
       style="fill:url(#e);stroke:#000000;stroke-width:89.995" /><path
       d="M 79.656,99.392 V 68.617 c 0,-18.318 -15.754,-31.874 -15.754,-31.874"
       id="path37"
       inkscape:connector-curvature="0"
       style="fill:none;stroke:#000000;stroke-width:4.019;stroke-opacity:0.561" /><path
       transform="matrix(0,0.0916,-0.0916,0,-3.144,65.686)"
       clip-path="url(#f)"
       d="m 976,-1056 v 156 h 124 v -156 z"
       id="path39"
       inkscape:connector-curvature="0"
       style="fill:url(#g);stroke:#000000;stroke-width:90" /><path
       d="M 103.104,107.452 H 99.44 c -1.466,0 -2.198,2.931 -3.664,2.931 H 73.061"
       id="path41"
       inkscape:connector-curvature="0"
       style="fill:none;stroke:#000000;stroke-width:3.664" /><path
       d="m 97.101,21.722 c 0,0 1.353,1.465 2.705,1.832 -1.352,0.366 -2.705,1.832 -2.705,1.832 0,0 1.353,1.465 2.705,1.831 -1.352,0.367 -2.705,1.832 -2.705,1.832 z m 0,7.328 c 0,0 1.353,1.465 2.705,1.831 -1.352,0.366 -2.705,1.832 -2.705,1.832 0,0 1.353,1.465 2.705,1.832 -1.352,0.366 -2.705,1.832 -2.705,1.832 z m 0,7.327 c 0,0 1.353,1.465 2.705,1.831 -1.352,0.367 -2.705,1.832 -2.705,1.832 0,0 1.353,1.466 2.705,1.832 -1.352,0.367 -2.705,1.832 -2.705,1.832 z"
       id="path43"
       inkscape:connector-curvature="0" /><path
       d="m 97.101,43.704 c 0,0 1.353,1.465 2.705,1.832 -1.352,0.366 -2.705,1.832 -2.705,1.832 0,0 1.353,1.465 2.705,1.832 -1.352,0.366 -2.705,1.831 -2.705,1.831 z"
       id="path45"
       inkscape:connector-curvature="0" /><path
       d="m 97.101,51.031 c 0,0 1.353,1.466 2.705,1.832 -1.352,0.367 -2.705,1.832 -2.705,1.832 0,0 1.353,1.466 2.705,1.832 -1.352,0.366 -2.705,1.832 -2.705,1.832 z m 0,7.328 c 0,0 1.353,1.465 2.705,1.832 -1.352,0.366 -2.705,1.831 -2.705,1.831 0,0 1.353,1.466 2.705,1.832 -1.352,0.367 -2.705,1.832 -2.705,1.832 z m 0,7.327 c 0,0 1.353,1.466 2.705,1.832 -1.352,0.366 -2.705,1.832 -2.705,1.832 0,0 1.353,1.465 2.705,1.832 -1.352,0.366 -2.705,1.832 -2.705,1.832 z m 0,7.328 c 0,0 1.353,1.465 2.705,1.831 -1.352,0.367 -2.705,1.832 -2.705,1.832 0,0 1.353,1.466 2.705,1.832 -1.352,0.366 -2.705,1.832 -2.705,1.832 z"
       id="path47"
       inkscape:connector-curvature="0" /><path
       d="m 97.101,80.34 c 0,0 1.353,1.466 2.705,1.833 -1.352,0.366 -2.705,1.832 -2.705,1.832 0,0 1.353,1.465 2.705,1.831 -1.352,0.367 -2.705,1.832 -2.705,1.832 z m 0,7.328 c 0,0 1.353,1.466 2.705,1.832 -1.352,0.367 -2.705,1.832 -2.705,1.832 0,0 1.353,1.466 2.705,1.832 -1.352,0.366 -2.705,1.832 -2.705,1.832 z m 0,7.328 c 0,0 1.353,1.465 2.705,1.832 -1.352,0.366 -2.705,1.831 -2.705,1.831 z"
       id="path49"
       inkscape:connector-curvature="0" /><circle
       r="1.008"
       cy="-89.181999"
       cx="86.935997"
       transform="rotate(90)"
       id="circle51" /><circle
       cx="82.539001"
       cy="-89.181999"
       r="1.008"
       transform="rotate(90)"
       id="circle53" /><circle
       cx="78.142998"
       cy="-89.181999"
       r="1.008"
       transform="rotate(90)"
       id="circle55" /><circle
       r="1.008"
       cy="-89.181999"
       cx="73.746002"
       transform="rotate(90)"
       id="circle57" /><circle
       cx="69.349998"
       cy="-89.181999"
       r="1.008"
       transform="rotate(90)"
       id="circle59" /><circle
       r="1.008"
       cy="-89.181999"
       cx="64.953003"
       transform="rotate(90)"
       id="circle61" /><circle
       r="1.008"
       cy="-89.181999"
       cx="60.556999"
       transform="rotate(90)"
       id="circle63" /><circle
       cx="56.161003"
       cy="-89.181999"
       r="1.008"
       transform="rotate(90)"
       id="circle65" /><circle
       cx="51.764"
       cy="-89.181999"
       r="1.008"
       transform="rotate(90)"
       id="circle67" /><circle
       r="1.008"
       cy="-89.181999"
       cx="47.368"
       transform="rotate(90)"
       id="circle69" /><circle
       cx="42.971001"
       cy="-89.181999"
       r="1.008"
       transform="rotate(90)"
       id="circle71" /><circle
       r="1.008"
       cy="-84.052002"
       cx="12.105"
       transform="rotate(90)"
       id="circle73" /><circle
       cx="13.021"
       cy="-79.290001"
       r="1.008"
       transform="rotate(90)"
       id="circle75" /><circle
       r="1.008"
       cy="-75.260002"
       cx="14.851999"
       transform="rotate(90)"
       id="circle77" /><circle
       cx="17.6"
       cy="-71.596001"
       r="1.008"
       transform="rotate(90)"
       id="circle79" /><circle
       r="1.008"
       cy="-69.123001"
       cx="21.722"
       transform="rotate(90)"
       id="circle81" /><circle
       cx="26.851002"
       cy="-67.656998"
       r="1.008"
       transform="rotate(90)"
       id="circle83" /><path
       clip-path="url(#h)"
       d="m 848,-864 c -32,0 -56,-56 -128,-56 H 376 v -152 h 560 v 208 z"
       transform="matrix(0,0.09159,-0.09159,0,-3.145,73.745)"
       id="path85"
       inkscape:connector-curvature="0"
       style="fill:url(#i);stroke:#000000;stroke-width:90" /></g></svg>
