<?xml version="1.0" encoding="UTF-8" standalone="no"?>
<!-- Created with Inkscape (http://www.inkscape.org/) -->

<svg
   width="110px"
   height="110px"
   viewBox="0 0 110 110"
   version="1.1"
   id="SVGRoot"
   sodipodi:docname="model34.svg"
   inkscape:version="1.2.2 (b0a8486541, 2022-12-01)"
   xml:space="preserve"
   xmlns:inkscape="http://www.inkscape.org/namespaces/inkscape"
   xmlns:sodipodi="http://sodipodi.sourceforge.net/DTD/sodipodi-0.dtd"
   xmlns="http://www.w3.org/2000/svg"
   xmlns:svg="http://www.w3.org/2000/svg"><sodipodi:namedview
     id="namedview186"
     pagecolor="#505050"
     bordercolor="#ffffff"
     borderopacity="1"
     inkscape:showpageshadow="0"
     inkscape:pageopacity="0"
     inkscape:pagecheckerboard="1"
     inkscape:deskcolor="#505050"
     inkscape:document-units="px"
     showgrid="false"
     inkscape:zoom="1.6186834"
     inkscape:cx="36.758269"
     inkscape:cy="22.858083"
     inkscape:window-width="1302"
     inkscape:window-height="699"
     inkscape:window-x="0"
     inkscape:window-y="0"
     inkscape:window-maximized="1"
     inkscape:current-layer="layer1"
     showguides="false"><sodipodi:guide
       position="65.302822,56.82494"
       orientation="-0.12331998,0.99236696"
       id="guide10797"
       inkscape:locked="false" /><sodipodi:guide
       position="85.825948,66.691949"
       orientation="-0.12332003,0.99236695"
       id="guide10799"
       inkscape:label=""
       inkscape:locked="false"
       inkscape:color="rgb(0,134,229)" /><sodipodi:guide
       position="57.760015,65.474731"
       orientation="-0.12332003,0.99236695"
       id="guide10806"
       inkscape:label=""
       inkscape:locked="false"
       inkscape:color="rgb(0,134,229)" /><sodipodi:guide
       position="114.82993,68.024857"
       orientation="-0.12332003,0.99236695"
       id="guide10808"
       inkscape:label=""
       inkscape:locked="false"
       inkscape:color="rgb(0,134,229)" /><sodipodi:guide
       position="110.19161,51.706158"
       orientation="0.99236695,0.12332003"
       id="guide10810"
       inkscape:label=""
       inkscape:locked="false"
       inkscape:color="rgb(0,134,229)" /><sodipodi:guide
       position="107.11206,63.133301"
       orientation="0.99236695,0.12332003"
       id="guide13762"
       inkscape:label=""
       inkscape:locked="false"
       inkscape:color="rgb(0,134,229)" /><sodipodi:guide
       position="108.89772,73.646062"
       orientation="-0.12332003,0.99236695"
       id="guide13764"
       inkscape:label=""
       inkscape:locked="false"
       inkscape:color="rgb(0,134,229)" /><sodipodi:guide
       position="112.12683,66.005218"
       orientation="-0.12332003,0.99236695"
       id="guide13766"
       inkscape:label=""
       inkscape:locked="false"
       inkscape:color="rgb(0,134,229)" /></sodipodi:namedview><defs
     id="defs181" /><g
     inkscape:label="Layer 1"
     inkscape:groupmode="layer"
     id="layer1"><g
       transform="matrix(0.73281299,-0.53243935,0.53243935,0.73281299,83.182645,-93.471619)"
       id="g295"
       style="display:none"><path
         d="m -133.794,112.835 -6.935,0.186 -4.783,2.604 0.215,0.516 c 0,0 2.52,3.564 2.701,4.097 4.57,0.861 8.403,-1.143 8,-6.268 0.002,-0.808 0.802,-1.135 0.802,-1.135 z m -3.175,0.444 c 0,0 -0.195,0.813 0.224,1.64 0.248,3.99 -3.2,4.42 -5.528,3.455 -1.698,-0.914 -1.317,-2.344 -1.324,-2.662 l -0.233,-0.166 -0.774,0.29 -0.192,-0.447 4.835,-1.703 z"
         fill="#323232"
         fill-opacity="0.99"
         id="path271" /><path
         d="m -145.415,108.091 c 0,0 -13.68,4.808 -15.353,4.927 -3.629,-0.113 -3.366,-1.516 -5.17,-2.414 -0.542,-0.094 -19.557,1.584 -27.884,2.81 -0.578,0.173 -0.784,0.33 -0.64,0.692 3.019,5.638 2.309,11.274 2.042,15.67 -0.06,0.332 0.262,0.2 0.262,0.2 12.434,-3.595 48.28,-16.321 48.28,-16.321 z"
         fill="#ffffff"
         stroke="#323232"
         stroke-width="2.752"
         id="path273" /><path
         d="m -121.12,111.11 c -12.228,0.562 -19.525,1.676 -22.762,2.568 l -1.432,-5.53 c 0.36,-0.223 1.102,-1.25 1.774,-1.804 1.088,-0.899 1.86,-1.882 3.394,-1.904 l 17.258,0.036 v -1.274 l 1.7,0.001 z m 31.921,-0.458 -31.899,0.487 0.012,-6.859 31.896,0.131 z"
         fill="#ffffff"
         stroke="#323232"
         stroke-width="2.752"
         id="path275" /><path
         d="m -50.541,111.381 c -0.352,0.448 -2.11,0.448 -2.46,0 v -9.008 c 0.35,-0.447 2.108,-0.447 2.46,0 z"
         fill="#323232"
         id="path277" /><path
         d="m -119.06,105.233 v -1.458 h 75.7 v 1.458 z m 32.854,4.187 v -1.69 h 41.79 v 1.69 z"
         fill="none"
         stroke="#323232"
         stroke-width="1.749"
         stroke-opacity="0.995"
         id="path279" /><path
         fill="#323232"
         d="m -45.465,104.676 h 1.194 v 3.489 h -1.194 z m -46.986,7.849 c -0.352,0.414 -2.11,0.414 -2.46,0 v -10.039 c 0.35,-0.414 2.108,-0.414 2.46,0 z m -52.459,3.458 -8.614,3.277 c -1.854,0.985 -0.936,3.465 -0.936,3.465 0.096,0.275 1.027,2.047 2.696,1.554 l 7.44,-2.71 c 0.702,-0.703 1.16,-1.17 1.877,-1.353 z m 0.708,2.457 c 0,0 0.7,1.26 -0.726,1.837 l -6.98,2.502 c -1.025,0.383 -1.416,-0.659 -1.416,-0.659 0,0 -0.525,-1.208 0.697,-1.77 l 6.634,-2.411 c 1.223,-0.485 1.79,0.5 1.79,0.5 z m 2.144,-4.08 0.564,0.643 c 0.088,2.276 1.562,2.945 2.408,3.148 0.567,-0.399 -1.49,-0.779 -1.19,-3.25 l 0.421,-1.244 z m 0.322,-10.48 -0.892,-0.254 c 0,0 -1.197,-0.466 -1.44,-0.64 -1.082,-0.77 -2.038,-0.25 -2.038,-0.25 0,0 1.426,0.688 2.227,1.82 l -0.014,0.183 c 0,0 -1.325,0.785 -1.841,2.003 l 2.593,-1.042 z"
         id="path281" /><rect
         transform="matrix(0.99999835,0.00181514,-0.00155334,0.99999883,0,0)"
         width="6.0910001"
         height="1.7410001"
         x="-132.66299"
         y="107.951"
         rx="0.755"
         ry="0.81699997"
         fill="#323232"
         id="rect283" /><path
         d="m -118.318,103.071 c 0.346,-0.768 0.828,-1.235 0.828,-1.235 h 4.143 c 0,0 0.58,-0.244 1.658,-0.206 0.15,0.009 0.138,0.206 0.138,0.206 l 8.494,1.268 z"
         fill="#323232"
         id="path285" /><circle
         cx="-138.19099"
         cy="108.128"
         r="0.85100001"
         fill="#323232"
         id="circle287" /><circle
         r="0.59299999"
         cy="109.991"
         cx="-138.22099"
         fill="#323232"
         id="circle289" /><circle
         cx="-141.69701"
         cy="110.423"
         r="0.59299999"
         fill="#323232"
         id="circle291" /><path
         d="m -48.76,104.157 v -0.938 l 0.091,-1.469 h 3.067 l 1.224,1.087 v 1.316 z"
         fill="#323232"
         id="path293" /></g><g
       id="g13788"
       transform="rotate(-30,52.631641,44.052989)"><g
         id="g10804"
         transform="translate(-0.96321448,-0.73558051)"><g
           id="g9458"
           style="display:inline;fill:#3f3f3f;fill-opacity:1"
           transform="matrix(0.96450201,-0.10139027,0.10139027,0.96450201,193.47797,-107.53513)"
           inkscape:label="trigger"><path
             d="m -170.31342,150.95749 -6.935,0.186 -4.783,2.604 0.215,0.516 c 0,0 2.52,3.564 2.701,4.097 4.57,0.861 8.403,-1.143 8,-6.268 0.002,-0.808 0.802,-1.135 0.802,-1.135 z m -3.175,0.444 c 0,0 -0.195,0.813 0.224,1.64 0.248,3.99 -3.2,4.42 -5.528,3.455 -1.698,-0.914 -1.317,-2.344 -1.324,-2.662 l -0.233,-0.166 -0.774,0.29 -0.192,-0.447 4.835,-1.703 z"
             fill="#323232"
             fill-opacity="0.99"
             id="path271-3"
             style="display:inline;fill:#3f3f3f;fill-opacity:1" /><path
             fill="#323232"
             d="m -181.42942,154.10549 -8.614,3.277 c -1.854,0.985 -0.936,3.465 -0.936,3.465 0.096,0.275 1.027,2.047 2.696,1.554 l 7.44,-2.71 c 0.702,-0.703 1.16,-1.17 1.877,-1.353 z m 0.708,2.457 c 0,0 0.7,1.26 -0.726,1.837 l -6.98,2.502 c -1.025,0.383 -1.416,-0.659 -1.416,-0.659 0,0 -0.525,-1.208 0.697,-1.77 l 6.634,-2.411 c 1.223,-0.485 1.79,0.5 1.79,0.5 z m 2.144,-4.08 0.564,0.643 c 0.088,2.276 1.562,2.945 2.408,3.148 0.567,-0.399 -1.49,-0.779 -1.19,-3.25 l 0.421,-1.244 z"
             id="path281-5"
             style="display:inline;fill:#3f3f3f;fill-opacity:1"
             sodipodi:nodetypes="ccccccccccccccccccccc" /></g></g><path
         style="fill:#404040;fill-opacity:1;stroke:#404040;stroke-width:0;stroke-linejoin:miter;stroke-miterlimit:29;stroke-dasharray:none;stroke-opacity:1"
         d="m 55.255022,44.836561 59.019078,-7.334217 0.27786,2.235966 -58.848844,7.313063 z"
         id="path10812" /><path
         style="fill:#404040;fill-opacity:1;stroke:#404040;stroke-width:0;stroke-linejoin:miter;stroke-miterlimit:29;stroke-dasharray:none;stroke-opacity:1"
         d="m 55.223784,47.325135 55.146436,-6.85297 0.25963,2.089249 -54.987374,6.833204 z"
         id="path10812-2" /><path
         d="m 35.943994,48.391694 -0.869049,-0.155815 c 0,0 -1.178103,-0.327625 -1.424808,-0.469352 -1.098035,-0.626561 -1.954166,-0.0431 -1.954166,-0.0431 0,0 1.416106,0.516151 2.282397,1.512254 l 0.0042,0.174681 c 0,0 -1.180442,0.869491 -1.553442,2.072235 l 2.35707,-1.233444 z"
         style="display:inline;fill:#404040;fill-opacity:1;stroke-width:1.05094"
         id="path9159" /><path
         style="fill:#a34729;fill-opacity:1;stroke:#7b351e;stroke-width:2;stroke-linejoin:miter;stroke-miterlimit:29;stroke-dasharray:none;stroke-opacity:1"
         d="m 55.262965,47.106069 1.127001,7.176579 28.31956,-3.519231 L 83.919203,43.545 Z"
         id="path8793"
         sodipodi:nodetypes="ccccc" /><path
         style="fill:#a34729;fill-opacity:1;stroke:#7b351e;stroke-width:2;stroke-linejoin:miter;stroke-miterlimit:29;stroke-dasharray:none;stroke-opacity:1"
         d="m 32.521177,52.71322 -12.084804,5.592215 c 0,0 -1.832248,1.143042 -5.56758,-1.382474 L -10.0735,62.570534 c 0,0 4.7862068,8.11955 3.8881672,13.675954 L 34.708181,56.977011 Z"
         id="path540"
         sodipodi:nodetypes="ccccccc" /><path
         style="fill:#666666;fill-opacity:1;stroke:#404040;stroke-width:2;stroke-linejoin:miter;stroke-miterlimit:29;stroke-dasharray:none;stroke-opacity:1"
         d="m 55.747041,44.775418 1.17326,9.441326 c 0,0 -20.615803,2.330044 -20.836097,2.522399 -0.220292,0.192356 -2.934757,-4.731464 -2.934757,-4.731464 0,0 2.423258,-4.577343 3.35993,-4.253437 0.936672,0.323906 15.292412,-1.619726 15.292412,-1.619726 l -0.01803,-0.866585 z"
         id="path7531"
         sodipodi:nodetypes="ccscsccc" /><rect
         style="fill:#666666;fill-opacity:0.542748;stroke:#404040;stroke-width:2;stroke-linejoin:miter;stroke-miterlimit:29;stroke-dasharray:none;stroke-opacity:1"
         id="rect8665"
         width="5.0224261"
         height="0.016572814"
         x="37.182705"
         y="57.657619"
         rx="0.27915275"
         ry="0.016572814"
         transform="rotate(-7.934523)" /><circle
         style="fill:#404040;fill-opacity:1;stroke:#404040;stroke-width:0;stroke-linejoin:miter;stroke-miterlimit:29;stroke-dasharray:none;stroke-opacity:1"
         id="path8667"
         cx="60.234283"
         cy="25.244934"
         r="0.73320132"
         transform="rotate(30)" /><circle
         style="fill:#404040;fill-opacity:1;stroke:#404040;stroke-width:0;stroke-linejoin:miter;stroke-miterlimit:29;stroke-dasharray:none;stroke-opacity:1"
         id="path8667-3"
         cx="61.189919"
         cy="26.584404"
         r="0.50925267"
         transform="rotate(30)" /><circle
         style="fill:#404040;fill-opacity:1;stroke:#404040;stroke-width:0;stroke-linejoin:miter;stroke-miterlimit:29;stroke-dasharray:none;stroke-opacity:1"
         id="path8667-3-6"
         cx="58.851639"
         cy="28.746944"
         r="0.50925267"
         transform="rotate(30)" /><path
         style="fill:#404040;fill-opacity:1;stroke:#404040;stroke-width:0;stroke-linejoin:miter;stroke-miterlimit:29;stroke-dasharray:none;stroke-opacity:1"
         d="m 102.86415,37.013573 1.63428,-0.203089 0.98418,7.919817 -1.63428,0.20309 z"
         id="path13768" /><path
         style="fill:#404040;fill-opacity:1;stroke:#404040;stroke-width:0;stroke-linejoin:miter;stroke-miterlimit:29;stroke-dasharray:none;stroke-opacity:1"
         d="m 108.58971,38.208736 1.12983,-1.956924 3.65945,-0.454755 0.19198,1.792664 z"
         id="path13770" /></g></g></svg>
