<?xml version="1.0" encoding="UTF-8" standalone="no"?>
<!-- Created with Inkscape (http://www.inkscape.org/) -->

<svg
   width="118.19377"
   height="91.900116"
   viewBox="0 0 118.19377 91.900116"
   version="1.1"
   id="SVGRoot"
   sodipodi:docname="pkp.svg"
   xml:space="preserve"
   inkscape:version="1.3 (0e150ed, 2023-07-21)"
   xmlns:inkscape="http://www.inkscape.org/namespaces/inkscape"
   xmlns:sodipodi="http://sodipodi.sourceforge.net/DTD/sodipodi-0.dtd"
   xmlns="http://www.w3.org/2000/svg"
   xmlns:svg="http://www.w3.org/2000/svg"><sodipodi:namedview
     id="namedview392"
     pagecolor="#505050"
     bordercolor="#ffffff"
     borderopacity="1"
     inkscape:showpageshadow="0"
     inkscape:pageopacity="0"
     inkscape:pagecheckerboard="1"
     inkscape:deskcolor="#505050"
     inkscape:document-units="px"
     showgrid="false"
     inkscape:zoom="1.6328077"
     inkscape:cx="29.090994"
     inkscape:cy="63.081524"
     inkscape:window-width="1312"
     inkscape:window-height="449"
     inkscape:window-x="0"
     inkscape:window-y="391"
     inkscape:window-maximized="0"
     inkscape:current-layer="g612" /><defs
     id="defs387" /><g
     inkscape:label="Layer 1"
     inkscape:groupmode="layer"
     id="layer1"
     transform="translate(-12.038255,-20.712904)"><g
       id="g612"
       transform="matrix(0.87830626,0,0,0.87830626,-2.1055641,-0.74587653)"><path
         d="m 45.148,74.75 c 8.786,2.929 14.983,-0.363 20.413,-1.732 3.668,-0.925 9.06,-0.616 11.028,-2.008 v 4.97 c -2.698,1.469 -6.974,0.706 -10.403,1.527 -6.005,1.437 -14.485,5.605 -24.553,0.758 z"
         fill="#ffffff"
         stroke="#323232"
         stroke-width="2"
         stroke-linecap="square"
         id="path553"
         style="display:none" /><g
         stroke="#323232"
         fill="#ffffff"
         id="g557"
         style="display:none"><path
           d="m 72.756,66.034 c 0,0 0.66,1.222 0.714,2.878 l 0.026,0.828 0.214,0.2 0.04,1.243 0.22,0.407 0.204,6.417 -0.2,0.213 0.22,0.408 0.006,0.207 -2.07,0.066 -0.006,-0.207 0.194,-0.42 -0.214,-0.201 -0.205,-6.417 0.194,-0.42 -0.04,-1.242 0.201,-0.214 -0.026,-0.828 c -0.053,-1.656 0.528,-2.918 0.528,-2.918 z m -4.751,0.617 c 0,0 0.745,1.173 0.913,2.822 l 0.084,0.824 0.227,0.185 0.127,1.236 0.248,0.39 0.652,6.388 -0.184,0.227 0.248,0.39 0.02,0.207 -2.06,0.21 -0.02,-0.206 0.163,-0.433 -0.227,-0.185 -0.652,-6.387 0.164,-0.433 -0.127,-1.236 0.185,-0.227 -0.084,-0.824 c -0.168,-1.648 0.324,-2.948 0.324,-2.948 z m -4.473,0.956 c 0,0 0.793,1.14 1.03,2.78 l 0.118,0.82 0.235,0.175 0.178,1.23 0.264,0.38 0.918,6.355 -0.175,0.234 0.264,0.38 0.03,0.206 -2.05,0.296 -0.03,-0.205 0.146,-0.44 -0.235,-0.175 -0.918,-6.354 0.146,-0.44 -0.178,-1.23 0.176,-0.234 -0.119,-0.82 c -0.237,-1.64 0.2,-2.958 0.2,-2.958 z m -4.247,0.755 c 0,0 0.783,1.148 1.005,2.79 l 0.112,0.82 0.233,0.178 0.167,1.231 0.26,0.383 0.863,6.362 -0.177,0.233 0.26,0.382 0.029,0.206 -2.053,0.278 -0.027,-0.205 0.15,-0.439 -0.234,-0.177 -0.863,-6.362 0.15,-0.438 -0.167,-1.231 0.177,-0.234 -0.11,-0.82 c -0.223,-1.642 0.225,-2.957 0.225,-2.957 z m -3.481,1.037 c 0,0 0.695,1.203 0.794,2.857 l 0.05,0.827 0.219,0.194 0.075,1.24 0.231,0.401 0.386,6.409 -0.195,0.22 0.232,0.4 0.013,0.207 -2.068,0.124 -0.012,-0.207 0.182,-0.425 -0.22,-0.195 -0.385,-6.408 0.182,-0.426 -0.075,-1.24 0.194,-0.22 -0.05,-0.827 c -0.099,-1.653 0.447,-2.931 0.447,-2.931 z m -3.26,0.488 c 0,0 0.591,1.257 0.552,2.913 l -0.02,0.828 0.202,0.212 -0.03,1.243 0.197,0.419 -0.155,6.418 -0.212,0.202 0.197,0.42 -0.005,0.206 -2.07,-0.05 0.005,-0.207 0.217,-0.409 -0.202,-0.212 0.154,-6.418 0.217,-0.41 0.03,-1.241 0.212,-0.202 0.02,-0.829 c 0.04,-1.656 0.691,-2.883 0.691,-2.883 z m -1.681,0.185 c 0,0 0.138,1.383 -0.453,2.93 l -0.295,0.775 0.12,0.267 -0.443,1.161 0.046,0.461 -2.289,5.998 -0.267,0.12 0.045,0.46 -0.073,0.194 -1.935,-0.738 0.074,-0.193 0.34,-0.314 -0.119,-0.267 2.289,-5.998 0.34,-0.313 0.444,-1.161 0.267,-0.12 0.295,-0.774 c 0.59,-1.548 1.614,-2.488 1.614,-2.488 z"
           id="path555" /></g><g
         id="g2"
         transform="rotate(12.176913,18.672197,157.93251)"><path
           d="M 68.253,70.7 98.695,40.26 89.368,34.71 74.46,49.619 74.549,53.099 62.6,65.048 Z"
           fill="#ffffff"
           stroke="#323232"
           stroke-width="2.798"
           id="path519" /><path
           d="m 87.406,50.957 -9.319,-5.92 m -10.827,13.209 5.952,5.953"
           fill="none"
           stroke="#323232"
           stroke-width="2.276"
           id="path521" /><path
           d="m 26.99,122.197 -3.515,3.515 c 0,0 -7.921,-9.157 -16.402,-16.402 l 3.515,-3.514 1.464,0.292 14.644,14.645 z"
           fill="#323232"
           id="path523" /><path
           d="m 67.05,97.952 c 0,0 -6.014,4.457 -6.38,4.036 0,0 -4.1,-4.1 -4.028,-9.887 0,0 -0.895,-3.238 -3,-4.171 l 6.023,-6.024 0.42,1.923 0.944,4.5 1.106,1.065 -0.36,1.625 1.258,2.04 1.152,0.728 -0.086,1.28 c 0.365,0.506 2.95,2.885 2.95,2.885 z"
           fill="#ffffff"
           stroke="#323232"
           stroke-width="2.692"
           id="path525" /><path
           d="m 21.424,111.946 43.933,-43.932 -5.565,-5.565 -6.736,6.736 -3.808,-3.807 -4.1,1.757 -16.988,16.987 -0.586,2.929 -12.887,12.887 -0.293,4.979 z"
           fill="#ffffff"
           stroke="#323232"
           stroke-width="2.719"
           id="path527" /><path
           d="M 53.46,70.298 17.204,106.554 15.86,105.21 52.05,69.02 Z M 45.44,94.959 42.17,91.688 66.656,67.2 l 3.272,3.271 -0.959,0.958 0.586,0.586 -0.977,0.978 0.878,0.878 -7.029,7.03 c 0,0 -0.53,0.293 -0.586,2.343 L 60.377,82.951 60.071,80.328 Z M 74.436,84.122 67.7,83.83 l 2.929,-4.686 -1.172,-2.929 1.465,-1.464 3.807,3.807 2.05,-0.292 0.293,0.878 -2.05,0.293 z"
           fill="#323232"
           id="path529" /><path
           d="m 68.579,83.536 c -1.61,1.61 -3.808,2.05 -7.67,0.055 l 0.055,-1.226 c 7.322,4.393 7.615,-1.172 9.665,-4.393 l -3.222,-3.222 0.586,-0.586 2.929,2.929 c 0.293,3.222 -0.586,3.515 -2.343,6.443 z m -6.15,-3.807 c 1.17,2.929 3.663,3.455 4.685,2.929 0,0 0.124,-0.312 -0.125,-0.461 -0.804,0.01 -3.215,0.05 -3.762,-3.427 z M 115.603,11.324 61.752,65.175 58.53,61.954 112.338,8.146 Z M 50.127,58.641 c -1.017,1.115 -0.586,3.515 0.586,4.686 1.171,1.172 3.514,1.758 4.686,0.586 l 16.71,-16.71 -5.288,-5.256 z m 1.886,0.443 10.691,-10.69 2.798,2.777 -10.7,10.701 z m 6.144,-10.999 0.667,-0.667 0.678,0.677 -0.667,0.667 z m 1.151,-1.15 0.667,-0.668 0.676,0.677 -0.667,0.667 z m 1.187,-1.188 0.667,-0.667 0.677,0.677 -0.667,0.667 z m 1.175,-1.174 0.667,-0.667 0.676,0.677 -0.667,0.666 z m -4.646,4.645 0.667,-0.667 0.678,0.677 -0.667,0.667 z m 6.989,-6.988 0.667,-0.667 0.677,0.677 -0.667,0.667 z m 1.15,-1.15 0.667,-0.668 0.677,0.677 -0.667,0.666 z m -2.283,2.283 0.667,-0.667 0.677,0.677 -0.667,0.667 z"
           fill="#323232"
           id="path531" /><path
           d="m 68.092,41.848 -9.764,9.764 -1.333,-1.333 9.755,-9.755 z"
           fill="#323232"
           id="path533" /><path
           d="m 64.777,56.89 -6.45,-6.45 1.172,-1.17 6.444,6.442 z"
           fill="#323232"
           id="path535" /><circle
           cx="-62.014"
           cy="52.271999"
           r="1.045"
           transform="rotate(-90)"
           fill="#7e7e7e"
           id="circle537" /><circle
           r="1.045"
           cy="66.874001"
           cx="-47.410999"
           transform="rotate(-90)"
           fill="#7e7e7e"
           id="circle539" /><path
           d="m 87.323,34.332 -20.209,9.08 0.293,-1.465 16.402,-7.615 4.686,-1.172 z m 10.373,-5.102 -0.295,1.468 1.171,1.172 0.586,2.343 -2.527,2.526 -0.317,-0.318 -1.272,1.272 -3.251,-1.272 2.261,-2.26 -0.35,-0.35 1.063,-1.063 -3.808,-3.807 3.222,-3.222 z m 16.957,-18.087 0.906,0.225 L 120.927,6 c -0.568,-1.248 -1.86,-2.54 -3.222,-3.222 l -5.367,5.368 0.16,0.842 z m 0.144,-3.072 2.944,-2.943 c 0.264,-0.264 0.918,-0.033 0.918,-0.033 0,0 0.221,0.645 -0.042,0.908 l -2.943,2.943 c -0.264,0.265 -0.91,0.043 -0.91,0.043 0,0 -0.23,-0.654 0.034,-0.918 z"
           fill="#323232"
           id="path541" /><path
           d="m 105.378,3.18 a 2.53,2.53 0 0 0 -0.655,1.451 l 1.171,1.172 1.172,6.443 0.878,0.88 4.686,-4.687 -4.393,-4.393 V 3.46 l -1.171,-1.172 c 0,0 -0.988,0.139 -1.688,0.892 z m 2.376,4.779 0.796,-0.797 a 0.827,0.827 0 0 1 1.172,0 l 0.126,0.127 a 0.827,0.827 0 0 1 0,1.171 l -0.796,0.797 a 0.827,0.827 0 0 1 -1.172,0 L 107.754,9.13 a 0.827,0.827 0 0 1 0,-1.171 z m 2.826,7.802 0.586,0.586 0.879,-0.879 1.171,1.172 0.586,-0.586 2.343,2.343 2.636,-2.636 -3.515,-3.515 0.586,-0.585 -0.586,-0.586 -0.878,0.879 -2.343,-2.344 -2.05,2.05 2.343,2.344 z m 3.168,-2.262 a 0.967,0.967 0 1 1 1.348,1.386 0.967,0.967 0 0 1 -1.348,-1.386 z m 1.883,1.883 a 0.967,0.967 0 1 1 1.346,1.387 0.967,0.967 0 0 1 -1.346,-1.387 z"
           fill="#323232"
           id="path543" /><path
           d="m 100.611,42.98 3.177,3.177 0.38,2.642 4.467,4.53 -2.692,2.692 -6.925,-6.85 -1.87,0.15 -1.456,-1.456 z"
           fill="#ffffff"
           stroke="#323232"
           stroke-width="2.25"
           id="path545" /><path
           d="M 75.807,72.666 H 74.15 c -1.432,-0.112 -1.242,-2.485 -1.242,-2.485 -0.085,-1.853 1.713,-1.993 1.656,-3.313 L 74.15,65.211"
           fill="none"
           stroke="#323232"
           stroke-width="1.18"
           id="path549" /><path
           d="m 75.807,63.968 1.323,1.594 -0.595,0.71 -1.323,-1.594 z m -3.708,-14.4 -6.45,-6.45 1.172,-1.171 6.444,6.443 z"
           fill="#323232"
           id="path551" /><path
           d="m 49.105,69.963 c 0,0 -0.25,1.366 -1.246,2.69 l -0.498,0.662 0.041,0.29 -0.746,0.994 -0.084,0.455 -3.858,5.131 -0.29,0.041 -0.084,0.456 -0.124,0.165 -1.656,-1.244 0.125,-0.166 0.414,-0.206 -0.04,-0.29 3.858,-5.132 0.414,-0.206 0.747,-0.993 0.29,-0.041 0.498,-0.662 c 0.996,-1.325 2.24,-1.944 2.24,-1.944 z"
           fill="#ffffff"
           stroke="#323232"
           stroke-width="0.621"
           id="path559" /><path
           d="M 51.614,68.284 39.29,80.608 36.947,78.265 49.248,65.963 Z"
           fill="#ffffff"
           stroke="#323232"
           stroke-width="2.197"
           id="path561" /><path
           d="M 18.027,100.933 31.792,87.168 35.086,81.09"
           fill="none"
           stroke="#323232"
           stroke-width="1.6"
           stroke-linecap="round"
           id="path563" /><path
           d="M 22.889,105.21 42.219,85.88"
           fill="none"
           stroke="#323232"
           stroke-width="1.657"
           stroke-linecap="round"
           id="path565" /><circle
           cx="-57.82"
           cy="95.388"
           r="0.82800001"
           transform="rotate(-45)"
           fill="#323232"
           id="circle567"
           style="display:inline" /><circle
           r="0.82800001"
           cy="95.388"
           cx="-52.855"
           transform="rotate(-45)"
           fill="#323232"
           id="circle569" /><path
           d="m 78.082,66.913 h 26.567 v 1.483 l -1.113,1.112 v 7.2 l 1.113,1.112 v 1.328 H 78.082 V 76.135 H 76.97 v -6.213 h 1.112 z"
           fill="#ffffff"
           stroke="#323232"
           stroke-width="2.869"
           id="path571" /><path
           fill="#323232"
           d="m 87.067,75.46 v -4.837 h 3.432 v 4.837 z m 9.933,0 v -4.837 h 3.432 V 75.46 Z M 83.162,79.871 V 66.28 h 2.03 v 13.591 z"
           id="path573" /><path
           fill="#323232"
           d="M 88.096,74.781 V 71.33 h 11.69 v 3.451 z M 92.88,37.688 82.83,47.736 81.546,46.453 91.576,36.423 Z"
           id="path575" /><path
           style="fill:#333333;fill-opacity:1;stroke:#333333;stroke-width:2.27711;stroke-dasharray:none"
           d="m 7.1491656,109.27244 3.4404584,-3.46566 1.441887,0.28222 14.664939,14.66494 0.383049,1.42956 -3.559174,3.55918 z"
           id="path830" /><path
           style="fill:#404040;fill-opacity:1;stroke:#333333;stroke-width:2.27711;stroke-dasharray:none"
           d="M 13.231557,104.65905 V 99.342275 L 26.726983,85.846848 v -2.114219 l 7.955525,-7.955523 6.262757,6.262758 -24.950217,24.950216 z"
           id="path832" /><path
           style="fill:#333333;stroke:#333333;stroke-width:2.27711"
           d="m 35.524944,75.326276 9.425124,-9.425126 5.014697,-1.343684 3.246846,3.246848 -12.936331,12.936332 z"
           id="path373" /><path
           style="fill:#5a593f;fill-opacity:1;stroke:#3b3a2b;stroke-width:2.27711;stroke-dasharray:none;stroke-opacity:1"
           d="m 76.755051,65.716131 h 29.122459 v 3.655795 l -1.32741,1.327414 v 5.988108 l 1.24727,1.247275 v 2.806414 H 76.873043 Z"
           id="path375" /><path
           style="display:inline;fill:#666666;fill-opacity:1;stroke:#333333;stroke-width:2.27711;stroke-dasharray:none;stroke-opacity:1"
           d="M 60.585477,61.369343 87.298179,33.940314 103.12285,38.180521 70.182447,71.022041 Z"
           id="path5459"
           sodipodi:nodetypes="ccccc" /><path
           style="fill:#5a593f;fill-opacity:1;stroke:#3b3a2b;stroke-width:2.27711;stroke-dasharray:none;stroke-opacity:1"
           d="M 83.068768,65.602945 V 81.178183"
           id="path1765" /><path
           style="display:inline;fill:#404040;fill-opacity:1;stroke:#333333;stroke-width:2.27711;stroke-dasharray:none;stroke-opacity:1"
           d="M 14.991707,107.55442 21.369481,113.9322 67.146586,68.15509 60.727163,61.299766 14.050618,107.42114 Z"
           id="path1767"
           sodipodi:nodetypes="cccccc" /><path
           style="display:inline;fill:#333333;fill-opacity:1;stroke:#333333;stroke-width:2.30175;stroke-dasharray:none;stroke-opacity:1"
           d="M 100.8543,39.533968 45.685184,94.5003 42.67568,92.76915 97.516596,38.129816 Z"
           id="path5091" /><path
           style="display:inline;fill:#404040;fill-opacity:1;stroke:#333333;stroke-width:2.27711;stroke-dasharray:none;stroke-opacity:1"
           d="m 67.241027,55.057284 7.502076,7.502074"
           id="path5462" /><path
           style="fill:#404040;fill-opacity:1;stroke:#333333;stroke-width:2.27711;stroke-dasharray:none;stroke-opacity:1"
           d="m 80.378536,41.015305 5.951306,8.036916"
           id="path5464"
           sodipodi:nodetypes="cc" /><path
           style="fill:#404040;fill-opacity:1;stroke:#333333;stroke-width:2.27711;stroke-dasharray:none;stroke-opacity:1"
           d="M 93.378449,34.668724 82.651917,45.61114"
           id="path5466"
           sodipodi:nodetypes="cc" /><path
           style="fill:#666666;fill-opacity:1;stroke:#333333;stroke-width:2.27711;stroke-dasharray:none;stroke-opacity:1"
           d="m 94.548811,48.31298 6.519809,-6.519805 3.78791,3.787912 v 2.677492 l 4.96633,4.966332 -4.25939,4.259385 -7.023965,-7.02397 h -1.972463 z"
           id="path5513" /><path
           style="fill:#666666;fill-opacity:1;stroke:#333333;stroke-width:2.27711;stroke-dasharray:none;stroke-opacity:1"
           d="m 69.286366,97.320889 -6.794052,5.353851 c 0,0 -2.423888,2.45239 -4.222936,-1.75581 -1.799047,-4.208192 -3.065043,-4.73063 -3.011581,-8.97951 0.05347,-4.248881 -5.391244,-2.169549 -2.554596,-2.92726 2.836649,-0.757711 9.00074,-8.458056 9.00074,-8.458056 v 3.444192 l 0.490202,3.711112 1.394738,1.316117 -0.44185,1.801013 0.594768,1.410463 1.890444,0.942274 -0.115966,1.327713 2.0811,2.232053 z"
           id="path5614"
           sodipodi:nodetypes="ccssscccccccccc" /></g></g></g></svg>
