<?xml version="1.0" encoding="UTF-8" standalone="no"?>
<!-- Created with Inkscape (http://www.inkscape.org/) -->

<svg
   width="166.47124"
   height="57.238739"
   viewBox="0 0 44.045515 15.144417"
   version="1.1"
   id="svg5"
   xml:space="preserve"
   inkscape:version="1.2.2 (b0a8486541, 2022-12-01)"
   sodipodi:docname="pkp_world.svg"
   xmlns:inkscape="http://www.inkscape.org/namespaces/inkscape"
   xmlns:sodipodi="http://sodipodi.sourceforge.net/DTD/sodipodi-0.dtd"
   xmlns="http://www.w3.org/2000/svg"
   xmlns:svg="http://www.w3.org/2000/svg"><sodipodi:namedview
     id="namedview7"
     pagecolor="#505050"
     bordercolor="#ffffff"
     borderopacity="1"
     inkscape:showpageshadow="0"
     inkscape:pageopacity="0"
     inkscape:pagecheckerboard="1"
     inkscape:deskcolor="#505050"
     inkscape:document-units="mm"
     showgrid="false"
     inkscape:zoom="4.797533"
     inkscape:cx="79.415816"
     inkscape:cy="50.442592"
     inkscape:window-width="1302"
     inkscape:window-height="699"
     inkscape:window-x="0"
     inkscape:window-y="0"
     inkscape:window-maximized="1"
     inkscape:current-layer="g378" /><defs
     id="defs2"><clipPath
       id="b"><path
         d="m 36,112 4,4 v 26 l -4,4 H 20 l -4,-4 v -26 l 4,-4 z"
         fill="#515151"
         stroke-width="11.471"
         stroke-miterlimit="10"
         stroke-opacity="0.49"
         id="path132" /></clipPath><clipPath
       id="a"><path
         d="m 18,158 -4,4 v 59.82 l 4,4.18 v 20 h 20 v -20 l 4,-4 v -32 h 4 l 0.117,-24 H 42 v -4 l -4,-4 z"
         fill="#273723"
         stroke-width="10.001"
         stroke-miterlimit="10"
         stroke-opacity="0.49"
         id="path135" /></clipPath><clipPath
       id="b-3"><path
         d="m 36,112 4,4 v 26 l -4,4 H 20 l -4,-4 v -26 l 4,-4 z"
         fill="#515151"
         stroke-width="11.471"
         stroke-miterlimit="10"
         stroke-opacity="0.49"
         id="path335" /></clipPath><clipPath
       id="a-6"><path
         d="m 18,158 -4,4 v 59.82 l 4,4.18 v 20 h 20 v -20 l 4,-4 v -32 h 4 l 0.117,-24 H 42 v -4 l -4,-4 z"
         fill="#273723"
         stroke-width="10.001"
         stroke-miterlimit="10"
         stroke-opacity="0.49"
         id="path338" /></clipPath><clipPath
       id="a-3"><rect
         ry="6"
         rx="6"
         height="44"
         width="76"
         fill="#555555"
         stroke-width="1.807"
         stroke-linecap="square"
         id="rect485"
         x="0"
         y="0" /></clipPath></defs><g
     inkscape:label="Layer 1"
     inkscape:groupmode="layer"
     id="layer1"
     transform="translate(-0.10367682,3.0649771)"><g
       id="g378"
       transform="matrix(0,0.16663733,-0.16663733,0,41.096459,-1.5938822)"><g
         id="g502"
         transform="matrix(0.85609306,0,0,0.85609306,-9.8431376,180.76108)"><rect
           width="76"
           height="44"
           rx="6"
           ry="6"
           clip-path="url(#a-3)"
           fill="#4a5a27"
           stroke="#000000"
           stroke-width="16"
           stroke-linecap="square"
           id="rect490"
           x="0"
           y="0"
           transform="matrix(1.3968368,0,0,1.3968368,1.1856365,-69.866959)" /><path
           fill="#799340"
           d="m 10.70419,-30.755528 h 83.810208 v 11.174694 H 10.70419 Z"
           id="path492"
           style="stroke-width:1.39684" /></g><path
         d="m 18,158 -4,4 v 59.82 l 4,4.18 v 20 h 20 v -20 l 4,-4 v -32 h 4 l 0.117,-24 H 42 v -4 l -4,-4 z"
         clip-path="url(#a-6)"
         fill="#273723"
         stroke-width="16"
         stroke-miterlimit="10"
         stroke="#000000"
         id="path343"
         transform="matrix(1.2883145,0,0,1.2883145,-2.7738373,-70.925373)" /><path
         d="m 43.605486,184.1609 v -5.15325 H 59.06526 v 5.15325 z M 20.415824,132.62832 V 47.599564 l 5.153258,-5.153258 h 15.459775 l 5.153257,5.153258 v 85.028756 z"
         id="path345"
         style="stroke-width:1.28832" /><path
         d="M 25.569082,132.62832 V 42.446306 h 15.459775 v 90.182014 z"
         fill="#1e2a1b"
         id="path347"
         style="stroke-width:1.28832" /><path
         d="m 25.569082,235.69349 v -41.22607 h 15.459775 v 41.22607 z"
         fill="#242424"
         id="path349"
         style="stroke-width:1.28832" /><path
         d="m 36,112 4,4 v 26 l -4,4 H 20 l -4,-4 v -26 l 4,-4 z"
         clip-path="url(#b-3)"
         transform="matrix(1.2883145,0,0,1.2883145,-2.7738373,-73.502005)"
         fill="#515151"
         stroke="#000000"
         stroke-width="16"
         stroke-miterlimit="10"
         id="path351" /><path
         d="M 22.992453,84.977433 H 43.605486 M 22.992453,92.70732 h 20.613033 m -20.613033,7.72989 h 20.613033"
         fill="none"
         stroke="#000000"
         stroke-width="3.86494"
         id="path353" /><path
         d="M 25.569082,50.176192 V -18.319626 H 41.028857 V 50.176192 Z"
         id="path355"
         style="stroke-width:1.28832" /><path
         d="m 25.569082,-11.878053 h 15.459775 l 5.153257,2.5766291 V 6.1583498 H 20.415824 V -9.3014239 Z"
         fill="#0d100d"
         id="path357"
         style="stroke-width:1.28832" /><path
         fill="#43603d"
         d="m 41.028857,153.24135 h 5.153257 v 10.30652 h -5.153257 z"
         id="path359"
         style="stroke-width:1.28832" /></g></g></svg>
