<?xml version="1.0" encoding="UTF-8" standalone="no"?>
<svg
   width="110"
   height="110"
   viewBox="0 0 110 110"
   fill="none"
   version="1.1"
   id="svg97"
   sodipodi:docname="super90.svg"
   inkscape:version="1.2.2 (b0a8486541, 2022-12-01)"
   xml:space="preserve"
   xmlns:inkscape="http://www.inkscape.org/namespaces/inkscape"
   xmlns:sodipodi="http://sodipodi.sourceforge.net/DTD/sodipodi-0.dtd"
   xmlns="http://www.w3.org/2000/svg"
   xmlns:svg="http://www.w3.org/2000/svg"><sodipodi:namedview
     id="namedview99"
     pagecolor="#505050"
     bordercolor="#ffffff"
     borderopacity="1"
     inkscape:pageshadow="0"
     inkscape:pageopacity="0"
     inkscape:pagecheckerboard="1"
     showgrid="false"
     inkscape:zoom="4"
     inkscape:cx="42.75"
     inkscape:cy="54.75"
     inkscape:window-width="1302"
     inkscape:window-height="699"
     inkscape:window-x="0"
     inkscape:window-y="0"
     inkscape:window-maximized="1"
     inkscape:current-layer="svg97"
     inkscape:showpageshadow="0"
     inkscape:deskcolor="#505050"
     showguides="false"><sodipodi:guide
       position="61.11792,55.410078"
       orientation="0,-1"
       id="guide4663"
       inkscape:locked="false" /></sodipodi:namedview><defs
     id="defs95"><clipPath
       id="clip0_619_1194"><rect
         width="110"
         height="110"
         fill="#ffffff"
         transform="translate(0.0859375)"
         id="rect92"
         x="0"
         y="0" /></clipPath></defs><g
     id="g4857"
     inkscape:label="super90"
     transform="matrix(1.0227383,-0.59047826,0.59047826,1.0227383,-30.736939,29.376003)"><g
       id="g1974"
       inkscape:label="stock"><path
         style="fill:#4d4d4d;fill-opacity:1;stroke:#333333;stroke-width:2;stroke-miterlimit:29;stroke-dasharray:none;stroke-opacity:1"
         d="M 19.847394,55.29131 30.950573,51.936565"
         id="path1979"
         inkscape:label="stock_connector" /><path
         style="fill:#4d4d4d;fill-opacity:1;stroke:#333333;stroke-width:2;stroke-miterlimit:29;stroke-dasharray:none;stroke-opacity:1"
         d="M 3.3355177,53.368538 9.3584961,52.498981"
         id="path1976"
         inkscape:label="stock_join" /><path
         style="display:inline;fill:#404040;fill-opacity:1;stroke:#333333;stroke-width:2;stroke-miterlimit:29;stroke-dasharray:none;stroke-opacity:1"
         d="M 0.6986358,53.530359 1.2819164,64.10642 3.9216972,63.53435 c 0,0 0.2751199,-3.151544 2.3965647,-4.172811 L 19.656285,56.149793 18.620842,52.897161 6.1581965,56.637929 c 0,0 -0.8419019,0.617397 -1.6580149,-0.593259 L 3.8400732,53.109944 Z"
         id="path634"
         sodipodi:nodetypes="cccccccccc"
         inkscape:label="stock_lower" /><path
         style="fill:#404040;fill-opacity:1;stroke:#333333;stroke-width:2;stroke-miterlimit:29;stroke-dasharray:none;stroke-opacity:1"
         d="M 6.7126955,51.454215 24.397468,49.421833 c 0,0 2.024119,0.353715 0.271453,2.22145 l -5.826804,2.390167 -2.503756,1.986873 -4.819924,1.169431 c 0,0 -1.9569566,0.323794 -3.5189508,-1.694563 z"
         id="path1970"
         inkscape:label="stock_upper" /></g><g
       id="g2094"
       inkscape:label="main"
       style="display:inline"><path
         d="m 42.845197,57.513803 h -2.243308 c 0,0 -0.92392,-0.0763 -1.583964,-0.660043 L 38.49017,55.616966 c 1.073707,1.350883 2.111719,1.368383 2.111719,1.368383 h 2.243308 c 0.436063,0.0042 1.042212,-0.606149 1.187099,-1.055511 0,0 0.190383,-0.361169 0,-0.790933 0,0 -0.290475,-0.57395 -0.95752,-0.660743 l 4.652504,-0.01044 c -1.581865,0.153287 -2.712968,1.555267 -3.298818,2.253807 -0.46196,0.528455 -0.923921,0.792333 -1.583265,0.792333 z m -3.958861,-3.035641 c 0.436062,0.898725 0.723037,0.512357 0.791633,0.923922 0.132291,0.791632 0.396166,1.05551 0.396166,1.05551 0.214881,0.195982 0.445161,0.246378 0.527754,0.132291 -0.430462,-0.214882 -0.791632,-1.250793 0.131589,-2.111719 z"
         style="fill:#323232;stroke-width:0.963907"
         id="path3041"
         sodipodi:nodetypes="cccccccccccsccccccc"
         inkscape:label="trigger" /><path
         style="fill:#4d4d4d;fill-opacity:1;stroke:#333333;stroke-width:2;stroke-miterlimit:29;stroke-dasharray:none;stroke-opacity:1"
         d="m 30.812612,52.864769 4.983682,-0.307587 2.144739,3.540258 c 0,0 -2.481321,0.713843 -2.417059,0.974843 0.09529,0.387007 -1.964754,6.396448 -1.964754,6.396448 l -4.509668,-0.74437 2.517803,-5.301538 c 0,0 1.515373,-2.987982 -0.482414,-4.369704 z"
         id="path1982"
         sodipodi:nodetypes="cccscccsc"
         inkscape:label="handle" /><path
         d="m 43.691467,45.883425 c 0,0 -0.05352,-1.296048 -0.229279,-1.412147 h -1.605563 c 0,0 -0.705475,-0.472738 -1.26134,-1.144285 0,0 -0.40139,-0.286073 -0.802781,0 0,0 -0.789401,0.728458 -1.031452,1.716428 v 0.858215 z"
         style="fill:#333333;fill-opacity:1;stroke-width:0.935519"
         id="path3069"
         inkscape:label="sights" /><path
         style="display:inline;fill:#4d4d4d;fill-opacity:1;stroke:#333333;stroke-width:2;stroke-miterlimit:29;stroke-dasharray:none;stroke-opacity:1"
         d="m 30.943603,52.004517 c 0.466187,-0.134156 5.920044,0 5.920044,0 l 0.915335,1.585405 H 60.11792 V 48.584473 46.131714 H 37.582153 l -5.022398,3.303354 z"
         id="path1985"
         inkscape:label="block" /><rect
         style="fill:#4d4d4d;fill-opacity:0.341129;stroke:#333333;stroke-width:1.28867;stroke-miterlimit:29;stroke-dasharray:none;stroke-opacity:1"
         id="rect2081"
         width="4.6868467"
         height="0.039151978"
         x="43.66301"
         y="49.213364"
         rx="0.62430322"
         ry="0.039151978" /><rect
         style="fill:#4d4d4d;fill-opacity:0;stroke:#333333;stroke-width:1;stroke-miterlimit:29;stroke-dasharray:none;stroke-opacity:1"
         id="rect2087"
         width="8.2672453"
         height="2.9711087"
         x="49.99754"
         y="46.07465"
         rx="0.69999999"
         ry="0.084106445" /><g
         id="g2305"
         transform="matrix(0.93514873,0,0,0.93514873,2.8833561,3.0170406)"
         inkscape:label="picatinny"><rect
           style="fill:#4d4d4d;fill-opacity:0;stroke:#333333;stroke-width:1;stroke-miterlimit:29;stroke-dasharray:none;stroke-opacity:1"
           id="rect2148"
           width="0.20483398"
           height="1.2324219"
           x="44.96106"
           y="44.790039"
           rx="0.69999999"
           ry="0.084106445" /><rect
           style="display:inline;fill:#4d4d4d;fill-opacity:0;stroke:#333333;stroke-width:1;stroke-miterlimit:29;stroke-dasharray:none;stroke-opacity:1"
           id="rect2148-3"
           width="0.20483398"
           height="1.2324219"
           x="46.320335"
           y="44.790039"
           rx="0.69999999"
           ry="0.084106445" /><rect
           style="display:inline;fill:#4d4d4d;fill-opacity:0;stroke:#333333;stroke-width:1;stroke-miterlimit:29;stroke-dasharray:none;stroke-opacity:1"
           id="rect2148-6"
           width="0.20483398"
           height="1.2324219"
           x="47.679615"
           y="44.790039"
           rx="0.69999999"
           ry="0.084106445" /><rect
           style="display:inline;fill:#4d4d4d;fill-opacity:0;stroke:#333333;stroke-width:1;stroke-miterlimit:29;stroke-dasharray:none;stroke-opacity:1"
           id="rect2148-7"
           width="0.20483398"
           height="1.2324219"
           x="49.038891"
           y="44.790039"
           rx="0.69999999"
           ry="0.084106445" /><rect
           style="display:inline;fill:#4d4d4d;fill-opacity:0;stroke:#333333;stroke-width:1;stroke-miterlimit:29;stroke-dasharray:none;stroke-opacity:1"
           id="rect2148-5"
           width="0.20483398"
           height="1.2324219"
           x="50.39817"
           y="44.790039"
           rx="0.69999999"
           ry="0.084106445" /><rect
           style="display:inline;fill:#4d4d4d;fill-opacity:0;stroke:#333333;stroke-width:1;stroke-miterlimit:29;stroke-dasharray:none;stroke-opacity:1"
           id="rect2148-35"
           width="0.20483398"
           height="1.2324219"
           x="51.757446"
           y="44.790039"
           rx="0.69999999"
           ry="0.084106445" /><rect
           style="display:inline;fill:#4d4d4d;fill-opacity:0;stroke:#333333;stroke-width:1;stroke-miterlimit:29;stroke-dasharray:none;stroke-opacity:1"
           id="rect2148-62"
           width="0.20483398"
           height="1.2324219"
           x="53.116722"
           y="44.790039"
           rx="0.69999999"
           ry="0.084106445" /><rect
           style="display:inline;fill:#4d4d4d;fill-opacity:0;stroke:#333333;stroke-width:1;stroke-miterlimit:29;stroke-dasharray:none;stroke-opacity:1"
           id="rect2148-9"
           width="0.20483398"
           height="1.2324219"
           x="54.476002"
           y="44.790039"
           rx="0.69999999"
           ry="0.084106445" /><rect
           style="display:inline;fill:#4d4d4d;fill-opacity:0;stroke:#333333;stroke-width:1;stroke-miterlimit:29;stroke-dasharray:none;stroke-opacity:1"
           id="rect2148-1"
           width="0.20483398"
           height="1.2324219"
           x="55.835278"
           y="44.790039"
           rx="0.69999999"
           ry="0.084106445" /><rect
           style="display:inline;fill:#4d4d4d;fill-opacity:0;stroke:#333333;stroke-width:1;stroke-miterlimit:29;stroke-dasharray:none;stroke-opacity:1"
           id="rect2148-2"
           width="0.20483398"
           height="1.2324219"
           x="57.194557"
           y="44.790039"
           rx="0.69999999"
           ry="0.084106445" /><rect
           style="display:inline;fill:#4d4d4d;fill-opacity:0;stroke:#333333;stroke-width:1;stroke-miterlimit:29;stroke-dasharray:none;stroke-opacity:1"
           id="rect2148-70"
           width="0.20483398"
           height="1.2324219"
           x="58.553833"
           y="44.790039"
           rx="0.69999999"
           ry="0.084106445" /></g></g><g
       id="g4820"
       inkscape:label="barrel"
       transform="translate(1.2738235,8.4378552)"
       style="fill:#333333;fill-opacity:1;stroke-width:0;stroke-dasharray:none"><path
         d="m 105.11777,41.446647 c 1.36879,0.547516 1.36879,3.011338 0,3.558854 h -4.65461 l -0.13724,-0.410274 h -5.338647 v -0.547516 h -0.547516 v 0.547516 h -0.411 v -0.547516 h -0.547516 v 0.547516 h -0.410274 v -0.547516 h -0.548242 v 0.547516 H 81.16068 l -0.273758,0.547516 h -3.148579 v -4.51737 h 3.148579 v 0.410274 l 0.273758,0.821274 h 11.362045 v 0.547516 h 0.548242 v -0.547516 h 0.410274 v 0.547516 h 0.547516 v -0.547516 h 0.411 v 0.547516 h 0.547516 v -0.547516 h 5.338647 l 0.13724,-0.410274 z"
         fill="#323232"
         id="path289-6"
         style="display:inline;fill:#333333;fill-opacity:1;stroke-width:0;stroke-dasharray:none" /><path
         d="m 106.11432,38.540218 v 2.190063 h -2.60107 V 41.64305 H 100.6377 V 40.730281 H 77.768385 v -2.190063 z"
         fill="#323232"
         id="path291-2"
         style="display:inline;fill:#333333;fill-opacity:1;stroke-width:0;stroke-dasharray:none"
         sodipodi:nodetypes="ccccccccc" /></g><g
       id="g4760"
       inkscape:label="grip"><rect
         style="display:inline;fill:#666666;fill-opacity:1;stroke:#333333;stroke-width:1.93972;stroke-miterlimit:29;stroke-dasharray:none;stroke-opacity:1"
         id="rect4608"
         width="20.79805"
         height="6.6379609"
         x="58.817688"
         y="46.982101"
         rx="0.70203471"
         ry="0.078883626" /><g
         id="g4751"
         inkscape:label="forward_rail"><rect
           style="fill:#666666;fill-opacity:1;stroke:#333333;stroke-width:1.52016;stroke-miterlimit:29;stroke-dasharray:none;stroke-opacity:1"
           id="rect4665"
           width="0.10722753"
           height="3.3800771"
           x="64.580513"
           y="49.440441"
           rx="0.34699523"
           ry="0.098021738" /><rect
           style="fill:#666666;fill-opacity:1;stroke:#333333;stroke-width:1.52016;stroke-miterlimit:29;stroke-dasharray:none;stroke-opacity:1"
           id="rect4665-9"
           width="0.10722753"
           height="3.3800771"
           x="67.156357"
           y="49.440441"
           rx="0.34699523"
           ry="0.098021738" /><rect
           style="fill:#666666;fill-opacity:1;stroke:#333333;stroke-width:1.52016;stroke-miterlimit:29;stroke-dasharray:none;stroke-opacity:1"
           id="rect4665-3"
           width="0.10722753"
           height="3.3800771"
           x="69.732201"
           y="49.440441"
           rx="0.34699523"
           ry="0.098021738" /><rect
           style="fill:#666666;fill-opacity:1;stroke:#333333;stroke-width:1.52016;stroke-miterlimit:29;stroke-dasharray:none;stroke-opacity:1"
           id="rect4665-0"
           width="0.10722753"
           height="3.3800771"
           x="72.308044"
           y="49.440441"
           rx="0.34699523"
           ry="0.098021738" /><rect
           style="fill:#666666;fill-opacity:1;stroke:#333333;stroke-width:1.52016;stroke-miterlimit:29;stroke-dasharray:none;stroke-opacity:1"
           id="rect4665-6"
           width="0.10722753"
           height="3.3800771"
           x="74.883888"
           y="49.440441"
           rx="0.34699523"
           ry="0.098021738" /></g></g></g></svg>
