<?xml version="1.0" encoding="UTF-8" standalone="no"?>
<!-- Created with Inkscape (http://www.inkscape.org/) -->

<svg
   width="110px"
   height="110px"
   viewBox="0 0 110 110"
   version="1.1"
   id="SVGRoot"
   sodipodi:docname="sv98.svg"
   inkscape:version="1.2.2 (b0a8486541, 2022-12-01)"
   xml:space="preserve"
   xmlns:inkscape="http://www.inkscape.org/namespaces/inkscape"
   xmlns:sodipodi="http://sodipodi.sourceforge.net/DTD/sodipodi-0.dtd"
   xmlns="http://www.w3.org/2000/svg"
   xmlns:svg="http://www.w3.org/2000/svg"><sodipodi:namedview
     id="namedview186"
     pagecolor="#505050"
     bordercolor="#ffffff"
     borderopacity="1"
     inkscape:showpageshadow="0"
     inkscape:pageopacity="0"
     inkscape:pagecheckerboard="1"
     inkscape:deskcolor="#505050"
     inkscape:document-units="px"
     showgrid="false"
     inkscape:zoom="8"
     inkscape:cx="35.9375"
     inkscape:cy="72.25"
     inkscape:window-width="1302"
     inkscape:window-height="699"
     inkscape:window-x="0"
     inkscape:window-y="0"
     inkscape:window-maximized="1"
     inkscape:current-layer="g8267"
     showguides="false"><sodipodi:guide
       position="128.81997,60.892677"
       orientation="0,-1"
       id="guide2960"
       inkscape:locked="false" /><sodipodi:guide
       position="6.3754762,56.710285"
       orientation="0,-1"
       id="guide2962"
       inkscape:locked="false" /><sodipodi:guide
       position="26.919922,64.094238"
       orientation="0,1"
       id="guide2968"
       inkscape:label=""
       inkscape:locked="false"
       inkscape:color="rgb(0,134,229)" /></sodipodi:namedview><defs
     id="defs181" /><g
     inkscape:label="Layer 1"
     inkscape:groupmode="layer"
     id="layer1"
     transform="rotate(-30,63.84384,57.258042)"><g
       id="g8267"
       inkscape:label="sv98"
       transform="matrix(0.83315817,0,0,0.83315817,6.234744,3.4170251)"
       style="stroke-width:1.20026"><g
         id="g5914"
         inkscape:label="mag"
         style="stroke-width:1.20026"><path
           d="m 74.043833,103.02506 4.287,4.083 8.305,-11.556997 -4.351,-2.839 z"
           fill="#f9f9f9"
           stroke="#323232"
           stroke-width="2.44269"
           id="path434-3"
           style="display:inline;fill:#4d4d4d;fill-opacity:1;stroke-width:2.63773;stroke-dasharray:none"
           transform="matrix(0.73477554,0.53701112,-0.53697249,0.73472268,39.578013,-58.094057)"
           inkscape:label="box" /><path
           style="fill:#4d4d4d;fill-opacity:1;stroke:#333333;stroke-width:2.4005;stroke-miterlimit:29;stroke-dasharray:none;stroke-opacity:1"
           d="m 47.615404,55.250658 1.181307,4.408697"
           id="path5908" /></g><path
         d="m 131.77965,44.947761 0.40853,3.77e-4 0.2033,0.408182 1.63104,1.26e-4 0.2041,-0.407667 0.40803,9.8e-4 -0.002,3.057185 -2.8537,-9.84e-4 z"
         style="display:inline;fill:#f9f9f9;stroke:#323232;stroke-width:2.64055"
         id="path4998" /><rect
         style="display:inline;fill:#333333;fill-opacity:1;stroke:#333333;stroke-width:0;stroke-miterlimit:29;stroke-dasharray:none;stroke-opacity:1"
         id="rect3054"
         width="108.36819"
         height="4.1981959"
         x="32.711582"
         y="45.905762"
         inkscape:label="barrel" /><path
         style="fill:#666666;fill-opacity:1;stroke:#333333;stroke-width:2.4005;stroke-miterlimit:29;stroke-dasharray:none;stroke-opacity:1"
         d="M 58.765381,44.299072 H 33.371582 l -1.189785,4.440338 h 30.102138 z"
         id="path3059" /><g
         id="g2966"
         inkscape:label="stock"
         style="stroke-width:1.20026"><rect
           style="fill:#222c20;fill-opacity:1;stroke:#212c21;stroke-width:2.4005;stroke-miterlimit:29;stroke-dasharray:none;stroke-opacity:1"
           id="rect2802"
           width="4.8677144"
           height="11.627101"
           x="-8.9264307"
           y="57.3899" /><path
           style="fill:#2e3b2b;fill-opacity:1;stroke:#333333;stroke-width:0;stroke-miterlimit:29;stroke-dasharray:none;stroke-opacity:1"
           d="m -12.945354,71.217012 h 5.5934978 V 55.047608 H -13.39209 c 0,0 2.048379,11.948917 0.446736,16.169404 z"
           id="path684" /></g><rect
         style="fill:#2e3b2b;fill-opacity:1;stroke:#333333;stroke-width:0;stroke-miterlimit:29;stroke-dasharray:none;stroke-opacity:1"
         id="rect2800"
         width="14.331966"
         height="4.2622542"
         x="-1.8134766"
         y="51.996704" /><path
         d="m 33.398504,51.778623 c 0,0 -0.634581,1.978792 0.658403,2.671284 -0.01512,-0.11813 -0.70578,-0.547381 -0.584349,-1.734588 0.03547,-0.35393 0.677265,-0.95907 0.677265,-0.95907 z"
         fill="#f9f9f9"
         stroke="#323232"
         stroke-width="0.599958"
         id="path432-6"
         style="display:inline;stroke:#1f2e1f;stroke-width:1.20025;stroke-opacity:1"
         inkscape:label="trigger" /><path
         id="path2957"
         style="display:inline;fill:#415f3b;fill-opacity:1;stroke:#1f2e1f;stroke-width:2.63773;stroke-miterlimit:29;stroke-dasharray:none;stroke-opacity:1"
         inkscape:label="body"
         d="m 39.75412,73.636143 -4.417419,9.999436 -6.570191,4.802173 0.520603,4.829789 -15.171823,11.429399 7.644682,10.46073 1.083791,0.87196 3.531131,-2.58092 0.477532,-3.07114 11.178457,-13.88575 c 0,0 6.463527,0.380779 7.845123,-2.868121 0,0 -4.518605,-4.528558 -4.98275,-5.06142 -0.407799,-0.468176 -1.273933,-3.262605 2.38173,-3.119719 3.655659,0.142885 6.929979,-1.658514 8.719583,-4.872809 L 62.839102,65.883939 91.141861,45.197363 90.692401,41.035979 88.486498,38.017494 Z m 4.384351,3.136061 c 1.634075,-1.194805 3.319387,-1.607713 4.239906,-0.348117 0.920507,1.259604 0.63111,3.593229 -1.003398,4.787441 -1.633937,1.193573 -3.897706,0.72928 -4.817844,-0.529794 -0.920126,-1.259083 -0.05196,-2.715075 1.581336,-3.90953 z M 32.031758,89.777067 37.21177,86.037372 c 1.307914,-1.131444 -1.202962,5.911559 -1.987863,7.246499 -1.635521,-0.47589 -3.192149,-3.506804 -3.192149,-3.506804 z m -12.461042,14.561083 8.621642,-6.301584 c 0,0 1.027394,0.106651 2.979222,1.679695 l -7.809491,9.631659 z"
         transform="matrix(0.73477554,0.53701112,-0.53697249,0.73472268,42.742337,-28.018908)"
         sodipodi:nodetypes="cccccccccccsscccccccscscccccccccc" /><path
         style="fill:#2e3b2b;fill-opacity:1;stroke:#333333;stroke-width:0;stroke-miterlimit:29;stroke-dasharray:none;stroke-opacity:1"
         d="m -1.5153768,48.704569 -3.5519341,4.585146 H 13.763205 l 2.419547,-4.585147 z"
         id="path2746"
         sodipodi:nodetypes="ccccc" /><path
         style="fill:#4d4d4d;stroke:#1f2e1f;stroke-width:2.4005;stroke-linejoin:round;stroke-miterlimit:29;stroke-dasharray:none"
         id="path1359"
         transform="rotate(29.999999)"
         sodipodi:type="arc"
         sodipodi:cx="53.772667"
         sodipodi:cy="26.139145"
         sodipodi:rx="0.0042106938"
         sodipodi:ry="0.01303317"
         sodipodi:start="0.048634483"
         sodipodi:end="0.067446853"
         sodipodi:arc-type="slice"
         d="m 53.776873,26.139779 a 0.00421069,0.01303317 0 0 1 -5e-6,2.44e-4 l -0.0042,-8.78e-4 z" /></g></g></svg>
