<?xml version="1.0" encoding="UTF-8" standalone="no"?>
<!-- Created with Inkscape (http://www.inkscape.org/) -->

<svg
   version="1.1"
   id="svg1"
   width="110"
   height="110"
   viewBox="0 0 110 110"
   sodipodi:docname="smg.jpeg.svg"
   inkscape:export-filename="smg.jpeg.svg"
   inkscape:export-xdpi="96"
   inkscape:export-ydpi="96"
   xml:space="preserve"
   inkscape:version="1.2.2 (b0a8486541, 2022-12-01)"
   xmlns:inkscape="http://www.inkscape.org/namespaces/inkscape"
   xmlns:sodipodi="http://sodipodi.sourceforge.net/DTD/sodipodi-0.dtd"
   xmlns="http://www.w3.org/2000/svg"
   xmlns:svg="http://www.w3.org/2000/svg"><defs
     id="defs1"><inkscape:path-effect
       effect="fillet_chamfer"
       id="path-effect21"
       is_visible="true"
       lpeversion="1"
       nodesatellites_param="F,0,0,1,0,6.276816,0,1 @ F,0,0,1,0,20.112185,0,1 @ F,0,0,1,0,19.095192,0,1 @ F,0,0,1,0,19.095192,0,1 @ F,0,0,1,0,0,0,1 @ F,0,0,1,0,12.61868,0,1 @ F,0,0,1,0,7.3878497,0,1"
       radius="0"
       unit="px"
       method="auto"
       mode="F"
       chamfer_steps="1"
       flexible="false"
       use_knot_distance="true"
       apply_no_radius="true"
       apply_with_radius="true"
       only_selected="false"
       hide_knots="false" /><inkscape:path-effect
       effect="fillet_chamfer"
       id="path-effect19"
       is_visible="true"
       lpeversion="1"
       nodesatellites_param="F,0,0,1,0,0,0,1 @ F,0,0,1,0,0,0,1 @ F,0,0,1,0,0,0,1 @ F,0,0,1,0,0,0,1 @ F,0,0,1,0,4.7094606,0,1 @ F,0,0,1,0,5.6977763,0,1 @ F,0,0,1,0,3.1676459,0,1 @ F,0,0,1,0,0,0,1 @ F,0,0,1,0,13.323595,0,1"
       radius="0"
       unit="px"
       method="auto"
       mode="F"
       chamfer_steps="1"
       flexible="false"
       use_knot_distance="true"
       apply_no_radius="true"
       apply_with_radius="true"
       only_selected="false"
       hide_knots="false" /><inkscape:path-effect
       effect="fillet_chamfer"
       id="path-effect18"
       is_visible="true"
       lpeversion="1"
       nodesatellites_param="F,0,0,1,0,0,0,1 @ F,0,0,1,0,14.094689,0,1 @ F,0,0,1,0,10.401052,0,1 @ F,0,0,1,0,0,0,1 @ F,0,0,1,0,0,0,1 @ F,0,0,1,0,2.7314826,0,1"
       radius="0"
       unit="px"
       method="auto"
       mode="F"
       chamfer_steps="1"
       flexible="false"
       use_knot_distance="true"
       apply_no_radius="true"
       apply_with_radius="true"
       only_selected="false"
       hide_knots="false" /><inkscape:path-effect
       effect="fillet_chamfer"
       id="path-effect12"
       is_visible="true"
       lpeversion="1"
       nodesatellites_param="F,0,0,1,0,0,0,1 @ F,0,0,1,0,2.599254,0,1 @ F,0,0,1,0,0,0,1 @ F,0,0,1,0,0,0,1 @ F,0,0,1,0,0,0,1"
       radius="0"
       unit="px"
       method="auto"
       mode="F"
       chamfer_steps="1"
       flexible="false"
       use_knot_distance="true"
       apply_no_radius="true"
       apply_with_radius="true"
       only_selected="false"
       hide_knots="false" /></defs><sodipodi:namedview
     id="namedview1"
     pagecolor="#ffffff"
     bordercolor="#000000"
     borderopacity="0.25"
     inkscape:showpageshadow="2"
     inkscape:pageopacity="0.0"
     inkscape:pagecheckerboard="true"
     inkscape:deskcolor="#d1d1d1"
     showgrid="false"
     inkscape:zoom="2.5693346"
     inkscape:cx="53.710405"
     inkscape:cy="60.326904"
     inkscape:window-width="1302"
     inkscape:window-height="699"
     inkscape:window-x="0"
     inkscape:window-y="0"
     inkscape:window-maximized="1"
     inkscape:current-layer="g421" /><g
     inkscape:groupmode="layer"
     inkscape:label="Image"
     id="g1"><g
       id="g421"
       inkscape:label="tommy"
       transform="matrix(0.10354157,-0.05977975,0.05977975,0.10354157,-53.780652,234.77639)"><rect
         style="fill:#3b3b3b;fill-opacity:1;stroke:#333333;stroke-width:8;stroke-linecap:round;stroke-linejoin:round;stroke-miterlimit:0;stroke-dasharray:none;stroke-opacity:1"
         id="rect7-1"
         width="31.712044"
         height="204.93791"
         x="1656.8501"
         y="-887.7558"
         ry="3.970933"
         rx="3.970933" /><rect
         style="opacity:1;fill:#5c5c5c;fill-opacity:1;stroke:#424242;stroke-width:4;stroke-linecap:round;stroke-linejoin:round;stroke-miterlimit:0;stroke-dasharray:none;stroke-opacity:1"
         id="rect23"
         width="12.913024"
         height="25.546822"
         x="1624.248"
         y="-966.14905"
         ry="6.456512"
         rx="6.456512" /><path
         style="opacity:1;fill:#5c5c5c;fill-opacity:1;stroke:#424242;stroke-width:8;stroke-linecap:round;stroke-linejoin:round;stroke-miterlimit:0;stroke-dasharray:none;stroke-opacity:1"
         d="m 1327.7661,-944.0834 13.1228,-26.49605 66.203,-0.019 12.8087,27.76659 z"
         id="path22"
         sodipodi:nodetypes="ccccc" /><rect
         style="opacity:1;fill:#5c5c5c;fill-opacity:1;stroke:#424242;stroke-width:8;stroke-linecap:round;stroke-linejoin:round;stroke-miterlimit:0;stroke-dasharray:none;stroke-opacity:1"
         id="rect22"
         width="20.508116"
         height="35.987061"
         x="1310.9713"
         y="-947.93475"
         ry="0" /><path
         style="opacity:1;fill:#4f4f4f;fill-opacity:1;stroke:#383838;stroke-width:4;stroke-linecap:round;stroke-linejoin:round;stroke-miterlimit:0;stroke-dasharray:none;stroke-opacity:1"
         d="m 2074.4238,-934.84351 6.9589,-20.77173 8.6329,-0.15069 0.024,22.9026 z"
         id="path15" /><path
         style="opacity:1;fill:#575757;fill-opacity:1;stroke:#404040;stroke-width:8;stroke-linecap:round;stroke-linejoin:round;stroke-miterlimit:0;stroke-dasharray:none;stroke-opacity:1"
         d="m 1756.1446,-943.51641 202.1508,6.41634 132.1644,0.9064 -0.1422,14.86418 -131.9318,0.0988 -202.1669,4.98519 c -0.025,-9.09031 4.4968,15.49421 -0.074,-27.27094 z"
         id="path24"
         sodipodi:nodetypes="ccccccc" /><path
         style="opacity:1;fill:#525252;fill-opacity:1;stroke:#525252;stroke-width:4;stroke-linecap:round;stroke-linejoin:round;stroke-miterlimit:0;stroke-dasharray:none;stroke-opacity:1"
         d="m 1569.4997,-863.13446 c 2.8196,1.17398 5.3073,2.44907 6.9968,3.96738 1.0626,0.95504 1.4442,3.14819 1.3405,4.57954 -0.5963,8.22923 2.8353,13.30256 10.3321,17.87064 -6.0119,-7.06667 -8.0787,-12.08835 -6.6121,-20.22667 1.0928,-5.29827 9.5042,-12.1167 15.6841,-14.21448 z"
         id="path12"
         sodipodi:nodetypes="cccccc"
         inkscape:original-d="m 1569.4997,-863.13446 c 3.9749,1.65502 7.2903,3.51097 8.6393,5.96605 -1.5473,9.7847 1.7795,15.42409 10.0301,20.45151 -6.0119,-7.06667 -8.0787,-12.08835 -6.6121,-20.22667 1.0928,-5.29827 9.5042,-12.1167 15.6841,-14.21448 z"
         inkscape:path-effect="#path-effect12" /><path
         id="path3"
         style="opacity:1;fill:#5c5c5c;fill-opacity:1;stroke:#424242;stroke-width:8;stroke-linecap:round;stroke-linejoin:round;stroke-miterlimit:0;stroke-dasharray:none;stroke-opacity:1"
         d="m 1635.0666,-892.39626 -206.8443,2.12249 c 32.0388,0.52096 59.1484,0.91635 61.7919,24.29614 l 60.202,36.86798 c 27.5247,0.38657 59.503,-0.0172 85.2254,0.0415 z m -75.3776,43.04591 c 0.5777,-17.37281 14.4609,-20.93914 34.3486,-21.20517 14.072,0.1112 28.5431,2.19249 28.6009,19.68973 -0.4449,21.36387 -12.6225,20.95615 -27.455,21.12918 -19.3134,0.19275 -34.7451,-0.85358 -35.4945,-19.61374 z"
         sodipodi:nodetypes="ccccccccccc" /><path
         style="opacity:1;fill:#63372c;fill-opacity:1;stroke:#462720;stroke-width:8;stroke-linecap:round;stroke-linejoin:round;stroke-miterlimit:0;stroke-dasharray:none;stroke-opacity:1"
         d="m 1025.5681,-833.68573 5.8118,105.85708 c 0.609,11.09095 10.1787,20.47297 21.1476,18.82208 71.8104,-10.80799 153.0066,-85.40916 207.0715,-109.87913 9.5927,-4.3417 25.8486,-9.74012 35.9065,-12.89623 25.1151,-7.88091 58.7493,-14.55047 86.7484,-18.69762 10.4317,-1.54513 25.6311,-7.97626 32.3066,-16.1325 6.3036,-7.70188 11.0048,-17.6881 8.3616,-33.00733 -41.4069,-0.99852 -91.4548,-0.67473 -120.9291,3.27167 -6.9049,0.92451 -17.6557,4.32246 -24.2403,6.60371 -18.8367,6.52602 -23.1845,4.60901 -28.2142,-1.56859 -2.576,-3.16388 -7.7172,-5.01306 -11.6659,-3.98537 l -206.5741,53.76389 a 7.6750349,7.6750349 126.13453 0 0 -5.7304,7.84834 z"
         id="path1"
         sodipodi:nodetypes="cccccccc"
         inkscape:path-effect="#path-effect21"
         inkscape:original-d="m 1025.224,-839.95311 7.2585,132.2064 c 84.5273,2.72105 187.9179,-104.14342 245.0807,-117.52445 29.48,-12.68757 86.7602,-23.42082 123.6175,-27.73296 9.7791,-10.11965 26.1976,-20.78852 21.7414,-46.61526 -48.0175,-1.15794 -107.6554,-0.53764 -133.3539,5.44817 -35.7305,14.13621 -35.1081,8.87516 -44.5459,-2.98755 z" /><path
         style="opacity:1;fill:#63372c;fill-opacity:1;stroke:#462720;stroke-width:8;stroke-linecap:round;stroke-linejoin:round;stroke-miterlimit:0;stroke-dasharray:none;stroke-opacity:1"
         d="m 1489.7098,-870.02245 c 4.8594,21.70616 -21.2269,46.68977 -35.6017,65.63658 -4.6945,6.18756 -7.9753,18.30937 -6.443,25.92536 2.1224,10.54913 7.3633,17.38316 15.5221,24.02699 4.4531,3.62626 12.9189,7.12929 18.5439,8.29433 l 15.8101,3.27459 c 3.9864,-12.39387 -4.0748,-27.86253 19.4068,-36.35736 -0.1156,-27.98269 13.581,-38.24328 31.8374,-48.24942 1.3228,-0.72505 2.3099,-2.52216 2.1455,-4.02167 -3.4707,-31.65916 -22.3286,-38.13797 -61.2211,-38.5294 z"
         id="path2"
         sodipodi:nodetypes="ccccccc"
         inkscape:path-effect="#path-effect18"
         inkscape:original-d="m 1489.7098,-870.02245 c 5.9664,26.65092 -34.718,58.2426 -43.0981,77.53514 -0.5197,23.57739 8.1163,32.62604 24.9345,44.23863 l 25.995,5.38408 c 3.9864,-12.39387 -4.0748,-27.86253 19.4068,-36.35736 -0.1206,-29.19665 14.7954,-39.10019 34.2384,-49.55169 -2.6857,-34.01092 -21.495,-40.84641 -61.4766,-41.2488 z" /><rect
         style="opacity:1;fill:#5c5c5c;fill-opacity:1;stroke:#424242;stroke-width:8;stroke-linecap:round;stroke-linejoin:round;stroke-miterlimit:0;stroke-dasharray:none;stroke-opacity:1"
         id="rect5"
         width="114.31852"
         height="29.087866"
         x="1494.3342"
         y="-910.13147"
         ry="14.543933"
         rx="14.543933" /><circle
         style="opacity:1;fill:#5c5c5c;fill-opacity:1;stroke:#424242;stroke-width:3;stroke-linecap:round;stroke-linejoin:round;stroke-miterlimit:0;stroke-dasharray:none;stroke-opacity:1"
         id="path6-3"
         cx="1621.4037"
         cy="-874.30621"
         r="4.2751951" /><rect
         style="opacity:1;fill:#3b3b3b;fill-opacity:1;stroke:#333333;stroke-width:8;stroke-linecap:round;stroke-linejoin:round;stroke-miterlimit:0;stroke-dasharray:none;stroke-opacity:1"
         id="rect7"
         width="41.611374"
         height="268.91196"
         x="1639.4364"
         y="-920.28412"
         ry="5.2105117"
         rx="5.2105117" /><path
         style="opacity:1;fill:#63372c;fill-opacity:1;stroke:#462720;stroke-width:8;stroke-linecap:round;stroke-linejoin:round;stroke-miterlimit:0;stroke-dasharray:none;stroke-opacity:1"
         d="m 1762.1006,-866.11141 -10e-5,-26.76534 57.0542,0.009 118.5879,-0.009 c -4.5687,13.47492 -20.6383,27.71539 -12.6926,44.61963 1.1051,2.35113 0.2595,3.83113 -2.3402,3.77793 -20.1903,-0.41313 -30.25,10.79328 -28.8926,23.82199 0.3253,3.12317 -1.3064,5.1559 -4.4427,5.34998 -12.8552,0.79552 -21.3983,10.37441 -18.3577,25.45991 0.3455,1.71444 -0.6369,2.79206 -2.3824,2.69352 -15.915,-0.89845 -25.8087,14.62903 -15.7003,34.44856 -33.8579,-5.07194 -51.5781,-33.34197 -48.2178,-53.51187 1.1939,-7.16585 10.0321,-15.81372 15.3543,-20.89385 56.3173,-53.75561 29.7513,-84.35792 -57.97,-39.00046 z"
         id="path1-8"
         sodipodi:nodetypes="cccccccccc"
         inkscape:original-d="m 1762.1006,-866.11141 -10e-5,-26.76534 57.0542,0.009 118.5879,-0.009 c -4.9307,14.54269 -23.2573,29.97707 -10.3337,48.6893 -26.3563,-2.67937 -37.9076,12.86615 -32.3483,29.07822 -16.8202,-2.11529 -28.8502,9.25363 -23.2836,28.33601 -17.7019,-3.2591 -29.6016,12.97342 -18.8429,34.06799 -41.4268,-6.20576 -58.6943,-47.14068 -42.7485,-65.47466 68.901,-59.1484 44.3881,-95.74594 -48.085,-47.93152 z"
         inkscape:path-effect="#path-effect19" /><path
         style="opacity:1;fill:#5c5c5c;fill-opacity:1;stroke:#424242;stroke-width:8;stroke-linecap:round;stroke-linejoin:round;stroke-miterlimit:0;stroke-dasharray:none;stroke-opacity:1"
         d="m 1322.1359,-944.8894 434.2821,0.31551 0.4115,46.0312 -56.2584,-3.6027 -0.6353,-17.85951 -67.7534,0.99882 -0.6224,21.35525 -309.2667,-0.52368 z"
         id="path23"
         sodipodi:nodetypes="ccccccccc" /><rect
         style="opacity:1;fill:#63372c;fill-opacity:1;stroke:#462720;stroke-width:7.99301;stroke-linecap:round;stroke-linejoin:round;stroke-miterlimit:0;stroke-dasharray:none;stroke-opacity:1"
         id="rect24"
         width="175.76782"
         height="14.023017"
         x="1762.0603"
         y="-908.04303" /><rect
         style="opacity:1;fill:#5c5d5b;fill-opacity:1;stroke:#424342;stroke-width:4;stroke-linecap:round;stroke-linejoin:round;stroke-miterlimit:0;stroke-dasharray:none;stroke-opacity:1"
         id="rect25"
         width="63.261219"
         height="10.598489"
         x="1657.3804"
         y="-943.65784"
         ry="5.2992444"
         rx="5.2992444" /></g></g></svg>
