<?xml version="1.0" encoding="UTF-8" standalone="no"?>
<!-- Created with Inkscape (http://www.inkscape.org/) -->

<svg
   width="110"
   height="110"
   viewBox="0 0 110 110"
   version="1.1"
   id="svg1"
   xml:space="preserve"
   inkscape:version="1.3.2 (091e20ef0f, 2023-11-25, custom)"
   sodipodi:docname="vector.svg"
   xmlns:inkscape="http://www.inkscape.org/namespaces/inkscape"
   xmlns:sodipodi="http://sodipodi.sourceforge.net/DTD/sodipodi-0.dtd"
   xmlns="http://www.w3.org/2000/svg"
   xmlns:svg="http://www.w3.org/2000/svg"><sodipodi:namedview
     id="namedview1"
     pagecolor="#ffffff"
     bordercolor="#000000"
     borderopacity="0.25"
     inkscape:showpageshadow="2"
     inkscape:pageopacity="0.0"
     inkscape:pagecheckerboard="0"
     inkscape:deskcolor="#d1d1d1"
     inkscape:document-units="px"
     inkscape:zoom="3.358777"
     inkscape:cx="44.361385"
     inkscape:cy="37.662518"
     inkscape:window-width="1920"
     inkscape:window-height="1011"
     inkscape:window-x="0"
     inkscape:window-y="32"
     inkscape:window-maximized="1"
     inkscape:current-layer="layer1" /><defs
     id="defs1"><inkscape:path-effect
       effect="fillet_chamfer"
       id="path-effect50"
       is_visible="true"
       lpeversion="1"
       nodesatellites_param="C,0,0,1,0,0,0,1 @ C,0,0,1,0,0,0,1 @ C,0,0,1,0,7.8370248,0,1 @ C,0,0,1,0,0,0,1 @ C,0,0,1,0,0,0,1 @ C,0,0,1,0,0,0,1 @ C,0,0,1,0,0,0,1 @ C,0,0,1,0,0,0,1 @ C,0,0,1,0,0,0,1 @ C,0,0,1,0,0,0,1 @ C,0,0,1,0,0,0,1 | C,0,0,1,0,0,0,1 @ C,0,0,1,0,0,0,1 @ C,0,0,1,0,0,0,1 @ C,0,0,1,0,0,0,1"
       radius="0"
       unit="px"
       method="auto"
       mode="C"
       chamfer_steps="1"
       flexible="false"
       use_knot_distance="true"
       apply_no_radius="true"
       apply_with_radius="true"
       only_selected="false"
       hide_knots="false" /><style
       id="style1">
      .cls-1 {
        fill: #171717;
      }

      .cls-2 {
        fill: #1a1a1a;
      }

      .cls-3 {
        fill: #505050;
        stroke-width: 1.5px;
      }

      .cls-3, .cls-4, .cls-5, .cls-6, .cls-7 {
        stroke-linecap: round;
        stroke-linejoin: round;
      }

      .cls-3, .cls-4, .cls-5, .cls-7 {
        stroke: #171717;
      }

      .cls-4 {
        fill: #3c3c3c;
      }

      .cls-4, .cls-5, .cls-6, .cls-7 {
        stroke-width: 3px;
      }

      .cls-5 {
        fill: #434343;
      }

      .cls-6 {
        fill: #7d521b;
        stroke: #261a08;
      }

      .cls-7 {
        fill: none;
      }
    </style><inkscape:path-effect
       effect="fillet_chamfer"
       id="path-effect5681"
       is_visible="true"
       lpeversion="1"
       nodesatellites_param="F,0,0,1,0,0.13022528,0,1 @ F,0,0,1,0,0.40340994,0,1 @ F,0,0,1,0,0.40340994,0,1 @ F,0,1,1,0,0.13022528,0,1"
       unit="px"
       method="auto"
       mode="F"
       radius="0"
       chamfer_steps="1"
       flexible="false"
       use_knot_distance="true"
       apply_no_radius="true"
       apply_with_radius="true"
       only_selected="false"
       hide_knots="false" /><inkscape:path-effect
       effect="fillet_chamfer"
       id="path-effect5679"
       is_visible="true"
       lpeversion="1"
       nodesatellites_param="F,0,0,1,0,0,0,1 @ F,0,0,1,0,0,0,1 @ F,0,0,1,0,0,0,1 @ F,0,0,1,0,0.30813358,0,1 @ F,0,1,1,0,0.30813358,0,1 @ F,0,0,1,0,0,0,1"
       unit="px"
       method="auto"
       mode="F"
       radius="0"
       chamfer_steps="1"
       flexible="false"
       use_knot_distance="true"
       apply_no_radius="true"
       apply_with_radius="true"
       only_selected="false"
       hide_knots="false" /><inkscape:path-effect
       effect="fillet_chamfer"
       id="path-effect5009"
       is_visible="true"
       lpeversion="1"
       nodesatellites_param="F,0,1,1,0,0.2234803,0,1 @ F,0,0,1,0,0.2234803,0,1 @ F,0,0,1,0,0,0,1 @ F,0,0,1,0,0,0,1"
       unit="px"
       method="auto"
       mode="F"
       radius="0"
       chamfer_steps="1"
       flexible="false"
       use_knot_distance="true"
       apply_no_radius="true"
       apply_with_radius="true"
       only_selected="false"
       hide_knots="false" /><inkscape:path-effect
       effect="fillet_chamfer"
       id="path-effect3009"
       is_visible="true"
       lpeversion="1"
       nodesatellites_param="F,0,0,1,0,0,0,1 @ F,0,1,1,0,0.012714645,0,1 @ F,0,0,1,0,0.032170229,0,1 @ F,0,0,1,0,0.032170229,0,1 @ F,0,0,1,0,0.012714645,0,1 @ F,0,0,1,0,0,0,1 @ F,0,0,1,0,0,0,1 @ F,0,0,1,0,0,0,1 @ F,0,0,1,0,0,0,1"
       unit="px"
       method="auto"
       mode="F"
       radius="0"
       chamfer_steps="1"
       flexible="false"
       use_knot_distance="true"
       apply_no_radius="true"
       apply_with_radius="true"
       only_selected="false"
       hide_knots="false" /><clipPath
       id="clip0_619_1149"><rect
         width="110"
         height="110"
         fill="#ffffff"
         transform="translate(0.0859375)"
         id="rect82"
         x="0"
         y="0" /></clipPath></defs><g
     inkscape:label="Layer 1"
     inkscape:groupmode="layer"
     id="layer1"
     transform="translate(-119.81975,-78.137958)"><g
       id="g2"
       inkscape:label="vector"
       transform="matrix(0.65207107,-0.37647341,0.37647341,0.65207107,-30.797956,-99.963241)"><path
         id="path26-9"
         style="opacity:1;fill:#3a3a36;fill-opacity:1;stroke:#353431;stroke-width:2.11667;stroke-linejoin:round;stroke-miterlimit:5;stroke-dasharray:none;stroke-opacity:1"
         d="m 11.213269,393.47784 -3.8049357,0.0346 -3.1419271,1.28984 -0.096118,2.21331 c 0.3081058,0.16145 0.5011843,0.48053 0.5012614,0.82837 -9.056e-4,0.29295 -0.1389954,0.56856 -0.3731039,0.74466 0.02293,0.26686 0.021345,0.21577 0.048576,0.55707 0.4449373,0.0805 0.768623,0.46768 0.7689453,0.91984 -8.215e-4,0.40098 -0.2571159,0.75684 -0.6371704,0.8847 0.012914,0.19048 0.025326,0.34634 0.038241,0.54777 0.4740657,0.0522 0.8329427,0.45273 0.8330241,0.92966 -0.00114,0.43544 -0.3025816,0.81251 -0.7270874,0.9095 0.00928,0.17759 0.020012,0.31884 0.028939,0.50178 0.4661076,0.0605 0.8149078,0.45757 0.8149374,0.92759 -0.00144,0.43897 -0.3079313,0.81789 -0.736906,0.91106 0.00532,0.14543 0.012088,0.27965 0.017053,0.42736 0.4754994,0.0505 0.8363598,0.45149 0.8366414,0.92966 -2.69e-4,0.46013 -0.3351158,0.85173 -0.7896159,0.92346 0.00444,0.21466 0.012033,0.41668 0.015503,0.63459 0.4473737,0.0783 0.7738427,0.46669 0.7741129,0.92087 -0.00108,0.4474 -0.3188074,0.8314 -0.7580933,0.91622 2.714e-4,0.16173 0.00451,0.31462 0.00413,0.47749 0.4491984,0.0768 0.7776609,0.46619 0.7777303,0.92191 -3.499e-4,0.46304 -0.3394023,0.85614 -0.7973674,0.92449 -0.00409,0.22303 -0.00586,0.44403 -0.011369,0.66818 0.4053212,0.11202 0.686081,0.48073 0.686263,0.90124 -0.00108,0.44343 -0.3133406,0.82518 -0.747758,0.91415 -0.00678,0.15836 -0.010493,0.31593 -0.018087,0.47439 0.3455121,0.14664 0.5699215,0.48559 0.569991,0.86093 7.36e-5,0.41575 -0.2742502,0.78165 -0.6733439,0.89814 -0.010768,0.15708 -0.017768,0.31503 -0.029455,0.4718 0.3381589,0.15005 0.5561185,0.4853 0.5560384,0.85525 -9.719e-4,0.42922 -0.2939205,0.8027 -0.710551,0.90589 -0.026214,0.26403 -0.047238,0.53138 -0.076481,0.79323 0.2339589,0.17676 0.3715004,0.45299 0.3715536,0.74621 -5.565e-4,0.37081 -0.2200854,0.70628 -0.5596558,0.85524 v 1.5105 l 2.8442708,1.12448 h 3.5057292 l 1.872237,-0.91984 v -29.07729 z"
         sodipodi:nodetypes="ccccccccccccccccccccccccccccsccccccccccccc" /><path
         id="path28-1"
         style="opacity:1;fill:#42423e;fill-opacity:1;stroke:#32322f;stroke-width:2.11667;stroke-linejoin:round;stroke-miterlimit:5;stroke-dasharray:none;stroke-opacity:1"
         d="m 58.693575,383.23605 c -0.982215,0 -1.652096,0.31779 -1.652096,0.31779 l -3.399275,0.91054 H 27.87065 c -1.683796,0 -2.94659,2.66599 -2.94659,2.66599 l -3.244763,7.58661 h -9.326563 l -0.0124,7.1236 h 6.059062 c 0,0 1.473466,0.37424 1.075903,1.91771 -0.397563,1.5435 -3.134176,9.26093 -3.134176,9.26093 h -4.019909 l -0.01809,10.52081 h 6.11849 l 3.175,-2.41432 c 0,0 7.805208,-22.39037 8.830468,-25.36693 0.800204,-2.32322 4.038514,-2.41846 4.038514,-2.41846 H 58.43537 c 1.697777,-1.69778 5.091142,-1.00459 5.091142,-1.00459 l -0.004,-5.83737 1.450863,-3.26231 z"
         sodipodi:nodetypes="sccscccccscccccscccccs" /><path
         id="rect257"
         style="opacity:1;fill:#3a3a36;fill-opacity:1;stroke:none;stroke-width:0.833193;stroke-linecap:square;stroke-linejoin:round;stroke-miterlimit:5;stroke-dasharray:none;stroke-opacity:1"
         d="m 13.377478,414.49103 v 4.07675 h 7.99021 l 1.420585,-4.07675 z" /><path
         style="fill:#3e3e41;fill-opacity:1;stroke:#323234;stroke-width:2.11667;stroke-linejoin:round;stroke-miterlimit:5;stroke-dasharray:none;stroke-opacity:1"
         d="m 91.876561,449.70334 9.613529,-25.31719 11.10839,0.79624 -10.17294,27.33831 z"
         id="path36"
         sodipodi:nodetypes="ccccc" /><path
         style="opacity:1;fill:#3a3a36;fill-opacity:1;stroke:#353531;stroke-width:1.05833;stroke-linejoin:round;stroke-miterlimit:5;stroke-dasharray:none;stroke-opacity:1"
         d="m 82.881911,393.53929 c -1.59068,3.21594 -0.58786,5.96505 -0.5187,6.44917 0.06916,0.48412 -0.24206,0.27664 -0.24206,0.27664 l -1.106561,-0.93365 c 0.03458,-4.08046 -2.04022,-5.87862 -2.04022,-5.87862 z"
         id="path241"
         sodipodi:nodetypes="cccscc" /><path
         style="fill:#2a2a2c;fill-opacity:1;stroke:#2a2a2c;stroke-width:0.528;stroke-linejoin:round;stroke-miterlimit:5;stroke-dasharray:none;stroke-opacity:1"
         d="m 110.2651,425.99911 c -0.86801,-3.40878 -5.49221,-2.56834 -6.33116,0 z"
         id="path34"
         sodipodi:nodetypes="cc" /><path
         id="path256"
         style="opacity:1;fill:#42423d;fill-opacity:1;stroke:#353531;stroke-width:1.058;stroke-linejoin:round;stroke-miterlimit:5;stroke-dasharray:none;stroke-opacity:1"
         d="m 128.58333,402.45739 h 19.67558 l -0.002,0.80926 v 0.59117 h -2.56625 v -0.59117 h -1.5875 v 0.59117 h -0.84646 v -0.59117 h -1.58749 v 0.59117 h -0.87334 v -0.59117 h -1.5875 v 0.59117 h -0.87333 v -0.59117 h -1.5875 v 0.59117 h -0.84646 v -0.59117 h -1.5875 v 0.59117 h -0.89968 v -0.59117 h -1.5875 v 0.59117 h -0.82011 v -0.59117 h -1.5875 v 0.59117 h -0.84646 v -0.59117 z"
         sodipodi:nodetypes="ccccccccccccccccccccccccccccccccccc" /><rect
         style="opacity:1;fill:#444441;fill-opacity:1;stroke:#373735;stroke-width:2.11667;stroke-linecap:square;stroke-linejoin:round;stroke-miterlimit:5;stroke-dasharray:none;stroke-opacity:1"
         id="rect23"
         width="5.1036224"
         height="3.5756633"
         x="148.63606"
         y="396.31351" /><path
         id="rect24"
         style="opacity:1;fill:#444441;fill-opacity:1;stroke:#373735;stroke-width:2.11667;stroke-linecap:square;stroke-linejoin:round;stroke-miterlimit:5;stroke-dasharray:none;stroke-opacity:1"
         d="m 152.20156,395.69527 v 4.87826 h 14.98203 v -1.13585 h -0.20153 c -0.19969,0 -0.36019,-0.1605 -0.36019,-0.36018 0,-0.19969 0.1605,-0.36071 0.36019,-0.36071 h 0.20153 v -1.16168 h -0.17828 c -0.19969,0 -0.36018,-0.1605 -0.36018,-0.36019 0,-0.19969 0.16049,-0.3607 0.36018,-0.3607 h 0.17828 v -1.13895 z" /><path
         style="fill:#505049;fill-opacity:1;fill-rule:evenodd;stroke:#353531;stroke-width:2.11667;stroke-linecap:round;stroke-linejoin:round;stroke-dasharray:none;stroke-opacity:1"
         d="m 131.739,409.64006 c 0.25406,-1.74408 -0.73771,-3.30268 -2.47524,-3.55752 l -8.6e-4,-2.23761 c 2.48607,0 14.34534,-0.0187 17.90585,-0.0187 l 0.009,6.07963 -1.2029,-0.008 -0.463,-0.87325 c -1.38034,-2.42523 -3.84388,-2.35675 -3.84388,-2.35675 -2.63791,0 -3.91442,1.26428 -3.75097,3.11793 0,0 0.94422,6.22263 0.191,14.34456 -1.28734,0.34494 -5.1695,0.36375 -6.527,10e-6 -0.92605,-8.10286 0.158,-14.4903 0.158,-14.4903 z"
         id="path4"
         sodipodi:nodetypes="cccccccscccc" /><rect
         style="fill:#454540;fill-opacity:1;stroke:#353531;stroke-width:1.058;stroke-linecap:square;stroke-linejoin:round;stroke-miterlimit:5;stroke-dasharray:none;stroke-opacity:1"
         id="rect25"
         width="2.7450562"
         height="15.296243"
         x="133.44922"
         y="408.9906" /><path
         style="opacity:1;fill:#b29c71;fill-opacity:1;stroke:#7b6942;stroke-width:2.11667;stroke-linejoin:round;stroke-miterlimit:5;stroke-dasharray:none;stroke-opacity:1"
         d="m 148.09856,392.45357 v 9.29404 h -20.9332 v 2.24896 h -2.33595 c 0,0 -2.66602,-0.16568 -3.92887,2.64065 -1.26285,2.80633 -8.04481,17.35248 -8.04481,17.35248 l -0.14032,1.21407 h -2.41156 c -1.729,-2.52434 -5.187,-1.97106 -6.3973,0 H 83.529582 L 94.930641,393.1281 h 40.785329 l 2.81096,-1.37607 h 9.16237 z"
         id="path32"
         sodipodi:nodetypes="cccccscccccccccc" /><path
         id="path30-2"
         style="opacity:1;fill:#3d3d39;fill-opacity:1;stroke:#353531;stroke-width:2.11667;stroke-linejoin:round;stroke-miterlimit:5;stroke-dasharray:none;stroke-opacity:1"
         d="m 63.417318,392.32494 c 5.846509,1.66039 2.478918,6.64145 2.478918,6.64145 -6.54809,9.96247 -6.922058,17.58652 -6.922058,17.58652 l 22.252905,8.6434 h 4.365625 c 0,0 8.301299,-22.55573 10.021094,-27.11979 1.553249,-4.12207 5.689058,-3.92844 5.689058,-3.92844 h 35.22627 l 2.47634,-1.42937 h 9.09505 v -6.35 c 0,-1.47175 -0.39687,-1.36146 -0.39687,-1.36146 l -84.274447,-5.1e-4 z m 15.59388,1.17098 H 88.9 c 0,0 3.009633,0.62839 2.414323,3.47266 l -1.471745,3.95221 -1.162253,1.7155 -5.476582,0.1729 -4.894791,-1.9017 c 0,0 -1.100227,-1.67341 -0.620671,-3.3436 z m -0.229682,7.77884 4.22849,1.60888 h 5.390886 c 0.843358,0 0.251061,1.72478 0.251061,1.72478 l -3.532084,10.12032 c 0,0 -5.659535,6.43159 -6.314343,6.99285 -0.654812,0.56117 -2.15129,1.09918 -2.15129,1.09918 0,0 -4.747422,-1.84792 -5.828068,-2.26757 -1.401632,-0.5443 -0.859708,-2.30735 -0.859708,-2.30735 l 6.086441,-16.04881 c 0.20796,-0.53883 1.023762,-1.57739 2.728615,-0.92228 z"
         sodipodi:nodetypes="cccccsccccsccccccccccccccsccccsccc" /><path
         style="opacity:1;fill:#4a4a45;fill-opacity:1;stroke:none;stroke-width:1.05833;stroke-linejoin:round;stroke-miterlimit:5;stroke-dasharray:none;stroke-opacity:1"
         d="m 78.985175,392.43708 h -6.442686 c 0,0 -2.178539,0.0756 -8.074432,-0.87529 v -7.57302 h 82.339313 c 0,0 0.25071,1.49559 0.23342,2.36873 -0.0173,0.87315 0,5.30184 0,5.30184 h -8.02292 c 0,0 -0.27285,-0.0196 -0.57464,0.15813 -0.30179,0.17777 -2.19728,1.27124 -2.19728,1.27124 H 101.4181 c 0,0 -5.034988,-0.1533 -6.772097,4.57883 -1.67845,4.57233 -9.791234,26.47044 -9.791234,26.47044 h -3.428215 l -2.750219,-1.06867 c 0,0 0.687144,-0.26176 2.038118,-1.81694 l 5.194664,-5.80444 c 0,0 0.14324,-0.17832 0.220707,-0.40049 0.07747,-0.22217 3.56806,-10.23231 3.56806,-10.23231 0,0 0.315491,-1.36719 0.128402,-1.98399 l 0.90306,-1.33364 c 0,0 0.10542,-0.17156 0.258382,-0.60978 l 1.332218,-3.58738 c 0,0 1.113644,-3.84118 -3.388177,-4.88186 z"
         id="path255"
         sodipodi:nodetypes="cccccsccsccscccccsccccccc" /><path
         style="fill:#2d2d2f;fill-opacity:1;stroke:#323234;stroke-width:2.11667;stroke-linejoin:round;stroke-miterlimit:5;stroke-dasharray:none;stroke-opacity:1"
         d="m 92.275979,449.15311 -0.888672,0.30404 -0.304019,0.86526 11.459182,3.06359 0.47741,-1.35523 z"
         id="path38"
         sodipodi:nodetypes="cccccc" /><path
         style="fill:#444540;fill-opacity:1;stroke:#3a3a36;stroke-width:1.05833;stroke-linejoin:round;stroke-miterlimit:5;stroke-dasharray:none;stroke-opacity:1"
         d="m 71.778076,389.37829 v 0.72439 h 4.712295 c 1.064151,0 1.549329,-1.04107 1.549329,-1.60723 0,-0.80202 -0.645756,-1.65454 -1.720713,-1.65454 -0.870939,-0.0137 -1.292922,0.61211 -1.733671,1.03912 0,0 -1.181907,1.47487 -2.80724,1.49826 z"
         id="path40"
         sodipodi:nodetypes="ccccccc" /><circle
         style="fill:#343531;fill-opacity:1;stroke:#3c3d38;stroke-width:1.05833;stroke-linejoin:round;stroke-miterlimit:5;stroke-dasharray:none;stroke-opacity:1"
         id="path48-7"
         cx="94.05938"
         cy="389.87445"
         r="1.6205729" /><path
         style="fill:#444540;fill-opacity:1;stroke:#3a3a36;stroke-width:1.05833;stroke-linejoin:round;stroke-miterlimit:5;stroke-dasharray:none;stroke-opacity:1"
         d="m 100.05542,388.58454 v 0.72439 h 4.71229 c 1.06415,0 1.54933,-1.04107 1.54933,-1.60723 0,-0.80202 -0.64576,-1.65454 -1.72071,-1.65454 -0.87094,-0.0137 -1.29292,0.61211 -1.73367,1.03912 0,0 -1.18191,1.47487 -2.80724,1.49826 z"
         id="path50"
         sodipodi:nodetypes="ccccccc" /><circle
         style="fill:#343531;fill-opacity:1;stroke:#3c3d38;stroke-width:1.05833;stroke-linejoin:round;stroke-miterlimit:5;stroke-dasharray:none;stroke-opacity:1"
         id="circle51"
         cx="130.43959"
         cy="389.87445"
         r="1.6205729" /><circle
         style="fill:#373739;fill-opacity:1;stroke:#957d50;stroke-width:1.05833;stroke-linejoin:round;stroke-miterlimit:5;stroke-dasharray:none;stroke-opacity:1"
         id="circle52"
         cx="97.520523"
         cy="423.08267"
         r="1.6205729" /><circle
         style="fill:#343531;fill-opacity:1;stroke:#3c3d38;stroke-width:1.05833;stroke-linejoin:round;stroke-miterlimit:5;stroke-dasharray:none;stroke-opacity:1"
         id="circle53"
         cx="82.179253"
         cy="422.61496"
         r="1.1528512" /><circle
         style="fill:#373739;fill-opacity:1;stroke:#957d50;stroke-width:1.05833;stroke-linejoin:round;stroke-miterlimit:5;stroke-dasharray:none;stroke-opacity:1"
         id="circle54"
         cx="102.38483"
         cy="419.99573"
         r="1.1528512" /><circle
         style="fill:#373739;fill-opacity:1;stroke:#957d50;stroke-width:1.05833;stroke-linejoin:round;stroke-miterlimit:5;stroke-dasharray:none;stroke-opacity:1"
         id="circle55"
         cx="106.96851"
         cy="407.36725"
         r="1.1528512" /><rect
         style="opacity:1;fill:#907857;fill-opacity:1;stroke:#80694c;stroke-width:1.05833;stroke-linejoin:round;stroke-miterlimit:5;stroke-dasharray:none;stroke-opacity:1"
         id="rect55"
         width="3.934813"
         height="17.362629"
         x="250.94319"
         y="335.07803"
         ry="1.9674065"
         transform="rotate(21.179007)" /><rect
         style="fill:#c4b492;fill-opacity:1;stroke:none;stroke-width:1.05833;stroke-linejoin:round;stroke-miterlimit:5;stroke-dasharray:none;stroke-opacity:1"
         id="rect56"
         width="2.6660137"
         height="2.8531022"
         x="109.16074"
         y="399.83188"
         ry="0.49609375" /><rect
         style="opacity:1;fill:#3a3a36;fill-opacity:1;stroke:none;stroke-width:0.660133;stroke-linejoin:round;stroke-miterlimit:5;stroke-dasharray:none;stroke-opacity:1"
         id="rect57"
         width="2.3643091"
         height="10.432674"
         x="232.50153"
         y="351.7901"
         ry="1.1821545"
         transform="rotate(20.798992)" /><rect
         style="fill:#2c2c2a;fill-opacity:1;stroke:#353531;stroke-width:1.05833;stroke-linejoin:round;stroke-miterlimit:5;stroke-dasharray:none;stroke-opacity:1"
         id="rect58"
         width="9.7565212"
         height="9.5250263"
         x="113.63854"
         y="385.83954" /><path
         style="fill:#353531;fill-opacity:1;stroke:none;stroke-width:0.264583;stroke-linejoin:round;stroke-miterlimit:5;stroke-dasharray:none;stroke-opacity:1"
         d="m 22.985677,402.97131 -3.406511,9.75651 c 0,0 -0.595312,1.38906 0.512631,1.38906 1.107942,0 1.852083,0 1.852083,0 0,0 0.56224,-0.0331 0.975651,-1.33945 0.413411,-1.30638 3.290755,-9.55807 3.290755,-9.55807 0,0 0.529167,-1.55443 -0.165364,-1.55443 -0.694532,0 -1.86862,0 -1.86862,0 0,0 -0.711068,-0.0661 -1.190625,1.30638 z"
         id="path60" /><path
         style="fill:#353531;fill-opacity:1;stroke:none;stroke-width:0.264583;stroke-linejoin:round;stroke-miterlimit:5;stroke-dasharray:none;stroke-opacity:1"
         d="m 27.384375,389.37834 -1.5875,4.06797 c 0,0 -0.429948,1.12448 0.496093,1.12448 h 2.877344 c 0,0 1.355554,-2.77812 5.126302,-2.77812 h 5.78776 l 1.422136,-1.95131 c 0,0 0.859896,-1.12448 -0.297656,-1.12448 H 29.83177 c 0,0 -2.172718,-0.0802 -2.447395,0.66146 z"
         id="path62"
         sodipodi:nodetypes="ccscsccscc" /><path
         style="fill:#353531;fill-opacity:1;stroke:none;stroke-width:0.264583;stroke-linejoin:round;stroke-miterlimit:5;stroke-dasharray:none;stroke-opacity:1"
         d="m 45.094554,388.74686 -1.508403,2.11644 c 0,0 -0.760047,0.95884 0.304019,0.95884 h 4.232884 c 0,0 0.491106,0.0935 1.04068,-0.72498 0.549571,-0.81852 1.037944,-1.60195 1.037944,-1.60195 0,0 0.653636,-1.05235 0.185569,-1.05235 h -4.310478 c 0,0 -0.724966,-0.0468 -0.982215,0.304 z"
         id="path64"
         sodipodi:nodetypes="ccscscscc" /><path
         style="fill:#42423d;fill-opacity:1;stroke:#383833;stroke-width:1.05833;stroke-linejoin:round;stroke-miterlimit:5;stroke-dasharray:none;stroke-opacity:1"
         d="m 68.907004,399.69197 c -1.003169,1.31378 -5.734465,7.64802 -6.508444,13.94888 0,0 -0.13229,0.76069 0.793751,1.09142 0.926042,0.33072 3.873933,1.48249 3.873933,1.48249 0,0 0.826823,0.0661 0.992188,-0.52917 0.165365,-0.59531 5.032714,-13.77261 5.032714,-13.77261 0,0 0.429948,-0.76067 0,-0.99218 -0.344714,-0.18561 -2.730361,-0.98777 -3.662691,-1.29852 -0.173817,-0.0384 -0.347634,-0.14222 -0.521451,0.0697 z"
         id="path66"
         sodipodi:nodetypes="ccscscsccc" /><path
         style="opacity:1;fill:#41413e;fill-opacity:1;stroke:#3a3a36;stroke-width:1.05833;stroke-linejoin:round;stroke-miterlimit:5;stroke-dasharray:none;stroke-opacity:1"
         d="m 61.133812,417.96272 5.628444,2.18768 c 0,0 0.597585,-1.05068 0.04743,-1.28296 -0.550164,-0.23231 -4.590819,-1.79722 -4.590819,-1.79722 -1.002522,-0.40345 -1.085046,0.8925 -1.085046,0.8925 z"
         id="path253"
         sodipodi:nodetypes="ccsccc" /><path
         style="opacity:1;fill:#6c6c60;fill-opacity:1;stroke:#3a3a36;stroke-width:1.05833;stroke-linejoin:round;stroke-miterlimit:5;stroke-dasharray:none;stroke-opacity:1"
         d="m 63.374652,417.03402 2.499822,0.97641 c 0,0 0.266716,-0.46894 0.02117,-0.57261 -0.24555,-0.10369 -2.048985,-0.80214 -2.048985,-0.80214 0,0 -0.242822,-0.15278 -0.472002,0.39834 z"
         id="path254"
         sodipodi:nodetypes="ccscsc" /><path
         id="rect21"
         style="opacity:1;fill:#42423d;fill-opacity:1;stroke:#353531;stroke-width:1.05833;stroke-linejoin:miter;stroke-miterlimit:5;stroke-dasharray:none;stroke-opacity:1"
         d="m 64.462215,382.70589 v 1.40043 h 82.640435 v -1.40043 h -9.21701 v 0.59117 h -1.5875 v -0.59117 h -0.9524 v 0.59117 h -1.5875 v -0.59117 h -0.84646 v 0.59117 h -1.5875 v -0.59117 h -0.84697 v 0.59117 h -1.5875 v -0.59117 h -0.87282 v 0.59117 h -1.5875 v -0.59117 h -0.84697 v 0.59117 h -1.5875 v -0.59117 h -0.84646 v 0.59117 h -1.5875 v -0.59117 h -0.87334 v 0.59117 h -1.5875 v -0.59117 h -0.87281 v 0.59117 h -1.5875 v -0.59117 h -0.84698 v 0.59117 h -1.5875 v -0.59117 h -0.84646 v 0.59117 h -1.5875 v -0.59117 h -0.87333 v 0.59117 h -1.5875 v -0.59117 h -0.89969 v 0.59117 h -1.5875 v -0.59117 h -0.84646 v 0.59117 h -1.5875 v -0.59117 h -0.84646 v 0.59117 h -1.5875 v -0.59117 h -0.87333 v 0.59117 h -1.587498 v -0.59117 H 98.62137 v 0.59117 h -1.5875 v -0.59117 h -0.84646 v 0.59117 h -1.5875 v -0.59117 h -0.899686 v 0.59117 h -1.5875 v -0.59117 h -0.820105 v 0.59117 h -1.5875 v -0.59117 h -0.84646 v 0.59117 h -1.5875 v -0.59117 h -8.228955 v 0.59117 h -1.5875 v -0.59117 h -0.872815 v 0.59117 h -1.5875 v -0.59117 z"
         sodipodi:nodetypes="ccccccccccccccccccccccccccccccccccccccccccccccccccccccccccccccccccccccccccccccccccccccccccccccccc" /><path
         style="opacity:1;fill:#353531;fill-opacity:1;stroke:#353531;stroke-width:1.5875;stroke-linecap:square;stroke-linejoin:miter;stroke-miterlimit:5;stroke-dasharray:none;stroke-opacity:1"
         d="m 148.2578,387.73106 c 0,0 0.4459,-4.7596 -0.49936,-4.7596"
         id="path44"
         sodipodi:nodetypes="cc" /><path
         style="opacity:1;fill:#42423d;fill-opacity:1;stroke:#353531;stroke-width:1.05833;stroke-linecap:square;stroke-linejoin:round;stroke-miterlimit:5;stroke-dasharray:none;stroke-opacity:1"
         d="m 79.705958,380.63191 v -6.24409 h 2.326916 v 6.29084 h -2.33861 z"
         id="path233" /><path
         style="opacity:1;fill:#42423d;fill-opacity:1;stroke:#353531;stroke-width:1.05833;stroke-linecap:square;stroke-linejoin:round;stroke-miterlimit:5;stroke-dasharray:none;stroke-opacity:1"
         d="m 79.209634,381.70543 v 2.26549 h 6.91224 v -0.76068 c 0,0 0.07593,-0.46643 -0.198517,-0.74088 -0.274444,-0.27443 -1.455129,-1.30964 -1.455129,-1.30964 0,0 -0.677995,-0.61185 -1.752864,-0.64492 -1.07487,-0.0331 -2.579688,0 -2.579688,0 0,0 -0.926042,-0.0496 -0.926042,1.19063 z"
         id="path231" /><path
         style="opacity:1;fill:#42423d;fill-opacity:1;stroke:#353531;stroke-width:1.05833;stroke-linecap:square;stroke-linejoin:round;stroke-miterlimit:5;stroke-dasharray:none;stroke-opacity:1"
         d="m 137.76839,381.70543 v 2.26549 h 6.91224 v -0.76068 c 0,0 0.0759,-0.46643 -0.19852,-0.74088 -0.27444,-0.27443 -1.45513,-1.30964 -1.45513,-1.30964 0,0 -0.67799,-0.61185 -1.75286,-0.64492 -1.07487,-0.0331 -2.57969,0 -2.57969,0 0,0 -0.92604,-0.0496 -0.92604,1.19063 z"
         id="path232" /><path
         style="opacity:1;fill:#42423d;fill-opacity:1;stroke:#353531;stroke-width:1.05833;stroke-linecap:square;stroke-linejoin:round;stroke-miterlimit:5;stroke-dasharray:none;stroke-opacity:1"
         d="m 137.83207,375.76759 0.67819,2.19829 v 2.54908 h 2.1983 v -2.52569 l 0.60283,-2.24983 -0.41723,-1.25164 h -2.5359 z"
         id="path238"
         sodipodi:nodetypes="ccccccccc" /><path
         id="rect258"
         style="opacity:1;fill:#3a3a36;fill-opacity:1;stroke:none;stroke-width:1.07805;stroke-linecap:square;stroke-linejoin:round;stroke-miterlimit:5;stroke-dasharray:none;stroke-opacity:1"
         d="m 13.377478,396.25028 v 4.07624 h 14.344861 l 1.415417,-4.07624 z" /><circle
         style="fill:#373833;fill-opacity:1;stroke:none;stroke-width:1.45737;stroke-linejoin:round;stroke-miterlimit:5;stroke-dasharray:none;stroke-opacity:1"
         id="circle259"
         cx="76.365532"
         cy="388.46887"
         r="0.69453126" /><circle
         style="fill:#373833;fill-opacity:1;stroke:none;stroke-width:1.45737;stroke-linejoin:round;stroke-miterlimit:5;stroke-dasharray:none;stroke-opacity:1"
         id="circle260"
         cx="104.64253"
         cy="387.67511"
         r="0.69453126" /><rect
         style="opacity:1;fill:#343432;fill-opacity:1;stroke:#343432;stroke-width:1.05695;stroke-linecap:square;stroke-linejoin:round;stroke-miterlimit:5;stroke-dasharray:none;stroke-opacity:1"
         id="rect22"
         width="18.576208"
         height="4.59305"
         x="128.51067"
         y="395.71869"
         ry="0" /><rect
         style="opacity:1;fill:#41413f;fill-opacity:1;stroke:#32322f;stroke-width:0.999591;stroke-linecap:square;stroke-linejoin:round;stroke-miterlimit:5;stroke-dasharray:none;stroke-opacity:1"
         id="rect260"
         width="1.2004094"
         height="4.6573935"
         x="127.5508"
         y="395.68338" /><rect
         style="opacity:1;fill:#41413f;fill-opacity:1;stroke:#32322f;stroke-width:0.999591;stroke-linecap:square;stroke-linejoin:round;stroke-miterlimit:5;stroke-dasharray:none;stroke-opacity:1"
         id="rect261"
         width="1.2004094"
         height="4.6573935"
         x="130.06378"
         y="395.68338" /><rect
         style="opacity:1;fill:#41413f;fill-opacity:1;stroke:#32322f;stroke-width:0.999591;stroke-linecap:square;stroke-linejoin:round;stroke-miterlimit:5;stroke-dasharray:none;stroke-opacity:1"
         id="rect264"
         width="1.2004094"
         height="4.6573935"
         x="132.5768"
         y="395.68338" /><rect
         style="opacity:1;fill:#41413f;fill-opacity:1;stroke:#32322f;stroke-width:1.00531;stroke-linecap:square;stroke-linejoin:round;stroke-miterlimit:5;stroke-dasharray:none;stroke-opacity:1"
         id="rect265"
         width="1.2156855"
         height="4.6516714"
         x="135.09265"
         y="395.68622" /><rect
         style="opacity:1;fill:#41413f;fill-opacity:1;stroke:#32322f;stroke-width:1.00531;stroke-linecap:square;stroke-linejoin:round;stroke-miterlimit:5;stroke-dasharray:none;stroke-opacity:1"
         id="rect266"
         width="1.2156855"
         height="4.6516714"
         x="137.60565"
         y="395.68622" /><rect
         style="opacity:1;fill:#41413f;fill-opacity:1;stroke:#32322f;stroke-width:1.00531;stroke-linecap:square;stroke-linejoin:round;stroke-miterlimit:5;stroke-dasharray:none;stroke-opacity:1"
         id="rect267"
         width="1.2156855"
         height="4.6516714"
         x="140.11865"
         y="395.68622" /><rect
         style="opacity:1;fill:#41413f;fill-opacity:1;stroke:#32322f;stroke-width:1.00531;stroke-linecap:square;stroke-linejoin:round;stroke-miterlimit:5;stroke-dasharray:none;stroke-opacity:1"
         id="rect268"
         width="1.2156855"
         height="4.6516714"
         x="142.63165"
         y="395.68622" /><rect
         style="opacity:1;fill:#41413f;fill-opacity:1;stroke:#32322f;stroke-width:1.00531;stroke-linecap:square;stroke-linejoin:round;stroke-miterlimit:5;stroke-dasharray:none;stroke-opacity:1"
         id="rect269"
         width="3.4143701"
         height="4.6516724"
         x="145.24565"
         y="395.68622"
         ry="0.070158251" /><rect
         style="opacity:1;fill:#444441;fill-opacity:1;stroke:#373735;stroke-width:1.00012;stroke-linecap:square;stroke-linejoin:round;stroke-miterlimit:5;stroke-dasharray:none;stroke-opacity:1"
         id="rect42"
         width="6.8295593"
         height="0.72089934"
         x="158.03894"
         y="396.83429"
         ry="0.36044967"
         rx="0.36044967" /><rect
         style="opacity:1;fill:#444441;fill-opacity:1;stroke:#373735;stroke-width:1.00012;stroke-linecap:square;stroke-linejoin:round;stroke-miterlimit:5;stroke-dasharray:none;stroke-opacity:1"
         id="rect43"
         width="6.8295593"
         height="0.72089934"
         x="158.03894"
         y="398.71686"
         ry="0.36044967"
         rx="0.36044967" /><circle
         style="fill:#3f3f3b;fill-opacity:1;stroke:#373734;stroke-width:0.529167;stroke-linecap:square;stroke-linejoin:round;stroke-miterlimit:5;stroke-dasharray:none;stroke-opacity:1"
         id="path2"
         cx="130.70081"
         cy="398.07791"
         r="0.67702115" /><circle
         style="fill:#3f3f3b;fill-opacity:1;stroke:#373734;stroke-width:0.529167;stroke-linecap:square;stroke-linejoin:round;stroke-miterlimit:5;stroke-dasharray:none;stroke-opacity:1"
         id="circle2"
         cx="143.23544"
         cy="398.07791"
         r="0.67702115" /><path
         style="fill:#4a4a45;fill-opacity:1;stroke:#353531;stroke-width:1.058;stroke-linecap:square;stroke-linejoin:round;stroke-miterlimit:5;stroke-dasharray:none;stroke-opacity:1"
         d="m 132.8539,404.37691 -0.45835,1.04193 0.81523,1.41203 h 3.46305 l 0.80054,-1.38658 -0.46699,-1.05691 z"
         id="path42"
         sodipodi:nodetypes="ccccccc" /><path
         style="fill:#474743;fill-opacity:1;stroke:#3c3c39;stroke-width:1.058;stroke-linecap:square;stroke-linejoin:round;stroke-miterlimit:5;stroke-dasharray:none;stroke-opacity:1"
         d="m 65.021709,385.99802 v 6.07524 h -2.143334 v -6.07524 z"
         id="path52-0"
         sodipodi:nodetypes="ccccc" /><path
         style="fill:#4c4c48;fill-opacity:1;stroke:#42423e;stroke-width:1.058;stroke-linecap:square;stroke-linejoin:round;stroke-miterlimit:5;stroke-dasharray:none;stroke-opacity:1"
         d="m 60.743318,386.33862 h 4.60706 v 1.0056 h -2.43216 v 1.49672 h 2.45554 v 1.77734 h -4.63293 z"
         id="path46" /></g></g></svg>
