<?xml version="1.0" encoding="UTF-8" standalone="no"?>
<svg
   width="110"
   height="110"
   viewBox="0 0 110 110"
   fill="none"
   version="1.1"
   id="svg83"
   sodipodi:docname="vepr12.svg"
   inkscape:version="1.3.2 (091e20ef0f, 2023-11-25, custom)"
   xmlns:inkscape="http://www.inkscape.org/namespaces/inkscape"
   xmlns:sodipodi="http://sodipodi.sourceforge.net/DTD/sodipodi-0.dtd"
   xmlns="http://www.w3.org/2000/svg"
   xmlns:svg="http://www.w3.org/2000/svg">
  <sodipodi:namedview
     id="namedview83"
     pagecolor="#505050"
     bordercolor="#ffffff"
     borderopacity="1"
     inkscape:showpageshadow="0"
     inkscape:pageopacity="0"
     inkscape:pagecheckerboard="1"
     inkscape:deskcolor="#d1d1d1"
     inkscape:zoom="3.8344474"
     inkscape:cx="11.73572"
     inkscape:cy="20.993899"
     inkscape:window-width="1920"
     inkscape:window-height="1011"
     inkscape:window-x="0"
     inkscape:window-y="32"
     inkscape:window-maximized="1"
     inkscape:current-layer="svg83" />
  <defs
     id="defs83">
    <clipPath
       id="clip0_1643_1044">
      <rect
         width="110"
         height="110"
         fill="white"
         id="rect83" />
    </clipPath>
  </defs>
  <g
     id="g2"
     transform="matrix(0.48846581,-0.28201587,0.28201587,0.48846581,-139.67276,2.9484854)">
    <rect
       style="fill:#464953;fill-opacity:1;stroke:#2d3034;stroke-width:1.05833;stroke-miterlimit:29;stroke-dasharray:none;stroke-opacity:1"
       id="rect193"
       width="1.2518228"
       height="8.5026512"
       x="290.36395"
       y="205.92336"
       transform="rotate(9.4560978)"
       ry="0.62591141" />
    <path
       style="fill:#3a3b3c;fill-opacity:1;stroke:#323334;stroke-width:2.11667;stroke-linejoin:round;stroke-miterlimit:29;stroke-dasharray:none;stroke-opacity:1"
       d="m 337.10215,238.78455 -0.16536,-8.23425 h 1.68379 c 0,0 0.39922,-3.9265 2.03625,-3.9265 h 2.94664 c 0,0 0.3378,2.06013 0,3.32081 v 8.79318 z"
       id="path211"
       sodipodi:nodetypes="cccscccc" />
    <path
       style="fill:#3e4045;fill-opacity:1;stroke:#303236;stroke-width:1.05833;stroke-miterlimit:29;stroke-dasharray:none;stroke-opacity:1"
       d="m 278.54341,228.16727 h 8.6996 c 0,0 0.70617,-0.92252 1.37695,-0.67183 0.95368,0.35642 0.86529,0.39756 0.86529,0.39756 l 0.81799,0.83509 v 4.25672 h -16.85801 l -1.54884,-2.68269 2.00067,-1.15509 h 4.59957 z"
       id="path206"
       sodipodi:nodetypes="ccscccccccc" />
    <path
       style="fill:#3e4045;fill-opacity:1;stroke:#303036;stroke-width:2.11667;stroke-linejoin:round;stroke-miterlimit:29;stroke-dasharray:none;stroke-opacity:1"
       d="m 271.19093,229.12152 h 2.24896 l 3.47265,3.50573 c 0,0 0.52916,0.59531 2.11666,0.59531 h 7.30912 c 0,0 1.98821,0.13102 2.58025,-0.8944 0.59203,-1.02542 1.8492,-2.11147 1.8492,-2.11147 h 1.65597 v 1.21994 h 0.8599 v 10.62198 h -65.53482 v -7.57708 h 43.49812 z"
       id="path199"
       sodipodi:nodetypes="cccscsccccccccc" />
    <path
       style="fill:#3c3c44;fill-opacity:1;stroke:#2a2c32;stroke-width:1.05833;stroke-miterlimit:29;stroke-dasharray:none;stroke-opacity:1"
       d="m 234.553,250.33729 0.88867,0.84188 v 2.59586 c 0,0 1.05355,3.11036 4.23406,2.87649 0,0 0.43181,-0.35078 -0.41009,-0.60803 -0.8419,-0.25725 -2.75955,-0.74835 -2.75955,-3.43775 v -2.87649 h -2.46758 z"
       id="path182"
       sodipodi:nodetypes="ccccssccc" />
    <path
       style="fill:#303036;fill-opacity:1;stroke:#2a2c32;stroke-width:1.05833;stroke-miterlimit:29;stroke-dasharray:none;stroke-opacity:1"
       d="m 232.3964,257.72959 c 0,0 0.76068,1.42214 1.85208,1.45521 1.09141,0.0331 9.85573,-0.33073 9.85573,-0.33073 0,0 1.65365,-0.76067 2.0836,-2.38125 l -0.0992,-5.85389 0.19844,-0.33073 0.49609,0.52916 0.82682,-0.0331 c 0,0 0.23151,-0.82682 0.92605,-0.79375 l -0.0331,-0.92601 h -3.04271 l 0.39688,0.82682 c 0,0 -0.3638,0.3638 -0.3638,0.66146 0,0.29766 0.16536,5.78776 0.16536,5.78776 0,0 -0.5457,1.40559 -1.62057,1.81901 l -9.67383,0.34727 c 0,0 -0.79375,0.16536 -1.88516,-1.88516 z"
       id="path174"
       sodipodi:nodetypes="csccccccccccsccccc" />
    <path
       style="fill:#42454d;fill-opacity:1;stroke:#2f3137;stroke-width:2.11667;stroke-miterlimit:29;stroke-dasharray:none;stroke-opacity:1"
       d="m 216.37986,250.31125 v 3.61143 c 0,0 2.89988,2.43216 1.40316,4.95787 -1.4967,2.52568 -4.11595,7.8577 -5.23848,13.47036 0,0 -0.30346,1.61326 1.54886,2.6827 1.85231,1.06943 7.71203,3.11706 7.71203,3.11706 0,0 2.15152,-0.18708 2.80633,-2.05797 0.65481,-1.87089 -0.74835,-0.18709 0.56127,-3.08696 1.30962,-2.89988 3.46114,-11.78659 3.46114,-11.78659 0,0 1.02899,-2.61924 2.99342,-2.61924 0,0 0.79468,0.0535 0.79468,-1.37642 v -6.91223 z"
       id="path168"
       sodipodi:nodetypes="ccscscssccscc" />
    <path
       style="fill:#3d3e43;fill-opacity:1;stroke:#303236;stroke-width:2.11667;stroke-miterlimit:29;stroke-dasharray:none;stroke-opacity:1"
       d="m 232.90545,250.33727 0.28063,-0.42095 17.3106,-1.26378 v 2.05052 l 24.19998,0.8419 v 4.23333 h 2.32175 l 3.57187,-4.16719 v -2.57968 c 0,0 0,-0.52917 0.52917,-0.52917 l -0.0661,-8.33187 h -65.8588 l -1.61501,-0.0112 c 0,0 -1.01214,0.82894 -0.90629,2.11919 0.17371,2.11741 0.52415,6.7702 0.84381,8.09254 z"
       id="path169"
       sodipodi:nodetypes="cccccccccccccscc" />
    <path
       style="fill:#484b51;fill-opacity:1;stroke:#303336;stroke-width:2.11667;stroke-miterlimit:29;stroke-dasharray:none;stroke-opacity:1"
       d="m 256.37426,260.80537 1.32292,1.32292 c 0,0 2.24896,9.85573 9.59114,23.34948 0,0 0.77936,1.49188 2.14975,0.79376 1.75286,-0.89297 15.94114,-8.10286 15.94114,-8.10286 0,0 0.90417,-0.26593 0.19844,-1.48829 -0.70572,-1.22235 -6.18463,-9.92187 -7.5737,-21.3651 z"
       id="path173"
       sodipodi:nodetypes="cccscscc" />
    <path
       style="fill:#41454d;fill-opacity:1;stroke:#2f3137;stroke-width:2.11667;stroke-miterlimit:29;stroke-dasharray:none;stroke-opacity:1"
       d="m 256.02999,250.61422 -3.25806,0.42464 2.38773,8.91114 c 0,0 -0.65716,0.9578 -0.51684,1.33197 0.14031,0.37417 1.40316,0.0935 1.40316,0.0935 l 22.17001,-6.03361 c 0,0 0.34308,-0.55293 0.1403,-1.30961 l -1.44663,-5.39893 -2.28359,0.41344 -1.62761,-1.09842 -16.96847,0.44999 z"
       id="path170"
       sodipodi:nodetypes="cccsccccccc" />
    <path
       style="fill:#393b42;fill-opacity:1;stroke:#33353d;stroke-width:1.05833;stroke-linejoin:round;stroke-miterlimit:29;stroke-dasharray:none;stroke-opacity:1"
       d="m 219.32983,260.50622 c 0,0 -2.59585,4.39658 -4.41997,11.22532 h 8.37223 c 0,0 0.67819,-0.81851 3.20389,-10.89791 l 0.0824,-0.32886 z"
       id="path183"
       sodipodi:nodetypes="cccccc" />
    <rect
       style="fill:#505153;fill-opacity:1;stroke:#303336;stroke-width:1.05833;stroke-miterlimit:29;stroke-dasharray:none;stroke-opacity:1"
       id="rect194"
       width="11.74987"
       height="0.099853516"
       x="159.05391"
       y="335.79483"
       transform="rotate(-19.188787)"
       ry="0.046213202" />
    <rect
       style="fill:#505153;fill-opacity:1;stroke:#303336;stroke-width:1.05833;stroke-miterlimit:29;stroke-dasharray:none;stroke-opacity:1"
       id="rect195"
       width="12.341022"
       height="0.10186768"
       x="162.10851"
       y="338.22803"
       transform="rotate(-19.423073)"
       ry="0.046213202" />
    <rect
       style="fill:#505153;fill-opacity:1;stroke:#303336;stroke-width:1.05833;stroke-miterlimit:29;stroke-dasharray:none;stroke-opacity:1"
       id="rect196"
       width="12.3714"
       height="0.10196521"
       x="177.47223"
       y="326.69525"
       transform="rotate(-16.774868)"
       ry="0.046213202" />
    <rect
       style="fill:#505153;fill-opacity:1;stroke:#303336;stroke-width:1.05833;stroke-miterlimit:29;stroke-dasharray:none;stroke-opacity:1"
       id="rect197"
       width="11.74987"
       height="0.099853516"
       x="153.7224"
       y="341.75183"
       transform="rotate(-20.065611)"
       ry="0.046213202" />
    <rect
       style="fill:#505153;fill-opacity:1;stroke:#303336;stroke-width:1.05833;stroke-miterlimit:29;stroke-dasharray:none;stroke-opacity:1"
       id="rect198"
       width="12.346007"
       height="0.10211182"
       x="157.39503"
       y="343.8511"
       transform="rotate(-20.226367)"
       ry="0.046213202" />
    <rect
       style="fill:#505153;fill-opacity:1;stroke:#303336;stroke-width:1.05833;stroke-miterlimit:29;stroke-dasharray:none;stroke-opacity:1"
       id="rect199"
       width="11.74987"
       height="0.099853516"
       x="148.31628"
       y="347.57364"
       transform="rotate(-20.992165)"
       ry="0.046213202" />
    <rect
       style="fill:#505153;fill-opacity:1;stroke:#303336;stroke-width:1.05833;stroke-miterlimit:29;stroke-dasharray:none;stroke-opacity:1"
       id="rect200"
       width="11.74987"
       height="0.099853516"
       x="141.62767"
       y="353.78946"
       transform="rotate(-22.105217)"
       ry="0.046213202" />
    <rect
       style="fill:#505153;fill-opacity:1;stroke:#303336;stroke-width:1.05833;stroke-miterlimit:29;stroke-dasharray:none;stroke-opacity:1"
       id="rect201"
       width="11.74987"
       height="0.099853516"
       x="131.18712"
       y="361.1745"
       transform="rotate(-23.777771)"
       ry="0.046213202" />
    <rect
       style="fill:#505153;fill-opacity:1;stroke:#303336;stroke-width:1.05833;stroke-miterlimit:29;stroke-dasharray:none;stroke-opacity:1"
       id="rect202"
       width="11.74987"
       height="0.099853516"
       x="121.88927"
       y="367.82254"
       transform="rotate(-25.238881)"
       ry="0.046213202" />
    <rect
       style="fill:#505153;fill-opacity:1;stroke:#303336;stroke-width:1.05833;stroke-miterlimit:29;stroke-dasharray:none;stroke-opacity:1"
       id="rect204"
       width="11.74987"
       height="0.099853516"
       x="112.90135"
       y="374.07483"
       transform="rotate(-26.632393)"
       ry="0.046213202" />
    <rect
       style="fill:#505153;fill-opacity:1;stroke:#303336;stroke-width:1.05833;stroke-miterlimit:29;stroke-dasharray:none;stroke-opacity:1"
       id="rect207"
       width="12.080693"
       height="0.099917434"
       x="150.28363"
       y="350.38654"
       transform="rotate(-21.428151)"
       ry="0.046213202" />
    <rect
       style="fill:#505153;fill-opacity:1;stroke:#303336;stroke-width:1.05833;stroke-miterlimit:29;stroke-dasharray:none;stroke-opacity:1"
       id="rect211"
       width="12.09179"
       height="0.10211182"
       x="141.19348"
       y="357.33313"
       transform="rotate(-22.887649)"
       ry="0.046213202" />
    <rect
       style="fill:#505153;fill-opacity:1;stroke:#303336;stroke-width:1.05833;stroke-miterlimit:29;stroke-dasharray:none;stroke-opacity:1"
       id="rect4-3"
       width="11.918159"
       height="0.10211182"
       x="130.4185"
       y="364.83026"
       transform="rotate(-24.626735)"
       ry="0.046213202" />
    <rect
       style="fill:#505153;fill-opacity:1;stroke:#303336;stroke-width:1.05833;stroke-miterlimit:29;stroke-dasharray:none;stroke-opacity:1"
       id="rect5"
       width="12.037671"
       height="0.099561639"
       x="121.5196"
       y="371.11993"
       transform="rotate(-26.005175)"
       ry="0.046213202" />
    <path
       style="fill:#383a3d;fill-opacity:1;stroke:#303236;stroke-width:1.05833;stroke-miterlimit:29;stroke-dasharray:none;stroke-opacity:1"
       d="m 229.70741,242.01564 c 0,0 -2.64811,-0.66645 -3.43134,2.05859 l -0.20099,0.78571 -3.27218,5.91144 5.31939,-0.24076 2.22245,-3.07068 18.25458,1.1663 0.37027,0.48455 6.76405,0.43864 c 0,0 0.58408,-0.23412 0.64564,-0.8094 0.0616,-0.57525 0.0735,-1.96582 0.0735,-1.96582 l -7.55269,-2.77055 -1.23322,1.02951 -7.89637,-2.8966 c 0,0 -0.89625,-0.34092 -2.06659,0.20118 -1.17037,0.54218 -3.06098,1.41795 -3.06098,1.41795 z"
       id="path184"
       sodipodi:nodetypes="cccccccccsccccscc" />
    <circle
       style="fill:#4b4b4e;fill-opacity:1;stroke:#323234;stroke-width:1.05833;stroke-miterlimit:29;stroke-dasharray:none;stroke-opacity:1"
       id="path194"
       cx="223.44579"
       cy="244.95848"
       r="0.93544334" />
    <circle
       style="fill:#4b4b4e;fill-opacity:1;stroke:#323234;stroke-width:1.05833;stroke-miterlimit:29;stroke-dasharray:none;stroke-opacity:1"
       id="circle199"
       cx="258.01041"
       cy="242.90053"
       r="0.93544334" />
    <circle
       style="fill:#4b4b4e;fill-opacity:1;stroke:#323234;stroke-width:1.05833;stroke-miterlimit:29;stroke-dasharray:none;stroke-opacity:1"
       id="circle200"
       cx="278.82401"
       cy="245.51976"
       r="0.93544334" />
    <path
       id="path200"
       style="fill:#40404a;fill-opacity:1;stroke:#303036;stroke-width:2.11667;stroke-miterlimit:29;stroke-dasharray:none;stroke-opacity:1"
       d="m 213.15571,240.46812 -41.86101,4.53719 -0.42064,-0.70177 -15.71584,1.31 -4.67723,-0.74879 -4.20905,0.46767 c 0,0 -2.38547,0.14035 -1.54357,4.67724 0.84189,4.53691 4.39663,24.18147 4.39663,24.18147 0,0 1.07544,2.75954 2.89956,2.57245 1.82411,-0.18709 8.74675,-1.54358 8.74675,-1.54358 0,0 1.82367,-1.40309 1.73013,-2.94659 l 19.78484,-16.93126 c 0,0 1.40311,-2.19877 7.71736,-2.76004 6.31423,-0.56126 23.83045,-2.12792 23.83045,-2.12792 0,0 -1.19287,-7.74101 -0.67838,-9.98607 z M 180.3727,251.0158 v 0.39687 c 0,0 -19.57916,16.33802 -20.90208,17.4625 -1.32292,1.12448 -2.11667,-0.85989 -2.11667,-0.85989 l -2.44739,-14.15521 z"
       sodipodi:nodetypes="ccccccscscccsccccsccc" />
    <path
       style="fill:#515562;fill-opacity:1;stroke:#2e3138;stroke-width:2.11667;stroke-miterlimit:29;stroke-dasharray:none;stroke-opacity:1"
       d="m 171.17843,243.47517 c 0,0 -0.15684,6.78771 1.35599,7.9375 0.76698,0.58292 1.2284,0.52916 1.2284,0.52916 l 26.619,-3.43958 c 0,0 0.69453,-0.0992 0.52916,-1.9513 -0.16536,-1.85209 -0.7276,-5.45703 -0.7276,-5.45703 0,0 -0.16537,-1.28985 -1.35599,-1.25677 -1.19063,0.0331 -26.85521,3.14192 -26.85521,3.14192 0,0 -0.76068,0.13229 -0.79375,0.4961 z"
       id="path201"
       sodipodi:nodetypes="csccscscc" />
    <circle
       style="fill:#4b4b4e;fill-opacity:1;stroke:#323234;stroke-width:1.05833;stroke-miterlimit:29;stroke-dasharray:none;stroke-opacity:1"
       id="circle202"
       cx="228.91685"
       cy="244.58681"
       r="1.46461" />
    <path
       style="fill:#393946;fill-opacity:1;stroke:#2e2e38;stroke-width:2.11667;stroke-miterlimit:29;stroke-dasharray:none;stroke-opacity:1"
       d="m 150.50459,244.98186 c 0,0 -1.23946,1.23947 -0.58465,6.89891 0.65481,5.65943 2.66601,19.55075 2.66601,19.55075 0,0 0.56127,2.94666 1.63703,4.95787"
       id="path195" />
    <path
       style="fill:#3f3f46;fill-opacity:1;stroke:#303036;stroke-width:2.117;stroke-linejoin:round;stroke-miterlimit:29;stroke-dasharray:none;stroke-opacity:1"
       d="m 213.57791,239.70485 c 0,0 -0.26458,-1.85208 6.87917,-8.06979 h 2.71198 c 0,0 0.66146,-1.25676 3.10885,-1.25676 h 44.38386 l 6.61458,6.61458 0.004,2.1084 H 275.077 l -36.95918,-2.1084 c 0,0 -2.31479,0.2115 -3.10886,3.175 h -21.5241 z"
       id="path196"
       sodipodi:nodetypes="cccscccccccc" />
    <path
       style="fill:#43434c;fill-opacity:1;stroke:#2b2b31;stroke-width:2.11667;stroke-miterlimit:29;stroke-dasharray:none;stroke-opacity:1"
       d="M 322.85082,237.52204 H 281.1128 v 10.45104 c 0,0 2.84427,1.85209 4.63021,1.85209 1.78594,0 4.96094,-1.32292 4.96094,-1.32292 h 31.61771 l 1.4552,-1.98437 v -8.99584 z"
       id="path202" />
    <path
       style="fill:#43434c;fill-opacity:1;stroke:#2b2b31;stroke-width:2.11667;stroke-miterlimit:29;stroke-dasharray:none;stroke-opacity:1"
       d="m 293.28364,229.81439 v 7.70765 h 30.62552 v -7.47448 h -1.52136 c 0,0 -0.26458,-0.85989 -1.32291,-0.85989 h -23.68021 c 0,0 -1.52136,-0.0661 -1.52136,0.59531 z"
       id="path204"
       sodipodi:nodetypes="cccccsccc" />
    <path
       id="path205"
       style="fill:#3f3f46;fill-opacity:1;stroke:#2b2c31;stroke-width:1.05833;stroke-miterlimit:29;stroke-dasharray:none;stroke-opacity:1"
       d="m 225.46401,228.58973 c -0.62561,0 -1.44953,0.7059 -1.44953,0.7059 -0.53224,0.46209 -1.09083,1.19588 -1.34824,1.61385 h 47.80949 l -0.39688,-2.31975 h -3.68246 v 0.75417 h -1.96784 v -0.75417 h -1.20716 v 0.75417 h -1.96784 v -0.75417 h -1.20716 v 0.75417 h -1.96784 v -0.75417 h -10.73216 v 0.75417 h -1.96784 v -0.75417 h -1.20716 v 0.75417 h -1.96784 v -0.75417 h -1.20716 v 0.75417 h -1.96784 v -0.75417 h -1.20716 v 0.75417 h -1.96784 v -0.75417 h -1.20716 v 0.75417 h -1.96784 v -0.75417 h -1.20716 v 0.75417 h -1.96784 v -0.75417 h -1.20716 v 0.75417 h -1.96784 v -0.75417 z"
       sodipodi:nodetypes="sccccccccccccccccccccccccccccccccccccccccccccs" />
    <path
       style="fill:#39393c;fill-opacity:1;stroke:#2c2c30;stroke-width:2.11667;stroke-miterlimit:29;stroke-dasharray:none;stroke-opacity:1"
       d="m 323.735,230.41234 2.91909,0.002 0.2978,0.3971 1.68678,7.9e-4 0.42992,-0.39654 9.53026,0.008 0.0702,7.05147 -14.89292,-0.0234 z"
       id="path207"
       sodipodi:nodetypes="ccccccccc" />
    <path
       style="fill:#3e3e41;fill-opacity:1;stroke:#323234;stroke-width:2.11667;stroke-miterlimit:29;stroke-dasharray:none;stroke-opacity:1"
       d="m 349.63708,237.75556 0.21447,-0.80031 h 19.14922 c 0,0 2.15728,3.37805 0,7.11457 h -19.12981 c -0.24475,-0.31475 -0.25834,-6.22298 -0.23388,-6.31426 z"
       id="path209"
       sodipodi:nodetypes="cccccc" />
    <path
       style="fill:#d9d9d9;fill-opacity:1;stroke:#959ba7;stroke-width:2.117;stroke-linecap:round;stroke-linejoin:round;stroke-miterlimit:29;stroke-dasharray:none;stroke-opacity:1"
       d="m 278.00551,228.67802 h 8.20268"
       id="path331"
       sodipodi:nodetypes="cc" />
    <path
       style="fill:#39393c;fill-opacity:1;stroke:#2c2c30;stroke-width:2.11667;stroke-miterlimit:29;stroke-dasharray:none;stroke-opacity:1"
       d="m 343.48656,243.50856 v 1.28953 l -19.71448,7.5e-4 v -7.09001 h 25.865 c 0,0 1.5072,3.18924 0,5.79976 l -6.15476,-0.027 0.006,-5.76075 z"
       id="path208"
       sodipodi:nodetypes="ccccccccc" />
    <circle
       style="fill:#979ca5;fill-opacity:1;stroke:#7b818e;stroke-width:1.05833;stroke-miterlimit:29;stroke-dasharray:none;stroke-opacity:1"
       id="circle209"
       cx="277.66995"
       cy="228.65199"
       r="1.2000268" />
    <circle
       style="fill:#979ca5;fill-opacity:1;stroke:#7b818e;stroke-width:1.05833;stroke-miterlimit:29;stroke-dasharray:none;stroke-opacity:1"
       id="circle210"
       cx="274.82101"
       cy="228.68507"
       r="1.6630476" />
    <ellipse
       style="fill:#3e3e41;fill-opacity:1;stroke:#323234;stroke-width:1.058;stroke-linejoin:round;stroke-miterlimit:29;stroke-dasharray:none;stroke-opacity:1"
       id="path210"
       cx="362.7037"
       cy="239.32451"
       rx="5.3578124"
       ry="0.44648436" />
    <ellipse
       style="fill:#3e3e41;fill-opacity:1;stroke:#323234;stroke-width:1.058;stroke-linejoin:round;stroke-miterlimit:29;stroke-dasharray:none;stroke-opacity:1"
       id="ellipse210"
       cx="362.7037"
       cy="241.67268"
       rx="5.3578124"
       ry="0.44648436" />
    <path
       style="fill:#43434c;fill-opacity:1;stroke:#2b2b31;stroke-width:1.05833;stroke-linecap:round;stroke-linejoin:round;stroke-miterlimit:29;stroke-dasharray:none;stroke-opacity:1"
       d="m 282.97208,246.46129 h 31.61797"
       id="path212" />
    <path
       style="fill:#43434c;fill-opacity:1;stroke:#2b2b31;stroke-width:1.05833;stroke-linecap:round;stroke-linejoin:round;stroke-miterlimit:29;stroke-dasharray:none;stroke-opacity:1"
       d="M 282.97183,244.66129 H 314.5898"
       id="path214" />
    <path
       style="fill:#43434c;fill-opacity:1;stroke:#2b2b31;stroke-width:1.05833;stroke-linecap:round;stroke-linejoin:round;stroke-miterlimit:29;stroke-dasharray:none;stroke-opacity:1"
       d="M 282.97183,242.86129 H 314.5898"
       id="path217" />
    <path
       style="fill:#43434c;fill-opacity:1;stroke:#2b2b31;stroke-width:1.05833;stroke-linecap:round;stroke-linejoin:round;stroke-miterlimit:29;stroke-dasharray:none;stroke-opacity:1"
       d="M 282.97183,241.06129 H 314.5898"
       id="path218" />
    <path
       style="fill:#43434c;fill-opacity:1;stroke:#2b2b31;stroke-width:1.05833;stroke-linecap:round;stroke-linejoin:round;stroke-miterlimit:29;stroke-dasharray:none;stroke-opacity:1"
       d="m 282.97208,239.36155 h 31.61797"
       id="path219" />
    <path
       style="fill:#43434c;fill-opacity:1;stroke:#2b2b31;stroke-width:1.05833;stroke-linecap:round;stroke-linejoin:round;stroke-miterlimit:29;stroke-dasharray:none;stroke-opacity:1"
       d="m 316.20383,239.3692 v 7.06261"
       id="path220" />
    <path
       style="fill:#43434c;fill-opacity:1;stroke:#2b2b31;stroke-width:1.05833;stroke-linecap:round;stroke-linejoin:round;stroke-miterlimit:29;stroke-dasharray:none;stroke-opacity:1"
       d="m 318.00383,239.3692 v 7.06261"
       id="path223" />
    <path
       style="fill:#43434c;fill-opacity:1;stroke:#2b2b31;stroke-width:1.05833;stroke-linecap:round;stroke-linejoin:round;stroke-miterlimit:29;stroke-dasharray:none;stroke-opacity:1"
       d="m 319.80383,239.3692 v 7.06261"
       id="path228" />
    <path
       style="fill:#43434c;fill-opacity:1;stroke:#2b2b31;stroke-width:1.05833;stroke-linecap:round;stroke-linejoin:round;stroke-miterlimit:29;stroke-dasharray:none;stroke-opacity:1"
       d="m 321.60383,239.3692 v 7.06261"
       id="path229" />
    <path
       style="fill:#43434c;fill-opacity:1;stroke:#2b2b31;stroke-width:1.05833;stroke-linecap:round;stroke-linejoin:round;stroke-miterlimit:29;stroke-dasharray:none;stroke-opacity:1"
       d="m 297.31536,229.8442 v 7.06261"
       id="path230" />
    <path
       style="fill:#43434c;fill-opacity:1;stroke:#2b2b31;stroke-width:1.05833;stroke-linecap:round;stroke-linejoin:round;stroke-miterlimit:29;stroke-dasharray:none;stroke-opacity:1"
       d="m 299.51583,229.8442 v 7.06261"
       id="path234" />
    <path
       style="fill:#43434c;fill-opacity:1;stroke:#2b2b31;stroke-width:1.05833;stroke-linecap:round;stroke-linejoin:round;stroke-miterlimit:29;stroke-dasharray:none;stroke-opacity:1"
       d="m 301.71583,229.8442 v 7.06261"
       id="path235" />
    <path
       style="fill:#43434c;fill-opacity:1;stroke:#2b2b31;stroke-width:1.05833;stroke-linecap:round;stroke-linejoin:round;stroke-miterlimit:29;stroke-dasharray:none;stroke-opacity:1"
       d="m 303.91583,229.8442 v 7.06261"
       id="path236" />
    <path
       style="fill:#43434c;fill-opacity:1;stroke:#2b2b31;stroke-width:1.05833;stroke-linecap:round;stroke-linejoin:round;stroke-miterlimit:29;stroke-dasharray:none;stroke-opacity:1"
       d="m 306.11583,229.8442 v 7.06261"
       id="path237" />
    <path
       style="fill:#43434c;fill-opacity:1;stroke:#2b2b31;stroke-width:1.05833;stroke-linecap:round;stroke-linejoin:round;stroke-miterlimit:29;stroke-dasharray:none;stroke-opacity:1"
       d="m 308.31583,229.8442 v 7.06261"
       id="path239" />
    <path
       style="fill:#43434c;fill-opacity:1;stroke:#2b2b31;stroke-width:1.05833;stroke-linecap:round;stroke-linejoin:round;stroke-miterlimit:29;stroke-dasharray:none;stroke-opacity:1"
       d="m 310.51583,229.8442 v 7.06261"
       id="path240" />
    <path
       style="fill:#43434c;fill-opacity:1;stroke:#2b2b31;stroke-width:1.05833;stroke-linecap:round;stroke-linejoin:round;stroke-miterlimit:29;stroke-dasharray:none;stroke-opacity:1"
       d="m 312.71583,229.8442 v 7.06261"
       id="path242" />
    <path
       style="fill:#43434c;fill-opacity:1;stroke:#2b2b31;stroke-width:1.05833;stroke-linecap:round;stroke-linejoin:round;stroke-miterlimit:29;stroke-dasharray:none;stroke-opacity:1"
       d="m 314.91583,229.8442 v 7.06261"
       id="path243" />
    <path
       style="fill:#43434c;fill-opacity:1;stroke:#2b2b31;stroke-width:1.05833;stroke-linecap:round;stroke-linejoin:round;stroke-miterlimit:29;stroke-dasharray:none;stroke-opacity:1"
       d="m 317.11583,229.8442 v 7.06261"
       id="path244" />
    <path
       style="fill:#3d3d43;fill-opacity:1;stroke:#303036;stroke-width:1.05833;stroke-linecap:round;stroke-linejoin:round;stroke-miterlimit:29;stroke-dasharray:none;stroke-opacity:1"
       d="m 256.94894,232.34516 h 14.88368 l 4.82756,4.60018 0.0479,2.69321 H 253.3667 l -0.003,-3.20022 z"
       id="path248"
       sodipodi:nodetypes="ccccccc" />
    <path
       style="fill:#43434c;fill-opacity:1;stroke:#2b2b31;stroke-width:1.05833;stroke-linecap:round;stroke-linejoin:round;stroke-miterlimit:29;stroke-dasharray:none;stroke-opacity:1"
       d="m 319.21583,229.8442 v 7.06261"
       id="path245" />
    <path
       style="fill:#43434c;fill-opacity:1;stroke:#2b2b31;stroke-width:1.05833;stroke-linecap:round;stroke-linejoin:round;stroke-miterlimit:29;stroke-dasharray:none;stroke-opacity:1"
       d="m 321.31583,229.8442 v 7.06261"
       id="path246" />
    <path
       style="fill:#35353b;fill-opacity:1;stroke:#303036;stroke-width:1.05833;stroke-linecap:round;stroke-linejoin:round;stroke-miterlimit:29;stroke-dasharray:none;stroke-opacity:1"
       d="m 246.75831,235.93351 c 0,0 0.82893,-3.58835 3.03655,-3.58835 h 8.80566 c 0,0 -0.67817,1.46583 -0.67817,2.56921 0,0.90248 -1.10236,1.55883 -1.82558,1.55883 -0.38861,0 -7.96426,0.0115 -9.18285,-0.022 -0.10099,-0.003 -0.15561,-0.008 -0.15561,-0.0131 z"
       id="path247"
       sodipodi:nodetypes="cscscssc" />
    <rect
       style="fill:#323234;fill-opacity:1;stroke:none;stroke-width:2.117;stroke-linecap:round;stroke-linejoin:round;stroke-miterlimit:29;stroke-dasharray:none;stroke-opacity:1"
       id="rect262"
       width="2.6286864"
       height="4.5286255"
       x="326.4216"
       y="231.86681" />
    <rect
       style="fill:#38383e;fill-opacity:1;stroke:#29292e;stroke-width:1.05833;stroke-linecap:round;stroke-linejoin:round;stroke-miterlimit:29;stroke-dasharray:none;stroke-opacity:1"
       id="rect331"
       width="2.4979849"
       height="8.2312975"
       x="366.13965"
       y="48.371021"
       transform="rotate(30.470329)"
       ry="1.3399278"
       rx="1.2443247" />
    <path
       style="fill:#35353b;fill-opacity:1;stroke:#303036;stroke-width:1.05833;stroke-linecap:round;stroke-linejoin:round;stroke-miterlimit:29;stroke-opacity:1"
       d="m 246.80848,236.46835 h -8.81655 c -0.70975,0.14511 -2.34542,1.1608 -3.1876,3.17175 l 18.56533,0.0685 v -3.24274 z"
       id="path178"
       sodipodi:nodetypes="cccccc" />
    <path
       style="fill:#35353b;fill-opacity:1;stroke:none;stroke-width:1.05833;stroke-linecap:round;stroke-linejoin:round;stroke-miterlimit:29;stroke-opacity:1"
       d="m 247.30608,235.92882 -0.28672,1.07005 h 5.82024 V 235.929 Z"
       id="path179"
       sodipodi:nodetypes="ccccc" />
    <rect
       style="opacity:1;fill:#60626c;fill-opacity:1;stroke:#43464c;stroke-width:1.05833;stroke-linejoin:round;stroke-miterlimit:5;stroke-dasharray:none;stroke-opacity:1"
       id="rect255"
       width="1.7197917"
       height="3.1088541"
       x="274.14142"
       y="235.90912"
       ry="0.62838542" />
  </g>
</svg>
