<?xml version="1.0" encoding="UTF-8" standalone="no"?>
<svg
   id="Layer_1"
   data-name="Layer 1"
   width="145.14"
   height="42.139999"
   viewBox="0 0 145.14 42.14"
   version="1.1"
   sodipodi:docname="vickers_world.svg"
   inkscape:version="1.3.2 (091e20e, 2023-11-25)"
   xmlns:inkscape="http://www.inkscape.org/namespaces/inkscape"
   xmlns:sodipodi="http://sodipodi.sourceforge.net/DTD/sodipodi-0.dtd"
   xmlns="http://www.w3.org/2000/svg"
   xmlns:svg="http://www.w3.org/2000/svg">
  <sodipodi:namedview
     id="namedview1"
     pagecolor="#ffffff"
     bordercolor="#000000"
     borderopacity="0.25"
     inkscape:showpageshadow="2"
     inkscape:pageopacity="0.0"
     inkscape:pagecheckerboard="0"
     inkscape:deskcolor="#d1d1d1"
     inkscape:zoom="5.5235553"
     inkscape:cx="77.214761"
     inkscape:cy="17.923239"
     inkscape:window-width="1312"
     inkscape:window-height="449"
     inkscape:window-x="0"
     inkscape:window-y="25"
     inkscape:window-maximized="0"
     inkscape:current-layer="Layer_1" />
  <defs
     id="defs1">
    <style
       id="style1">
      .cls-1 {
        fill: #373430;
        stroke: #191716;
        stroke-width: 1.5px;
      }

      .cls-2 {
        fill: #191716;
      }

      .cls-3 {
        fill: #3d3e42;
        stroke: #161719;
      }

      .cls-3, .cls-4, .cls-5, .cls-6, .cls-7, .cls-8, .cls-9 {
        stroke-width: 3px;
      }

      .cls-4, .cls-5, .cls-8 {
        fill: #4e4a41;
      }

      .cls-4, .cls-6 {
        stroke: #181816;
      }

      .cls-5, .cls-9 {
        stroke: #1a1915;
      }

      .cls-6 {
        fill: #5e5d5a;
      }

      .cls-7 {
        fill: #676159;
        stroke: #191816;
      }

      .cls-8 {
        stroke: #191815;
      }

      .cls-8, .cls-9 {
        stroke-linecap: round;
      }

      .cls-9 {
        fill: #615c51;
      }
    </style>
  </defs>
  <path
     style="fill:none;fill-opacity:1;stroke:#1f1f1f;stroke-width:3;stroke-linecap:round;stroke-linejoin:round;stroke-dasharray:none;stroke-opacity:1"
     d="m 93.3487,14.752295 29.3652,7.922724 -29.434986,7.832653"
     id="path3" />
  <rect
     id="rect305-7"
     class="cls-8"
     x="97.303528"
     y="19.969381"
     width="24.18"
     height="4.98" />
  <path
     id="path313-5"
     class="cls-9"
     d="m 122.92338,20.014829 c -0.32444,0 -0.60413,0.282423 -0.60413,0.633018 v 3.642288 c 0,0.331118 0.24612,0.613541 0.60413,0.613541 h 8.6368 c 0.32444,0 0.60413,-0.253207 0.60413,-0.613541 v -0.944657 h -3.13252 v -1.762712 h 3.13252 v -0.964135 c 0,-0.331118 -0.24613,-0.613541 -0.60413,-0.613541 h -8.6368 z" />
  <rect
     id="rect1351"
     class="cls-3"
     x="1.1549726"
     y="17.32435"
     width="55.227116"
     height="11.176037"
     rx="1.0408988"
     ry="1.4275957" />
  <path
     id="rect6067"
     class="cls-6"
     d="m 27.513531,18.039383 c 0,0.39 0.31,0.7 0.7,0.7 h 31.47 c 0.39,0 0.7,0.31 0.7,0.7 v 6.55 c 0,0.39 -0.31,0.7 -0.7,0.7 h -31.61 c -0.39,0 -0.7,0.31 -0.7,0.7 v 1.67 c 0,0.39 0.31,0.7 0.7,0.7 h 64.35 v -1.4 h 1.12 c 0.39,0 0.7,-0.31 0.7,-0.7 v -9.97 c 0,-0.39 -0.31,-0.7 -0.7,-0.7 h -0.98 v -1.33 h -64.44 c -0.34,0 -0.61,0.28 -0.61,0.61 v 1.76 z" />
  <path
     id="rect1405"
     class="cls-4"
     d="m 27.373531,17.619383 h 36.06 v 10.11 h -36.06 z"
     style="fill:#939393;fill-opacity:1" />
  <rect
     id="rect7574"
     class="cls-5"
     x="95.346207"
     y="19.112057"
     width="7.0561194"
     height="7.0646482"
     rx="1.0303761"
     ry="0.75318116" />
  <rect
     id="rect7574-8"
     class="cls-5"
     x="116.80186"
     y="19.17457"
     width="7.0561194"
     height="7.0646482"
     rx="1.0303761"
     ry="0.75318116"
     style="fill:#4e4a41;stroke:#1a1915;stroke-width:3.34535px" />
  <rect
     id="rect7574-5"
     class="cls-5"
     x="121.02374"
     y="17.127888"
     width="2.5799999"
     height="10.03"
     rx="0.79000002"
     ry="0.79000002" />
  <ellipse
     style="fill:#6c6c6c;fill-opacity:1;stroke:#1c1a17;stroke-width:3.01819;stroke-linecap:round;stroke-linejoin:round;stroke-dasharray:none;stroke-opacity:1"
     id="path1"
     cx="134.95088"
     cy="22.427261"
     rx="6.9920893"
     ry="2.5385716" />
  <rect
     style="fill:#7e7e7e;fill-opacity:1;stroke:#1c1a17;stroke-width:3;stroke-linecap:round;stroke-linejoin:round;stroke-dasharray:none;stroke-opacity:1"
     id="rect1"
     width="1.2669702"
     height="6.3348508"
     x="35.793678"
     y="19.533022"
     rx="0.79000002"
     ry="0.79000002" />
  <circle
     style="fill:#92834f;fill-opacity:1;stroke:#1c1a17;stroke-width:3.30891;stroke-linecap:round;stroke-linejoin:round;stroke-dasharray:none;stroke-opacity:1"
     id="path2"
     cx="79.711861"
     cy="21.07"
     r="18.770361" />
  <circle
     style="fill:#6f633c;fill-opacity:1;stroke:#1c1a17;stroke-width:2.28983;stroke-linecap:round;stroke-linejoin:round;stroke-dasharray:none;stroke-opacity:1"
     id="path2-4"
     cx="79.38987"
     cy="21.07"
     r="12.989434" />
</svg>
