<?xml version="1.0" encoding="UTF-8" standalone="no"?>
<!-- Created with Inkscape (http://www.inkscape.org/) -->

<svg
   width="40mm"
   height="40.000156mm"
   viewBox="0 0 40 40.000157"
   version="1.1"
   id="svg1"
   xml:space="preserve"
   inkscape:version="1.3 (0e150ed, 2023-07-21)"
   sodipodi:docname="bromine_crate.svg"
   xmlns:inkscape="http://www.inkscape.org/namespaces/inkscape"
   xmlns:sodipodi="http://sodipodi.sourceforge.net/DTD/sodipodi-0.dtd"
   xmlns="http://www.w3.org/2000/svg"
   xmlns:svg="http://www.w3.org/2000/svg"><sodipodi:namedview
     id="namedview1"
     pagecolor="#ffffff"
     bordercolor="#000000"
     borderopacity="0.25"
     inkscape:showpageshadow="2"
     inkscape:pageopacity="0.0"
     inkscape:pagecheckerboard="0"
     inkscape:deskcolor="#d1d1d1"
     inkscape:document-units="mm"
     inkscape:zoom="2.768771"
     inkscape:cx="68.80309"
     inkscape:cy="70.067189"
     inkscape:window-width="1440"
     inkscape:window-height="847"
     inkscape:window-x="0"
     inkscape:window-y="25"
     inkscape:window-maximized="0"
     inkscape:current-layer="layer1" /><defs
     id="defs1" /><g
     inkscape:label="Layer 1"
     inkscape:groupmode="layer"
     id="layer1"
     transform="translate(0.17331259,0.17331853)"><g
       inkscape:label="Layer 1"
       id="layer1-6"
       transform="matrix(1.1922147,0,0,1.1922147,-78.875554,-183.91715)"><path
         d="m 67.256529,155.3628 h 22.589963 8.93588 v 6.06796 H 67.256529 Z m 0,6.06796 h 31.525843 v 6.3097 H 67.256529 Z m 0,6.3097 h 31.525843 v 6.30971 H 67.256529 Z m 0,6.30971 h 31.525843 v 6.30971 H 67.256529 Z m 0,6.30971 h 31.525843 v 6.30971 H 67.256529 Z"
         fill="#84612e"
         id="path8299"
         style="fill:#55555d;fill-opacity:1;stroke:none;stroke-width:0.120876"
         sodipodi:nodetypes="cccccccccccccccccccccccccc" /><path
         d="m 98.673804,161.20242 v -6.13597 H 89.781558 66.960173 v 6.13597 m 31.713631,0.64503 H 66.960173 m 31.713631,-0.64503 v 6.38042 m -31.713631,-5.16203 v 5.16203 m 31.713631,0.14334 H 66.960173 m 31.713631,0.26279 v 5.97431 m -31.713631,-6.38044 v 6.38044 m 31.713631,-0.16723 H 66.960173 m 31.713631,-0.81226 v 7.35992 m -31.713631,-6.38043 v 6.38043 m 31.713631,0 H 66.960173 m 31.713631,0 v 6.38044 H 66.960173 v -6.38044"
         stroke="#624822"
         stroke-width="1.08788"
         stroke-linecap="round"
         stroke-linejoin="round"
         id="path8301"
         style="fill:none;stroke:#3f3f45;stroke-width:1.09964;stroke-linecap:square;stroke-linejoin:miter;stroke-dasharray:none;stroke-opacity:1"
         sodipodi:nodetypes="ccccccccccccccccccccccccccccc" /><path
         d="m 96.056822,180.48211 c 0,2.4701 -2.083533,4.4724 -4.653712,4.4724 -2.570178,0 -4.653712,-2.0023 -4.653712,-4.4724 0,-2.47009 2.083534,-4.4724 4.653712,-4.4724 2.570179,0 4.653712,2.00231 4.653712,4.4724 z"
         fill="#939393"
         stroke="#353535"
         stroke-width="0.967005"
         id="path8303"
         style="fill:#d94726;fill-opacity:1;stroke:#822b17;stroke-opacity:1" /><path
         d="m 92.630901,176.93144 h -2.538389 v 6.10763 h 2.538389 z"
         fill="#565656"
         stroke="#353535"
         stroke-width="0.725254"
         stroke-linecap="square"
         stroke-linejoin="round"
         id="path8307"
         sodipodi:nodetypes="ccccc"
         style="fill:#4c4c52;fill-opacity:1;stroke:#333337;stroke-opacity:1" /><path
         d="m 96.056822,161.89008 c 0,2.47004 -2.083533,4.4724 -4.653712,4.4724 -2.570178,0 -4.653712,-2.00236 -4.653712,-4.4724 0,-2.47003 2.083534,-4.47239 4.653712,-4.47239 2.570179,0 4.653712,2.00236 4.653712,4.47239 z"
         fill="#939393"
         stroke="#353535"
         stroke-width="0.967005"
         id="path8327"
         style="fill:#d94726;fill-opacity:1;stroke:#822b17;stroke-opacity:1" /><path
         d="m 92.698472,158.26084 h -2.538389 v 6.3707 h 2.538389 z"
         fill="#565656"
         stroke="#353535"
         stroke-width="0.725254"
         stroke-linecap="square"
         stroke-linejoin="round"
         id="path8331"
         sodipodi:nodetypes="ccccc"
         style="fill:#4c4c52;fill-opacity:1;stroke:#333337;stroke-opacity:1" /><path
         d="m 79.099239,180.36123 c 0,2.4701 -2.083533,4.4724 -4.653712,4.4724 -2.570178,0 -4.653711,-2.0023 -4.653711,-4.4724 0,-2.47009 2.083533,-4.4724 4.653711,-4.4724 2.570179,0 4.653712,2.00231 4.653712,4.4724 z"
         fill="#939393"
         stroke="#353535"
         stroke-width="0.967005"
         id="path8335"
         style="fill:#d94726;fill-opacity:1;stroke:#822b17;stroke-opacity:1" /><path
         d="m 75.740889,176.86712 h -2.538388 v 6.2183 h 2.538388 z"
         fill="#565656"
         stroke="#353535"
         stroke-width="0.725254"
         stroke-linecap="square"
         stroke-linejoin="round"
         id="path8339"
         sodipodi:nodetypes="ccccc"
         style="fill:#4c4c52;fill-opacity:1;stroke:#333337;stroke-opacity:1" /><path
         d="m 79.099239,161.89008 c 0,2.47003 -2.083533,4.4724 -4.653712,4.4724 -2.570178,0 -4.653711,-2.00237 -4.653711,-4.4724 0,-2.47003 2.083533,-4.4724 4.653711,-4.4724 2.570179,0 4.653712,2.00238 4.653712,4.4724 z"
         fill="#939393"
         stroke="#353535"
         stroke-width="0.967005"
         id="path8343"
         style="fill:#d94726;fill-opacity:1;stroke:#822b17;stroke-opacity:1" /><path
         d="M 75.673318,158.14829 H 73.13493 v 6.53763 h 2.538388 z"
         fill="#565656"
         stroke="#353535"
         stroke-width="0.725254"
         stroke-linecap="square"
         stroke-linejoin="round"
         id="path8347"
         sodipodi:nodetypes="ccccc"
         style="fill:#4c4c52;fill-opacity:1;stroke:#333337;stroke-opacity:1" /><path
         d="m 66.960173,168.69365 h 31.612733 v 4.15881 H 66.960173 Z"
         fill="#bd8b42"
         stroke="#3f2e16"
         stroke-width="1.07906"
         id="path8351"
         sodipodi:nodetypes="ccccc"
         style="fill:#494950;fill-opacity:1;stroke:#29292d;stroke-opacity:1" /><path
         d="m 81.756413,155.27211 h 2.656548 v 31.24637 h -2.656548 z"
         fill="#bd8b42"
         stroke="#3f2e16"
         stroke-width="0.98676"
         id="path8355"
         style="fill:#494950;fill-opacity:1;stroke:#29292e;stroke-opacity:1" /><rect
         x="66.797325"
         y="154.90359"
         width="31.983313"
         height="31.983446"
         stroke="#3f2e16"
         stroke-width="1.08788"
         id="rect8357"
         style="fill:none;stroke:#29292e;stroke-width:1.56769;stroke-linecap:round;stroke-linejoin:round;stroke-dasharray:none;stroke-opacity:1" /><circle
         style="fill:#494950;fill-opacity:1;stroke:#313135;stroke-width:1.05833;stroke-linecap:round;stroke-linejoin:round;stroke-miterlimit:5;stroke-opacity:1"
         id="path1"
         cx="74.429657"
         cy="180.43454"
         r="1.6048115" /><circle
         style="fill:#494950;fill-opacity:1;stroke:#313135;stroke-width:1.05833;stroke-linecap:round;stroke-linejoin:round;stroke-miterlimit:5;stroke-opacity:1"
         id="circle1"
         cx="74.47744"
         cy="162.03928"
         r="1.6048115" /><circle
         style="fill:#494950;fill-opacity:1;stroke:#313135;stroke-width:1.05833;stroke-linecap:round;stroke-linejoin:round;stroke-miterlimit:5;stroke-opacity:1"
         id="circle2"
         cx="91.477486"
         cy="162.03928"
         r="1.6048115" /><circle
         style="fill:#494950;fill-opacity:1;stroke:#313135;stroke-width:1.05833;stroke-linecap:round;stroke-linejoin:round;stroke-miterlimit:5;stroke-opacity:1"
         id="circle3"
         cx="91.381927"
         cy="180.38676"
         r="1.6048115" /></g></g></svg>
