<?xml version="1.0" encoding="UTF-8" standalone="no"?>
<!-- Generator: Adobe Illustrator 27.0.0, SVG Export Plug-In . SVG Version: 6.00 Build 0)  -->

<svg
   version="1.1"
   id="svg52"
   x="0px"
   y="0px"
   viewBox="0 0 415.29739 445.93654"
   xml:space="preserve"
   sodipodi:docname="oak_tree_1_desert.svg"
   inkscape:version="1.3.2 (091e20ef0f, 2023-11-25, custom)"
   width="415.29739"
   height="445.93655"
   xmlns:inkscape="http://www.inkscape.org/namespaces/inkscape"
   xmlns:sodipodi="http://sodipodi.sourceforge.net/DTD/sodipodi-0.dtd"
   xmlns="http://www.w3.org/2000/svg"
   xmlns:svg="http://www.w3.org/2000/svg"><defs
   id="defs1" />
<style
   type="text/css"
   id="style1">
	.st0{opacity:0.9;fill:#63462B;enable-background:new    ;}
	.st1{fill:#70553D;stroke:#4A2809;stroke-width:9;stroke-linejoin:round;stroke-miterlimit:16;}
	.st2{opacity:0.95;fill:#69371C;fill-opacity:0.852;enable-background:new    ;}
	.st3{opacity:0.8;fill:#73452C;fill-opacity:0.8039;enable-background:new    ;}
	.st4{fill:#845B45;fill-opacity:0.8971;}
	.st5{fill:#8D6753;fill-opacity:0.8978;}
</style>
<sodipodi:namedview
   bordercolor="#ffffff"
   borderopacity="1"
   height="609.877px"
   id="namedview54"
   inkscape:current-layer="svg52"
   inkscape:cx="125.5"
   inkscape:cy="258.49999"
   inkscape:deskcolor="#505050"
   inkscape:pagecheckerboard="1"
   inkscape:pageopacity="0"
   inkscape:pageshadow="0"
   inkscape:showpageshadow="2"
   inkscape:window-height="1011"
   inkscape:window-maximized="1"
   inkscape:window-width="1920"
   inkscape:window-x="0"
   inkscape:window-y="32"
   inkscape:zoom="1"
   pagecolor="#505050"
   showgrid="false">
	</sodipodi:namedview>
<path
   id="path5"
   class="st0"
   d="m 224.69887,59.198504 -62.9,115.499996 c 0,0 -22.7,19.1 -36.7,31.8 -28.400003,25.8 -69.400003,69.4 -69.400003,69.4 l 3.3,68.2 16.4,-56.3 82.900003,-44.5 31.4,73.9 -73.2,50.7 -10.9,75.9 30.4,-56.3 c 0,0 38.7,-21 56.6,-32.6 19,-12.4 29.8,-24.5 29.8,-24.5 l 20.4,28.6 -13.2,75.4 43.8,-82.9 -70.4,-109 83.7,-54.7 14.7,-61.2 -32.1,41.1 -67.9,26.2 41.2,-109.399996 52.3,-29.8 z"
   style="opacity:1;fill:#5b3e24;fill-opacity:1;stroke:#312114;stroke-width:9;stroke-dasharray:none;stroke-opacity:1" /><path
   id="path2"
   class="st0"
   d="m 224.69887,59.198504 -62.9,115.499996 c 0,0 -22.7,19.1 -36.7,31.8 -28.400003,25.8 -69.400003,69.4 -69.400003,69.4 l 3.3,68.2 16.4,-56.3 82.900003,-44.5 31.4,73.9 -73.2,50.7 -10.9,75.9 30.4,-56.3 c 0,0 38.7,-21 56.6,-32.6 19,-12.4 29.8,-24.5 29.8,-24.5 l 20.4,28.6 -13.2,75.4 43.8,-82.9 -70.4,-109 83.7,-54.7 14.7,-61.2 -32.1,41.1 -67.9,26.2 41.2,-109.399996 52.3,-29.8 z"
   style="opacity:1;fill:none;stroke:#312114;stroke-width:9;stroke-dasharray:none;stroke-opacity:1" />
<path
   id="path4"
   class="st1"
   d="m 161.89887,174.2985 5.7,-40 -20,-68.199996 42.5,-61.5999996 -12.7,72.6999996 31.8,57.199996 -7.3,59.6 86.5,17.6 55.9,-29.4 66.5,24.1 -66.5,8.2 -55.9,40 -83.7,-11 c 13.6,34.9 20.8,89 20.8,89 l -26.9,54.9 -11.8,50.3 -15.5,-61.6 15.5,-54.3 c 0,0 -11.4,-50.4 -28.2,-78.4 l -45.3,16.3 c -25.800003,1.5 -61.600003,-8.8 -61.600003,-8.8 l -47.1999999,20.5 37.9999999,-45 h 51.6 l 31.000003,-20.2 -24.1,-31.8 -15.400003,-40 -46.2,-33.9 66.700003,19.5 c 0,-0.1 30.8,48.1 55.8,54.3 z"
   style="fill:#6d4a2c;fill-opacity:1;stroke:#312114;stroke-opacity:1" />























<path
   id="path3"
   class="st1"
   d="m 161.89887,174.2985 5.7,-40 -20,-68.199996 42.5,-61.5999996 -12.7,72.6999996 31.8,57.199996 -7.3,59.6 86.5,17.6 55.9,-29.4 66.5,24.1 -66.5,8.2 -55.9,40 -83.7,-11 c 13.6,34.9 20.8,89 20.8,89 l -26.9,54.9 -11.8,50.3 -15.5,-61.6 15.5,-54.3 c 0,0 -11.4,-50.4 -28.2,-78.4 l -45.3,16.3 c -25.800003,1.5 -61.600003,-8.8 -61.600003,-8.8 l -47.1999999,20.5 37.9999999,-45 h 51.6 l 31.000003,-20.2 -24.1,-31.8 -15.400003,-40 -46.2,-33.9 67.825003,19.5 c 0.0961,0.0276 29.675,48.1 54.675,54.3 z"
   style="fill:none;stroke:#312114;stroke-opacity:1"
   sodipodi:nodetypes="ccccccccccccccccccccccccccccsc" /></svg>
