<?xml version="1.0" encoding="UTF-8" standalone="no"?>
<!-- Generator: Adobe Illustrator 27.0.0, SVG Export Plug-In . SVG Version: 6.00 Build 0)  -->

<svg
   version="1.1"
   id="svg48"
   x="0px"
   y="0px"
   viewBox="0 0 312.76683 388.00122"
   xml:space="preserve"
   sodipodi:docname="oak_tree_2_desrt.svg"
   inkscape:version="1.3.2 (091e20ef0f, 2023-11-25, custom)"
   width="312.76685"
   height="388.00122"
   xmlns:inkscape="http://www.inkscape.org/namespaces/inkscape"
   xmlns:sodipodi="http://sodipodi.sourceforge.net/DTD/sodipodi-0.dtd"
   xmlns="http://www.w3.org/2000/svg"
   xmlns:svg="http://www.w3.org/2000/svg"><defs
   id="defs1" />
<style
   type="text/css"
   id="style1">
	.st0{opacity:0.9;fill:#403228;enable-background:new    ;}
	.st1{fill:#4D3F36;stroke:#29180D;stroke-width:8.9304;stroke-linejoin:round;stroke-miterlimit:16;}
	.st2{opacity:0.95;fill:#E57C0A;fill-opacity:0.851;enable-background:new    ;}
	.st3{opacity:0.8;fill:#D17109;fill-opacity:0.8039;enable-background:new    ;}
	.st4{opacity:0.8;fill-rule:evenodd;clip-rule:evenodd;fill:#D17109;fill-opacity:0.8039;enable-background:new    ;}
	.st5{fill:#E5711A;fill-opacity:0.8955;}
	.st6{fill:#EFAC3F;fill-opacity:0.8995;}
	.st7{fill:#EFAC3F;fill-opacity:0.9007;}
</style>
<sodipodi:namedview
   bordercolor="#ffffff"
   borderopacity="1"
   height="604.001px"
   id="namedview50"
   inkscape:current-layer="svg48"
   inkscape:cx="144.93227"
   inkscape:cy="222.42596"
   inkscape:deskcolor="#505050"
   inkscape:pagecheckerboard="1"
   inkscape:pageopacity="0"
   inkscape:pageshadow="0"
   inkscape:showpageshadow="2"
   inkscape:window-height="1011"
   inkscape:window-maximized="1"
   inkscape:window-width="1920"
   inkscape:window-x="0"
   inkscape:window-y="32"
   inkscape:zoom="2.8841058"
   pagecolor="#505050"
   showgrid="false"
   width="520.942px">
	</sodipodi:namedview>
<path
   id="path2"
   class="st0"
   d="m 239.15585,165.24446 c 0,0 -34.6,-4.6 -47.4,-4.6 l -32.8,-14.6 -17.3,-101.999998 -75.600002,-40.0999999 48.300002,47.3999999 2.7,37.3 11.8,90.099998 -31.900002,16.4 -46.3,-11.7 -48.3,30 41,-7.3 35.5,15.5 60.100002,-5.5 43.7,5.5 25.5,24.6 28.2,51 -15.5,32.8 34.6,-31 -7.3,-50.1 -48.3,-56.5 32.8,-9.1 39.2,12.7 c -9.6,-8.6 -32.7,-30.8 -32.7,-30.8 z"
   style="opacity:1;fill:#5b3e24;fill-opacity:1;stroke:#312114;stroke-width:8.93;stroke-dasharray:none;stroke-opacity:1" /><path
   id="path3"
   class="st0"
   d="m 239.15585,165.24446 c 0,0 -34.6,-4.6 -47.4,-4.6 l -32.8,-14.6 -17.3,-101.999998 -75.600002,-40.0999999 48.300002,47.3999999 2.7,37.3 11.8,90.099998 -31.900002,16.4 -46.3,-11.7 -48.3,30 41,-7.3 35.5,15.5 60.100002,-5.5 43.7,5.5 25.5,24.6 28.2,51 -15.5,32.8 34.6,-31 -7.3,-50.1 -48.3,-56.5 32.8,-9.1 39.2,12.7 c -9.6,-8.6 -32.7,-30.8 -32.7,-30.8 z"
   style="opacity:1;fill:none;stroke:#312114;stroke-width:8.93;stroke-dasharray:none;stroke-opacity:1" />
<path
   id="path4"
   class="st1"
   d="m 139.40258,218.73792 -29.7,20 -33.000002,53.7 -65.8,8.7 55.4,-34.9 18.7,-54.9 43.600002,-30.6 -39.900002,-67.4 -52.7,-19.399998 -23.7,-58.1 44.9,39 59.600002,13 42.5,61.699998 c 14.9,-29.7 27.4,-47.3 27.4,-47.3 l 49.1,-22.799998 34.6,-42.8 -23.7,69.199998 -42.8,30 -17.2,43.9 34.9,31.2 57.6,16.4 29.1,59.2 -50.5,-36.4 -48.8,-7.3 -26.9,-18.9 2.3,44.4 -15.1,56 12.8,59.2 -41,-60 7.3,-43.7 z"
   style="fill:#6d4a2c;fill-opacity:1;stroke:#312114;stroke-width:8.93;stroke-dasharray:none;stroke-opacity:1" />





















<path
   id="path1"
   class="st1"
   d="m 139.40258,218.73792 -29.7,20 -33.000002,53.7 -65.8,8.7 55.4,-34.9 18.7,-54.9 43.600002,-30.6 -39.900002,-67.4 -52.7,-19.399998 -23.7,-58.1 44.9,39 59.600002,13 42.5,61.699998 c 14.9,-29.7 27.4,-47.3 27.4,-47.3 l 49.1,-22.799998 34.6,-42.8 -23.7,69.199998 -42.8,30 -17.2,43.9 34.9,31.2 57.6,16.4 29.1,59.2 -50.5,-36.4 -48.8,-7.3 -26.9,-18.9 2.3,44.4 -15.1,56 12.8,59.2 -41,-60 7.3,-43.7 z"
   style="fill:none;stroke:#312114;stroke-width:8.93;stroke-dasharray:none;stroke-opacity:1" /></svg>
