<?xml version="1.0" encoding="UTF-8" standalone="no"?>
<svg
   width="409.94717"
   height="433.62"
   viewBox="0 0 409.94718 433.62"
   fill="none"
   version="1.1"
   id="svg60"
   sodipodi:docname="oak_tree_3_desert.svg"
   inkscape:version="1.3.2 (091e20ef0f, 2023-11-25, custom)"
   xmlns:inkscape="http://www.inkscape.org/namespaces/inkscape"
   xmlns:sodipodi="http://sodipodi.sourceforge.net/DTD/sodipodi-0.dtd"
   xmlns="http://www.w3.org/2000/svg"
   xmlns:svg="http://www.w3.org/2000/svg">
  <defs
     id="defs64">
    <inkscape:path-effect
       effect="spiro"
       id="path-effect1678"
       is_visible="true"
       lpeversion="1" />
    <inkscape:path-effect
       effect="spiro"
       id="path-effect10413"
       is_visible="true"
       lpeversion="1" />
    <inkscape:path-effect
       effect="spiro"
       id="path-effect10194"
       is_visible="true"
       lpeversion="1" />
    <inkscape:path-effect
       effect="spiro"
       id="path-effect10041"
       is_visible="true"
       lpeversion="1" />
    <inkscape:path-effect
       effect="spiro"
       id="path-effect9649"
       is_visible="true"
       lpeversion="1" />
    <inkscape:path-effect
       effect="spiro"
       id="path-effect8649"
       is_visible="true"
       lpeversion="1" />
    <inkscape:path-effect
       effect="spiro"
       id="path-effect8496"
       is_visible="true"
       lpeversion="1" />
    <inkscape:path-effect
       effect="spiro"
       id="path-effect6297"
       is_visible="true"
       lpeversion="1" />
    <inkscape:path-effect
       effect="spiro"
       id="path-effect6036"
       is_visible="true"
       lpeversion="1" />
    <inkscape:path-effect
       effect="spiro"
       id="path-effect5039"
       is_visible="true"
       lpeversion="1" />
    <inkscape:path-effect
       effect="spiro"
       id="path-effect4886"
       is_visible="true"
       lpeversion="1" />
    <inkscape:path-effect
       effect="spiro"
       id="path-effect4497"
       is_visible="true"
       lpeversion="1" />
    <inkscape:path-effect
       effect="spiro"
       id="path-effect4344"
       is_visible="true"
       lpeversion="1" />
    <inkscape:path-effect
       effect="spiro"
       id="path-effect3526"
       is_visible="true"
       lpeversion="1" />
    <inkscape:path-effect
       effect="spiro"
       id="path-effect3056"
       is_visible="true"
       lpeversion="1" />
  </defs>
  <sodipodi:namedview
     id="namedview62"
     pagecolor="#505050"
     bordercolor="#ffffff"
     borderopacity="1"
     inkscape:pageshadow="0"
     inkscape:pageopacity="0"
     inkscape:pagecheckerboard="1"
     showgrid="false"
     width="368.403px"
     inkscape:zoom="2.0022989"
     inkscape:cx="216.50114"
     inkscape:cy="208.0109"
     inkscape:window-width="1920"
     inkscape:window-height="1011"
     inkscape:window-x="0"
     inkscape:window-y="32"
     inkscape:window-maximized="1"
     inkscape:current-layer="svg60"
     inkscape:showpageshadow="2"
     inkscape:deskcolor="#505050" />
  <path
     style="color:#000000;fill:#5b3e24;stroke-width:9;-inkscape-stroke:none"
     d="m 229.86251,127.08176 -75.39304,54.49201 -46.28088,-52.25261 -19.408117,-69.421315 -12.68991,61.956655 31.351557,95.54763 39.56268,16.42224 51.50614,50.75967 2.98587,93.30823 63.44959,52.2526 -33.59096,-55.23847 20.15457,-90.32236 -32.84449,-50.75967 h 32.84449 l 62.70313,26.1263 20.15457,44.04148 v -51.50614 l -26.1263,-35.08388 -100.77288,-29.11217 37.32329,-35.08389 48.52027,-26.12631 z"
     id="path6752" />
  <path
     style="color:#000000;fill:#312114;-inkscape-stroke:none"
     d="m 93.113903,58.688345 -8.74219,0.3086 -12.92969,63.126955 32.367187,98.64453 40.66015,16.87891 49.60157,48.88086 2.99414,93.54492 65.02148,53.54687 6.70508,-5.81054 -32.64844,-53.68946 20.16992,-90.39453 -29.375,-45.39843 h 23.67188 l 60.24414,25.10156 19.42187,42.4375 8.5918,-1.8711 v -52.99804 l -27.92187,-37.4961 -94.64063,-27.33984 31.13867,-29.26953 48.00196,-25.84766 -2.13477,-8.46289 h -64.9043 l -1.17968,0.85352 -72.0918,52.10547 -42.89258,-48.42774 z m -3.65821,20.3418 14.677737,52.500005 49.66992,56.07813 77.51758,-56.02735 h 44.14453 l -33.32617,17.94531 -43.50782,40.89649 106.90625,30.88476 24.33008,32.67188 v 29.36914 l -12.29687,-26.87109 -65.16016,-27.15039 h -42.01758 l 36.31446,56.11914 -20.13868,90.25195 20.72657,34.08203 -41.36524,-34.06445 -2.97851,-93.07227 -53.41211,-52.63672 -38.46485,-15.96679 -30.335927,-92.45118 z"
     id="path6754" />
  <path
     style="color:#000000;fill:#6d4a2c;stroke-width:9;stroke-linejoin:round;stroke-miterlimit:16;-inkscape-stroke:none"
     d="m 203.4003,188.32032 67.66264,4.53404 51.77187,-25.33505 82.61287,25.33356 -69.32578,6.19566 -46.33312,32.35779 -72.21161,2.56337 50.04605,80.46005 64.12738,21.99088 30.21694,69.66019 -55.38179,-45.90616 -72.40867,-14.17389 -49.10252,-75.59756 c -17.21798,36.31555 -30.76932,56.8344 -30.76932,56.8344 l -78.207217,29.7392 -52.87217,48.46653 31.94426,-67.19088 66.089087,-40.75554 c 0,0 16.42523,-27.25197 25.90237,-60.9116 l -43.52643,-26.1069 H 58.473963 l -53.9739436,-62.78672 53.9739436,28.64039 56.177527,-5.50891 36.84256,12.28085 7.10636,-42.24548 L 181.1392,90.413875 164.21831,4.4964072 210.48127,94.819515 Z"
     id="path3011" />
  <path
     style="color:#000000;fill:#312114;stroke-linejoin:round;stroke-miterlimit:16;-inkscape-stroke:none"
     d="M 164.85999,0.04577119 A 4.50045,4.50045 0 0 0 159.80335,5.3660832 L 176.44788,89.881705 154.4928,139.02234 a 4.50045,4.50045 0 0 0 -0.33008,1.08984 l -6.23242,37.06055 -31.85547,-10.61914 a 4.50045,4.50045 0 0 0 -1.86328,-0.20899 L 59.385383,171.72156 6.6099934,143.7157 a 4.50045,4.50045 0 0 0 -5.521485,6.91015 l 53.9726546,62.78516 a 4.50045,4.50045 0 0 0 3.41211,1.56836 h 43.916017 l 39.42382,23.64648 c -8.9249,29.86632 -22.52481,53.32867 -23.89648,55.64649 l -65.109377,40.15039 a 4.50045,4.50045 0 0 0 -1.70117,1.89844 l -31.94336,67.18945 a 4.50045,4.50045 0 0 0 7.10352,5.25 l 52.23633,-47.88477 77.402337,-29.43164 a 4.50045,4.50045 0 0 0 2.15625,-1.72656 c 0,0 11.99696,-18.53669 27.52539,-50.26367 l 44.81641,68.99805 a 4.50045,4.50045 0 0 0 2.91015,1.96484 l 71.28321,13.95312 54.5,45.17579 a 4.50045,4.50045 0 0 0 7,-5.25586 l -30.2168,-69.66016 a 4.50045,4.50045 0 0 0 -2.66992,-2.46484 l -62.61133,-21.47266 -45.09375,-72.5 64.44336,-2.28906 a 4.50045,4.50045 0 0 0 2.41797,-0.80664 l 45.34961,-31.67188 68.13281,-6.08984 a 4.50045,4.50045 0 0 0 0.91797,-8.78516 l -82.61133,-25.33203 a 4.50045,4.50045 0 0 0 -3.29883,0.25977 l -50.6914,24.80664 -61.9336,-4.15039 6.73828,-88.974615 a 4.50045,4.50045 0 0 0 -0.48242,-2.39063 L 168.22327,2.4442082 a 4.50045,4.50045 0 0 0 -3.36328,-2.39843701 z m 9.96875,35.03515381 31.07031,60.66211 -6.98633,92.238285 a 4.50045,4.50045 0 0 0 4.1875,4.82813 l 67.66211,4.53515 a 4.50045,4.50045 0 0 0 2.2793,-0.44922 l 50.17383,-24.55273 58.9375,18.07422 -46.43164,4.15039 a 4.50045,4.50045 0 0 0 -2.17578,0.79102 l -45.24414,31.59765 -70.88477,2.51563 a 4.50045,4.50045 0 0 0 -3.66016,6.875 l 50.04493,80.45898 a 4.50045,4.50045 0 0 0 2.36132,1.88086 l 62.25,21.34766 21.93555,50.57031 -40.89062,-33.89453 a 4.50045,4.50045 0 0 0 -2.00782,-0.95117 l -70.53711,-13.8086 -48.06445,-73.99804 a 4.50045,4.50045 0 0 0 -7.83984,0.52343 c -16.42003,34.63254 -28.73499,53.55589 -29.75,55.10742 l -76.759767,29.1875 a 4.50045,4.50045 0 0 0 -1.44141,0.88868 l -35.85546,32.86718 21.46093,-45.14062 64.958987,-40.05859 a 4.50045,4.50045 0 0 0 1.49219,-1.50782 c 0,0 16.70589,-27.65836 26.3789,-62.01367 a 4.50045,4.50045 0 0 0 -2.01562,-5.08008 l -43.52735,-26.10547 a 4.50045,4.50045 0 0 0 -2.31445,-0.64062 H 60.539683 l -37.07617,-43.13086 32.90039,17.45898 a 4.50045,4.50045 0 0 0 2.54882,0.50391 l 55.224607,-5.41602 35.9336,11.97852 a 4.50045,4.50045 0 0 0 5.86132,-3.52344 l 7.00977,-41.67968 22.30664,-49.921885 a 4.50045,4.50045 0 0 0 0.30664,-2.70508 z"
     id="path3013" />
</svg>
