<?xml version="1.0" encoding="UTF-8" standalone="no"?>
<!-- Created with Inkscape (http://www.inkscape.org/) -->

<svg
   width="1060.9919"
   height="353.07001"
   viewBox="0 0 280.72077 93.416442"
   version="1.1"
   id="svg5"
   inkscape:version="1.3.2 (091e20ef0f, 2023-11-25, custom)"
   sodipodi:docname="suroi_beta.svg"
   inkscape:export-filename="/home/desktopgeek/Downloads/suroi.png"
   inkscape:export-xdpi="768"
   inkscape:export-ydpi="768"
   xmlns:inkscape="http://www.inkscape.org/namespaces/inkscape"
   xmlns:sodipodi="http://sodipodi.sourceforge.net/DTD/sodipodi-0.dtd"
   xmlns:xlink="http://www.w3.org/1999/xlink"
   xmlns="http://www.w3.org/2000/svg"
   xmlns:svg="http://www.w3.org/2000/svg">
  <sodipodi:namedview
     id="namedview7"
     pagecolor="#505050"
     bordercolor="#ffffff"
     borderopacity="1"
     inkscape:pageshadow="0"
     inkscape:pageopacity="0"
     inkscape:pagecheckerboard="1"
     inkscape:document-units="px"
     showgrid="false"
     units="px"
     width="1060.992px"
     inkscape:zoom="0.70710678"
     inkscape:cx="531.03719"
     inkscape:cy="37.476659"
     inkscape:window-width="1920"
     inkscape:window-height="1011"
     inkscape:window-x="0"
     inkscape:window-y="32"
     inkscape:window-maximized="1"
     inkscape:current-layer="g1"
     height="353.07px"
     inkscape:showpageshadow="2"
     inkscape:deskcolor="#d1d1d1" />
  <defs
     id="defs2">
    <linearGradient
       inkscape:collect="always"
       id="linearGradient31523">
      <stop
         style="stop-color:#00d4ff;stop-opacity:1;"
         offset="0"
         id="stop31519" />
      <stop
         style="stop-color:#00d4ff;stop-opacity:0;"
         offset="1"
         id="stop31521" />
    </linearGradient>
    <linearGradient
       inkscape:collect="always"
       xlink:href="#linearGradient31523"
       id="linearGradient31525"
       x1="10.121879"
       y1="30.608253"
       x2="95.711456"
       y2="30.608253"
       gradientUnits="userSpaceOnUse" />
    <filter
       style="color-interpolation-filters:sRGB"
       inkscape:label="Drop Shadow"
       id="filter32941"
       x="-0.18707006"
       y="-0.096207474"
       width="1.5122842"
       height="1.2634605">
      <feFlood
         flood-opacity="0.498039"
         flood-color="rgb(0,0,0)"
         result="flood"
         id="feFlood32931" />
      <feComposite
         in="flood"
         in2="SourceGraphic"
         operator="in"
         result="composite1"
         id="feComposite32933" />
      <feGaussianBlur
         in="composite1"
         stdDeviation="0.5"
         result="blur"
         id="feGaussianBlur32935" />
      <feOffset
         dx="1.2"
         dy="1.2"
         result="offset"
         id="feOffset32937" />
      <feComposite
         in="SourceGraphic"
         in2="offset"
         operator="over"
         result="composite2"
         id="feComposite32939" />
    </filter>
    <filter
       style="color-interpolation-filters:sRGB"
       inkscape:label="Drop Shadow"
       id="filter32971"
       x="-0.01645325"
       y="-0.18372764"
       width="1.0470093"
       height="1.5249361">
      <feFlood
         flood-opacity="0.498039"
         flood-color="rgb(0,0,0)"
         result="flood"
         id="feFlood32961" />
      <feComposite
         in="flood"
         in2="SourceGraphic"
         operator="in"
         result="composite1"
         id="feComposite32963" />
      <feGaussianBlur
         in="composite1"
         stdDeviation="0.5"
         result="blur"
         id="feGaussianBlur32965" />
      <feOffset
         dx="1.2"
         dy="1.2"
         result="offset"
         id="feOffset32967" />
      <feComposite
         in="SourceGraphic"
         in2="offset"
         operator="over"
         result="composite2"
         id="feComposite32969" />
    </filter>
    <filter
       style="color-interpolation-filters:sRGB"
       inkscape:label="Drop Shadow"
       id="filter12025"
       x="-0.032561472"
       y="-0.11884911"
       width="1.0790267"
       height="1.2707981">
      <feFlood
         flood-opacity="0.498039"
         flood-color="rgb(0,0,0)"
         result="flood"
         id="feFlood12015" />
      <feComposite
         in="flood"
         in2="SourceGraphic"
         operator="in"
         result="composite1"
         id="feComposite12017" />
      <feGaussianBlur
         in="composite1"
         stdDeviation="0.5"
         result="blur"
         id="feGaussianBlur12019" />
      <feOffset
         dx="0.5"
         dy="0.5"
         result="offset"
         id="feOffset12021" />
      <feComposite
         in="SourceGraphic"
         in2="offset"
         operator="over"
         result="composite2"
         id="feComposite12023" />
    </filter>
  </defs>
  <g
     inkscape:label="Layer 1"
     inkscape:groupmode="layer"
     id="layer1">
    <g
       id="g1"
       transform="translate(-87.945151,-49.715628)">
      <g
         inkscape:label="Layer 1"
         id="layer1-8"
         transform="matrix(0.20530676,0,0,0.20530676,46.0462,-24.26622)">
        <circle
           style="fill:#6e460b;fill-opacity:0;stroke:#31220c;stroke-width:0;stroke-dasharray:none;stroke-opacity:1;paint-order:fill markers stroke"
           id="path22979-6"
           cx="23.757933"
           cy="114.93194"
           r="4.4693141" />
      </g>
      <g
         id="text112-7"
         transform="translate(-5955.8298,-730.40098)">
        <path
           style="color:#000000;-inkscape-font-specification:'Russo One Bold';fill:#678b98;fill-rule:evenodd;stroke-linecap:round;stroke-linejoin:round;stroke-miterlimit:20;-inkscape-stroke:none"
           d="m 6279.817,819.6792 v -17.94107 l -3.7858,1.31677 -1.6459,-3.78573 6.09,-2.63355 h 5.2671 v 23.04358 z m 20.7391,0.32919 q -5.4975,0 -12.1801,-0.65838 v -4.44412 q 7.2751,0.49379 10.8634,0.49379 0.7571,0 1.1851,-0.42795 0.4608,-0.46088 0.4608,-1.21802 v -1.64597 q 0,-1.97517 -1.9751,-1.97517 h -9.5467 v -13.49695 h 15.8014 v 4.60872 h -9.8759 v 4.27952 h 5.2671 q 3.2261,0 4.7404,1.48137 1.5143,1.44845 1.5143,4.44412 v 2.30436 q 0,3.2261 -1.5143,4.74039 -1.5143,1.51429 -4.7404,1.51429 z"
           id="path2" />
        <path
           style="color:#000000;-inkscape-font-specification:'Russo One Bold';fill:#101618;fill-rule:evenodd;stroke-linecap:round;stroke-linejoin:round;stroke-miterlimit:20;-inkscape-stroke:none"
           d="m 6280.4746,795.57617 a 1.0586059,1.0586059 0 0 0 -0.4199,0.0879 l -6.0899,2.63281 a 1.0586059,1.0586059 0 0 0 -0.5507,1.39454 l 1.6464,3.78515 a 1.0586059,1.0586059 0 0 0 1.3184,0.57813 l 2.3789,-0.82813 v 16.45313 a 1.0586059,1.0586059 0 0 0 1.0586,1.05859 h 5.9258 a 1.0586059,1.0586059 0 0 0 1.0586,-1.05859 v -23.04492 a 1.0586059,1.0586059 0 0 0 -1.0586,-1.0586 z m 8.8887,0 a 1.0586059,1.0586059 0 0 0 -1.0586,1.0586 v 13.49804 a 1.0586059,1.0586059 0 0 0 1.0586,1.0586 h 9.5469 c 0.4819,0 0.6527,0.10389 0.7324,0.18359 0.08,0.0797 0.1836,0.25044 0.1836,0.73242 v 1.64649 c 0,0.29002 -0.048,0.36644 -0.1504,0.46875 -0.065,0.0646 -0.1303,0.11914 -0.4356,0.11914 -2.3436,0 -5.9546,-0.16379 -10.7929,-0.49219 a 1.0586059,1.0586059 0 0 0 -1.1289,1.05664 v 4.44336 a 1.0586059,1.0586059 0 0 0 0.9531,1.05469 c 4.4832,0.44169 8.5779,0.66211 12.2851,0.66211 2.3164,0 4.213,-0.54894 5.4883,-1.82422 1.2753,-1.27529 1.8242,-3.17194 1.8242,-5.48828 v -2.30469 c 0,-2.17368 -0.5691,-3.98751 -1.8398,-5.20508 -1.278,-1.24603 -3.1636,-1.7793 -5.4727,-1.7793 h -4.2089 v -2.16211 h 8.8164 a 1.0586059,1.0586059 0 0 0 1.0586,-1.05859 v -4.60937 a 1.0586059,1.0586059 0 0 0 -1.0586,-1.0586 z m -8.668,2.11719 h 3.9883 v 20.92773 h -3.8086 v -16.88281 a 1.0586059,1.0586059 0 0 0 -1.4063,-1 l -2.8574,0.99414 -0.832,-1.91406 z m 9.7266,0 h 13.6836 v 2.49219 h -8.8164 a 1.0586059,1.0586059 0 0 0 -1.0586,1.05859 v 4.2793 a 1.0586059,1.0586059 0 0 0 1.0586,1.05859 h 5.2675 c 1.9888,0 3.2591,0.45487 4,1.17969 a 1.0586059,1.0586059 0 0 0 0.01,0.008 c 0.7461,0.71368 1.1875,1.86093 1.1875,3.67969 v 2.30469 c 0,1.98511 -0.4594,3.24842 -1.2032,3.99218 -0.7437,0.74377 -2.007,1.20313 -3.9922,1.20313 -3.3368,0 -7.1037,-0.23167 -11.123,-0.60156 v -2.33399 c 4.1327,0.26558 7.6178,0.44531 9.8066,0.44531 0.7042,0 1.4276,-0.23232 1.9336,-0.73828 0.5121,-0.5122 0.7696,-1.2473 0.7696,-1.96679 v -1.64649 c 0,-0.8348 -0.2241,-1.65178 -0.8028,-2.23047 -0.5786,-0.57869 -1.3957,-0.80273 -2.2304,-0.80273 h -8.4883 z"
           id="path3" />
      </g>
      <g
         id="g2"
         transform="translate(-5955.2355,-730.34089)">
        <g
           id="text112">
          <path
             style="color:#000000;-inkscape-font-specification:'Russo One Bold';fill:#f19d2a;fill-rule:evenodd;stroke-linecap:round;stroke-linejoin:round;stroke-miterlimit:20;-inkscape-stroke:none"
             d="m 6238.0559,807.65732 q 0,-3.30656 -3.3065,-3.30656 h -9.3686 q -3.3066,0 -3.3066,3.30656 v 17.63497 q 0,3.30656 3.3066,3.30656 h 9.3686 q 3.3065,0 3.3065,-3.30656 z m 9.9197,17.63497 q 0,5.78648 -2.6452,8.43173 -2.5902,2.59013 -8.3766,2.59013 h -13.7774 q -5.7864,0 -8.4317,-2.59013 -2.5901,-2.64525 -2.5901,-8.43173 v -17.63497 q 0,-5.78648 2.5901,-8.37661 2.6453,-2.64525 8.4317,-2.64525 h 13.7774 q 5.7864,0 8.3766,2.64525 2.6452,2.59013 2.6452,8.37661 z m 23.697,10.47077 h -19.8394 v -7.7153 h 4.9599 v -23.14591 h -4.9599 v -7.7153 h 19.8394 v 7.7153 h -4.9599 v 23.14591 h 4.9599 z"
             id="path4" />
          <path
             style="color:#000000;-inkscape-font-specification:'Russo One Bold';fill:#261703;fill-rule:evenodd;stroke-linecap:round;stroke-linejoin:round;stroke-miterlimit:20;-inkscape-stroke:none"
             d="m 6223.1758,795.57617 c -4.0189,0 -7.1433,0.92071 -9.1797,2.95703 -2.0054,2.0054 -2.9004,5.10945 -2.9004,9.125 v 17.63477 c 0,4.01556 0.896,7.13274 2.8926,9.17187 a 1.0584408,1.0584408 0 0 0 0.016,0.0156 c 2.0392,1.99663 5.1564,2.89258 9.1719,2.89258 h 13.7773 c 4.0155,0 7.1196,-0.89501 9.125,-2.90039 2.0363,-2.03634 2.9551,-5.16077 2.9551,-9.17969 V 807.6582 c 0,-4.0131 -0.9163,-7.12035 -2.9551,-9.12304 -2.0026,-2.04013 -5.1106,-2.95899 -9.125,-2.95899 z m 28.6582,0.55274 a 1.0584408,1.0584408 0 0 0 -1.0586,1.05859 v 7.71484 a 1.0584408,1.0584408 0 0 0 1.0586,1.0586 h 3.9004 v 21.02929 h -3.9004 a 1.0584408,1.0584408 0 0 0 -1.0586,1.05664 v 7.7168 a 1.0584408,1.0584408 0 0 0 1.0586,1.0586 h 19.8379 a 1.0584408,1.0584408 0 0 0 1.0586,-1.0586 v -7.7168 a 1.0584408,1.0584408 0 0 0 -1.0586,-1.05664 h -3.9004 v -21.02929 h 3.9004 a 1.0584408,1.0584408 0 0 0 1.0586,-1.0586 v -7.71484 a 1.0584408,1.0584408 0 0 0 -1.0586,-1.05859 z m -28.6582,1.56445 h 13.7773 c 3.6963,0 6.1699,0.84611 7.6211,2.32812 a 1.0584408,1.0584408 0 0 0 0.016,0.0156 c 1.482,1.45111 2.3282,3.92471 2.3282,7.62109 v 17.63477 c 0,3.69638 -0.8453,6.19293 -2.336,7.68359 -1.4481,1.44813 -3.9292,2.2793 -7.6289,2.2793 h -13.7773 c -3.6936,0 -6.1929,-0.82883 -7.6817,-2.28125 -1.4523,-1.48875 -2.2812,-3.98799 -2.2812,-7.68164 V 807.6582 c 0,-3.69974 0.8312,-6.1808 2.2793,-7.6289 1.4907,-1.49068 3.9873,-2.33594 7.6836,-2.33594 z m 29.7148,0.55078 h 17.7246 v 5.59961 h -3.9023 a 1.0584408,1.0584408 0 0 0 -1.0586,1.05859 v 23.14453 a 1.0584408,1.0584408 0 0 0 1.0586,1.0586 h 3.9023 v 5.59961 h -17.7246 v -5.59961 h 3.9024 a 1.0584408,1.0584408 0 0 0 1.0586,-1.0586 v -23.14453 a 1.0584408,1.0584408 0 0 0 -1.0586,-1.05859 h -3.9024 z m -27.5097,5.04883 c -1.2786,0 -2.428,0.33617 -3.2286,1.13672 -0.8005,0.80054 -1.1367,1.94994 -1.1367,3.22851 v 17.63477 c 0,1.27858 0.3362,2.42797 1.1367,3.22851 0.8006,0.80055 1.95,1.13477 3.2286,1.13477 h 9.3691 c 1.2786,0 2.428,-0.33422 3.2285,-1.13477 0.8005,-0.80054 1.1348,-1.94994 1.1348,-3.22851 V 807.6582 c 0,-1.27857 -0.3343,-2.42797 -1.1348,-3.22851 -0.8005,-0.80055 -1.9499,-1.13672 -3.2285,-1.13672 z m 0,2.11523 h 9.3691 c 0.9258,0 1.4288,0.21594 1.7305,0.51758 0.3016,0.30164 0.5175,0.80662 0.5175,1.73242 v 17.63477 c 0,0.9258 -0.2159,1.42883 -0.5175,1.73047 -0.3017,0.30164 -0.8047,0.51758 -1.7305,0.51758 h -9.3691 c -0.9259,0 -1.4308,-0.21594 -1.7325,-0.51758 -0.3016,-0.30165 -0.5156,-0.80468 -0.5156,-1.73047 V 807.6582 c 0,-0.92579 0.214,-1.43078 0.5156,-1.73242 0.3017,-0.30164 0.8066,-0.51758 1.7325,-0.51758 z"
             id="path5" />
        </g>
        <g
           id="text112-8">
          <path
             style="color:#000000;-inkscape-font-specification:'Russo One Bold';fill:#ffffff;fill-rule:evenodd;stroke-linecap:round;stroke-linejoin:round;stroke-miterlimit:20;-inkscape-stroke:none"
             d="m 6095.9066,827.49664 q 15.0999,0.82664 20.4455,0.82664 1.2676,0 1.984,-0.71642 0.7715,-0.77153 0.7715,-2.03905 v -4.95983 h -12.6751 q -5.7865,0 -8.4318,-2.59014 -2.5901,-2.64525 -2.5901,-8.43172 v -1.65328 q 0,-5.78648 2.5901,-8.37661 2.6453,-2.64525 8.4318,-2.64525 h 19.3433 v 7.7153 h -17.139 q -3.3065,0 -3.3065,3.30656 v 1.10218 q 0,3.30656 3.3065,3.30656 h 9.9197 q 5.4007,0 7.9357,2.53503 2.5351,2.53503 2.5351,7.93574 v 2.75546 q 0,5.40072 -2.5351,7.93574 -2.535,2.53503 -7.9357,2.53503 -2.8106,0 -5.9518,-0.11022 l -5.0701,-0.22044 q -5.6211,-0.27554 -11.628,-0.77153 z m 62.8796,-30.58566 h 9.9197 v 28.10574 q 0,5.78648 -2.6453,8.43172 -2.5901,2.59014 -8.3766,2.59014 h -12.6751 q -5.7865,0 -8.4318,-2.59014 -2.5901,-2.64524 -2.5901,-8.43172 v -28.10574 h 9.9197 v 28.10574 q 0,3.30656 3.3065,3.30656 h 8.2664 q 3.3066,0 3.3066,-3.30656 z m 16.5327,0 h 23.1459 q 5.7865,0 8.3766,2.64525 2.6452,2.59013 2.6452,8.37661 v 4.95984 q 0,4.57407 -1.543,7.10909 -1.488,2.53503 -4.7945,3.36167 l 6.8886,12.12405 h -10.7463 l -6.3375,-11.57295 h -7.7153 v 11.57295 h -9.9197 z m 24.2481,11.02186 q 0,-3.30656 -3.3066,-3.30656 h -11.0218 v 11.57295 h 11.0218 q 3.3066,0 3.3066,-3.30655 z"
             id="path6" />
          <path
             style="color:#000000;-inkscape-font-specification:'Russo One Bold';fill:#000000;fill-rule:evenodd;stroke-linecap:round;stroke-linejoin:round;stroke-miterlimit:20;-inkscape-stroke:none"
             d="m 6106.4316,795.85352 c -4.0189,0 -7.1433,0.91874 -9.1796,2.95507 -2.0054,2.0054 -2.9004,5.10945 -2.9004,9.125 v 1.65235 c 0,4.01555 0.8959,7.13274 2.8925,9.17187 a 1.0584408,1.0584408 0 0 0 0.016,0.0156 c 2.0391,1.99664 5.1563,2.89258 9.1718,2.89258 h 11.6172 v 3.90234 c 0,0.63029 -0.1515,0.98157 -0.4609,1.29101 -0.2569,0.25692 -0.5907,0.40626 -1.2363,0.40625 -3.5092,0 -10.327,-0.27545 -20.3868,-0.82617 a 1.0584408,1.0584408 0 0 0 -1.1171,1.05664 v 7.43946 a 1.0584408,1.0584408 0 0 0 0.9726,1.05468 c 4.0156,0.33157 7.9021,0.59108 11.6621,0.77539 a 1.0584408,1.0584408 0 0 0 0.01,0 l 5.0703,0.22071 a 1.0584408,1.0584408 0 0 0 0.01,0 c 2.1051,0.0739 4.1007,0.11133 5.9882,0.11133 3.7661,0 6.7279,-0.88996 8.6836,-2.84571 1.9558,-1.95573 2.8457,-4.91752 2.8457,-8.68359 v -2.75586 c 0,-3.76606 -0.8899,-6.72786 -2.8457,-8.68359 -1.9557,-1.95575 -4.9175,-2.84571 -8.6836,-2.84571 h -9.9199 c -0.9258,0 -1.4288,-0.21594 -1.7305,-0.51758 -0.3016,-0.30163 -0.5175,-0.80466 -0.5175,-1.73046 v -1.10157 c 0,-0.9258 0.2159,-1.43078 0.5175,-1.73242 0.3017,-0.30164 0.8047,-0.51562 1.7305,-0.51562 h 17.1387 a 1.0584408,1.0584408 0 0 0 1.0586,-1.0586 v -7.71679 a 1.0584408,1.0584408 0 0 0 -1.0586,-1.05664 z m 27.5547,0 a 1.0584408,1.0584408 0 0 0 -1.0586,1.05664 v 28.10742 c 0,4.01556 0.896,7.13275 2.8926,9.17187 a 1.0584408,1.0584408 0 0 0 0.016,0.0156 c 2.0392,1.99664 5.1583,2.89258 9.1739,2.89258 h 12.6738 c 4.0156,0 7.1196,-0.89499 9.125,-2.90039 2.0364,-2.03633 2.9551,-5.16077 2.9551,-9.17969 v -28.10742 a 1.0584408,1.0584408 0 0 0 -1.0586,-1.05664 h -9.918 a 1.0584408,1.0584408 0 0 0 -1.0586,1.05664 v 28.10742 c 0,0.92579 -0.2159,1.42882 -0.5176,1.73047 -0.3016,0.30164 -0.8046,0.51757 -1.7304,0.51757 h -8.2676 c -0.9258,0 -1.4288,-0.21593 -1.7305,-0.51757 -0.3016,-0.30164 -0.5176,-0.80467 -0.5176,-1.73047 v -28.10742 a 1.0584408,1.0584408 0 0 0 -1.0586,-1.05664 z m 41.3321,0 a 1.0584408,1.0584408 0 0 0 -1.0586,1.05664 v 38.57812 a 1.0584408,1.0584408 0 0 0 1.0586,1.05664 h 9.9199 a 1.0584408,1.0584408 0 0 0 1.0586,-1.05664 v -10.51562 h 6.0293 l 6.0371,11.02343 a 1.0584408,1.0584408 0 0 0 0.9277,0.54883 h 10.7461 a 1.0584408,1.0584408 0 0 0 0.9199,-1.58008 l -6.3183,-11.12304 c 1.7801,-0.70338 3.2923,-1.73501 4.2129,-3.30078 1.1714,-1.93034 1.6933,-4.48548 1.6933,-7.64844 v -4.95899 c 0,-4.0131 -0.9163,-7.12035 -2.9551,-9.12304 -2.0026,-2.04016 -5.1106,-2.95703 -9.125,-2.95703 z m -68.8868,2.11523 h 18.2852 v 5.59961 h -16.0801 c -1.2785,0 -2.428,0.33617 -3.2285,1.13672 -0.8005,0.80054 -1.1367,1.94994 -1.1367,3.22851 v 1.10157 c 0,1.27857 0.3362,2.42797 1.1367,3.22851 0.8005,0.80055 1.95,1.13672 3.2285,1.13672 h 9.9199 c 3.4349,0 5.7633,0.80032 7.1875,2.22461 1.4244,1.4243 2.2247,3.75262 2.2246,7.1875 v 2.75586 c 10e-5,3.43488 -0.8002,5.76321 -2.2246,7.1875 -1.4242,1.42429 -3.7526,2.22461 -7.1875,2.22461 -1.8574,0 -3.8262,-0.0365 -5.9062,-0.10938 h -0.01 l -5.0567,-0.2207 h -0.01 c -3.4203,-0.16772 -6.9779,-0.41436 -10.6153,-0.70508 v -5.34765 c 9.1901,0.4932 15.9653,0.7832 19.3868,0.7832 1.0444,0 2.0341,-0.32709 2.7324,-1.02539 0.7192,-0.71927 1.082,-1.72737 1.082,-2.78711 v -4.96094 a 1.0584408,1.0584408 0 0 0 -1.0586,-1.05859 h -12.6758 c -3.6913,0 -6.1886,-0.82858 -7.6777,-2.2793 -1.4534,-1.48855 -2.2851,-3.98853 -2.2852,-7.68359 v -1.65235 c 0,-3.69974 0.8332,-6.1808 2.2813,-7.6289 1.4907,-1.49067 3.9852,-2.33594 7.6816,-2.33594 z m 28.6133,0 h 7.8028 v 27.04883 c 0,1.27857 0.3361,2.42601 1.1367,3.22656 0.8005,0.80055 1.9499,1.13672 3.2285,1.13672 h 8.2676 c 1.2786,0 2.426,-0.33618 3.2265,-1.13672 0.8006,-0.80054 1.1368,-1.94799 1.1367,-3.22656 v -27.04883 h 7.8047 v 27.04883 c 0,3.69637 -0.8452,6.19098 -2.3359,7.68164 -1.4481,1.44811 -3.9292,2.28125 -7.6289,2.28125 h -12.6738 c -3.6937,0 -6.1929,-0.83079 -7.6817,-2.2832 -1.4524,-1.48875 -2.2832,-3.98604 -2.2832,-7.67969 z m 41.3321,0 h 22.0878 c 3.6964,0 6.17,0.84613 7.6211,2.32812 a 1.0584408,1.0584408 0 0 0 0.016,0.0156 c 1.4819,1.45112 2.3261,3.92471 2.3261,7.62109 v 4.95899 c 0,2.93037 -0.507,5.11007 -1.3886,6.55859 a 1.0584408,1.0584408 0 0 0 -0.01,0.0156 c -0.8441,1.43819 -2.145,2.37072 -4.1386,2.86914 a 1.0584408,1.0584408 0 0 0 -0.6641,1.55078 l 5.9902,10.54297 h -8.3007 l -6.0352,-11.02344 a 1.0584408,1.0584408 0 0 0 -0.9297,-0.55078 h -7.7148 a 1.0584408,1.0584408 0 0 0 -1.0586,1.05859 v 10.51563 h -7.8027 z m 8.8613,5.59961 a 1.0584408,1.0584408 0 0 0 -1.0586,1.05859 v 11.57227 a 1.0584408,1.0584408 0 0 0 1.0586,1.05859 h 11.0215 c 1.2786,0 2.4279,-0.33618 3.2285,-1.13672 0.8005,-0.80054 1.1367,-1.94994 1.1367,-3.22851 v -4.95899 c 0,-1.27857 -0.3362,-2.42797 -1.1367,-3.22851 -0.8006,-0.80054 -1.9499,-1.13672 -3.2285,-1.13672 z m 1.0586,2.11719 h 9.9629 c 0.9258,0 1.4307,0.21398 1.7324,0.51562 0.3016,0.30164 0.5156,0.80663 0.5156,1.73242 v 4.95899 c 0,0.92579 -0.214,1.43078 -0.5156,1.73242 -0.3017,0.30164 -0.8066,0.51563 -1.7324,0.51562 h -9.9629 z"
             id="path7" />
        </g>
      </g>
      <g
         id="text112-8-0"
         inkscape:label="text112-8-0"
         transform="translate(-5955.2365,-730.34089)">
        <path
           style="color:#000000;-inkscape-font-specification:'Russo One Bold';fill:#9ba63f;fill-rule:evenodd;stroke-linecap:round;stroke-linejoin:round;stroke-miterlimit:20;-inkscape-stroke:none"
           d="m 6084.1798,839.85607 h 9.8868 q 2.4222,0 3.5592,1.11226 1.137,1.08754 1.137,3.33678 0,1.48301 -0.6427,2.42226 -0.6426,0.91452 -1.5819,1.28527 2.0021,0.54378 2.7189,2.66943 0.2472,0.76622 0.2472,1.77962 0,2.42225 -1.137,3.55923 -1.137,1.13698 -3.5592,1.13698 h -10.6283 z m 10.8754,11.86411 q 0,-1.48301 -1.483,-1.48301 h -4.9434 v 3.46036 h 4.9434 q 1.483,0 1.483,-1.48301 z m -0.7415,-6.92073 q 0,-1.48302 -1.483,-1.48302 h -4.2019 v 3.46037 h 4.2019 q 1.483,0 1.483,-1.48301 z m 10.5047,12.35845 h -4.8198 l 6.55,-17.30183 h 4.9433 l 6.55,17.30183 h -4.8198 l -1.1122,-3.08961 h -6.1793 z m 2.2245,-6.30281 h 3.9547 l -1.9773,-5.80847 z m 18.9084,6.30281 h -4.4491 v -13.84147 h -5.1905 v -3.46036 h 14.8301 v 3.46036 h -5.1905 z m 15.3244,0 h -4.449 v -13.84147 h -5.1906 v -3.46036 h 14.8302 v 3.46036 h -5.1906 z m 11.3698,-3.46037 h 9.0216 v 3.46037 h -13.4707 v -17.30183 h 4.4491 z m 24.4697,3.46037 h -13.7179 v -17.30183 h 13.7179 v 3.46036 h -9.2688 v 3.33679 h 7.2914 v 3.46036 h -7.2914 v 3.58395 h 9.2688 z m 9.3924,-17.30183 h 10.381 q 2.5953,0 3.757,1.18641 1.1864,1.16169 1.1864,3.75697 v 2.22452 q 0,2.0515 -0.692,3.18848 -0.6674,1.13698 -2.1504,1.50773 l 3.0896,5.43772 h -4.8198 l -2.8424,-5.19055 h -3.4604 v 5.19055 h -4.449 z m 10.8754,4.94338 q 0,-1.48302 -1.483,-1.48302 h -4.9434 v 5.19055 h 4.9434 q 1.483,0 1.483,-1.48301 z m 18.0433,-0.24717 q 0,-1.48301 -1.483,-1.48301 h -4.2019 q -1.483,0 -1.483,1.48301 v 7.90941 q 0,1.48301 1.483,1.48301 h 4.2019 q 1.483,0 1.483,-1.48301 z m 4.449,7.90941 q 0,2.59527 -1.1864,3.78168 -1.1617,1.1617 -3.7569,1.1617 h -6.1793 q -2.5952,0 -3.7816,-1.1617 -1.1617,-1.18641 -1.1617,-3.78168 v -7.90941 q 0,-2.59528 1.1617,-3.75697 1.1864,-1.18641 3.7816,-1.18641 h 6.1793 q 2.5952,0 3.7569,1.18641 1.1864,1.16169 1.1864,3.75697 z m 0,-12.60562 h 4.6962 l 4.0783,8.40374 4.0783,-8.40374 h 4.6962 l -6.55,12.7292 v 4.57263 h -4.449 v -4.57263 z m 19.6499,17.30183 h -4.8198 l 6.55,-17.30183 h 4.9433 l 6.55,17.30183 h -4.8198 l -1.1122,-3.08961 h -6.1793 z m 2.2245,-6.30281 h 3.9547 l -1.9774,-5.80847 z m 16.6839,2.84244 h 9.0217 v 3.46037 h -13.4708 v -17.30183 h 4.4491 z m 24.4697,3.46037 h -13.7179 v -17.30183 h 13.7179 v 3.46036 h -9.2688 v 3.33679 h 7.2914 v 3.46036 h -7.2914 v 3.58395 h 9.2688 z"
           id="path8" />
        <path
           style="color:#000000;-inkscape-font-specification:'Russo One Bold';fill:#1c1e0b;fill-rule:evenodd;stroke-linecap:round;stroke-linejoin:round;stroke-miterlimit:20;-inkscape-stroke:none"
           d="m 6208.752,839.06055 c -1.8136,0 -3.236,0.41559 -4.168,1.34765 -0.9186,0.91859 -1.3223,2.33267 -1.3223,4.14453 v 7.90821 c 0,1.81185 0.4043,3.23251 1.3184,4.16601 a 0.54746475,0.54746475 0 0 0 0.01,0.008 c 0.9335,0.91406 2.3522,1.31835 4.1641,1.31835 h 6.1796 c 1.8119,0 3.226,-0.40368 4.1446,-1.32226 0.932,-0.93206 1.3457,-2.35633 1.3457,-4.16992 v -7.90821 c 0,-1.81088 -0.4141,-3.22542 -1.3477,-4.14257 -0.9171,-0.93358 -2.3317,-1.34961 -4.1426,-1.34961 z m -124.5723,0.24804 a 0.54746475,0.54746475 0 0 0 -0.5469,0.54688 v 17.30273 a 0.54746475,0.54746475 0 0 0 0.5469,0.54688 h 10.6289 c 1.7004,0 3.0499,-0.40146 3.9453,-1.29688 0.8954,-0.89542 1.2969,-2.24678 1.2969,-3.94726 0,-0.72011 -0.087,-1.36934 -0.2735,-1.94727 a 0.54746475,0.54746475 0 0 0 0,-0.006 c -0.4149,-1.23035 -1.262,-2.04368 -2.3067,-2.57617 0.3827,-0.27433 0.8109,-0.47771 1.0997,-0.88867 a 0.54746475,0.54746475 0 0 0 0,-0.006 c 0.5043,-0.73698 0.7382,-1.66467 0.7382,-2.73242 0,-1.58945 -0.4111,-2.87319 -1.3027,-3.72852 v -0.002 c -0.8969,-0.87611 -2.2421,-1.26563 -3.9395,-1.26563 z m 22.3691,0 a 0.54746475,0.54746475 0 0 0 -0.5117,0.35352 l -6.5508,17.30273 a 0.54746475,0.54746475 0 0 0 0.5117,0.74024 h 4.8204 a 0.54746475,0.54746475 0 0 0 0.5156,-0.36133 l 0.9805,-2.72852 h 5.4101 l 0.9824,2.72852 a 0.54746475,0.54746475 0 0 0 0.5157,0.36133 h 4.8183 a 0.54746475,0.54746475 0 0 0 0.5137,-0.74024 l -6.5508,-17.30273 a 0.54746475,0.54746475 0 0 0 -0.5117,-0.35352 z m 9.7637,0 a 0.54746475,0.54746475 0 0 0 -0.5488,0.54688 v 3.46094 a 0.54746475,0.54746475 0 0 0 0.5488,0.54687 h 4.6426 v 13.29492 a 0.54746475,0.54746475 0 0 0 0.5469,0.54688 h 4.4492 a 0.54746475,0.54746475 0 0 0 0.5468,-0.54688 v -13.29492 h 4.6446 a 0.54746475,0.54746475 0 0 0 0.2461,-0.24609 0.54746475,0.54746475 0 0 0 0.248,0.24609 h 4.6426 v 13.29492 a 0.54746475,0.54746475 0 0 0 0.5469,0.54688 h 4.4492 a 0.54746475,0.54746475 0 0 0 0.5469,-0.54688 v -13.29492 h 4.6445 a 0.54746475,0.54746475 0 0 0 0.5469,-0.54687 v -3.46094 a 0.54746475,0.54746475 0 0 0 -0.5469,-0.54688 h -14.8301 a 0.54746475,0.54746475 0 0 0 -0.248,0.2461 0.54746475,0.54746475 0 0 0 -0.2461,-0.2461 z m 31.8848,0 a 0.54746475,0.54746475 0 0 0 -0.5489,0.54688 v 17.30273 a 0.54746475,0.54746475 0 0 0 0.5489,0.54688 h 13.4707 a 0.54746475,0.54746475 0 0 0 0.5468,-0.54688 v -3.46093 a 0.54746475,0.54746475 0 0 0 -0.5468,-0.54688 h -8.4746 v -13.29492 a 0.54746475,0.54746475 0 0 0 -0.5489,-0.54688 z m 15.1992,0 a 0.54746475,0.54746475 0 0 0 -0.5469,0.54688 v 17.30273 a 0.54746475,0.54746475 0 0 0 0.5469,0.54688 h 13.7187 a 0.54746475,0.54746475 0 0 0 0.5469,-0.54688 v -3.46093 a 0.54746475,0.54746475 0 0 0 -0.5469,-0.54688 h -8.7207 v -2.49023 h 6.7442 a 0.54746475,0.54746475 0 0 0 0.5468,-0.54688 v -3.46094 a 0.54746475,0.54746475 0 0 0 -0.5468,-0.54687 h -6.7442 v -2.24219 h 8.7207 a 0.54746475,0.54746475 0 0 0 0.5469,-0.54687 v -3.46094 a 0.54746475,0.54746475 0 0 0 -0.5469,-0.54688 z m 23.1113,0 a 0.54746475,0.54746475 0 0 0 -0.5469,0.54688 v 17.30273 a 0.54746475,0.54746475 0 0 0 0.5469,0.54688 h 4.4492 a 0.54746475,0.54746475 0 0 0 0.5469,-0.54688 v -4.64258 h 2.5879 l 2.6875,4.9043 a 0.54746475,0.54746475 0 0 0 0.4805,0.28516 h 4.8203 a 0.54746475,0.54746475 0 0 0 0.4746,-0.81836 l -2.7949,-4.91797 c 0.7743,-0.32299 1.4398,-0.78103 1.8476,-1.47266 v -0.002 c 0.5368,-0.88271 0.7715,-2.04225 0.7715,-3.4707 v -2.22461 c 0,-1.80969 -0.4134,-3.22342 -1.3457,-4.14063 -0.9171,-0.9344 -2.3329,-1.34961 -4.1445,-1.34961 z m 33.3672,0 a 0.54746475,0.54746475 0 0 0 -0.4863,0.79883 l 6.4883,12.61133 v 4.43945 a 0.54746475,0.54746475 0 0 0 0.5488,0.54688 h 4.4492 a 0.54746475,0.54746475 0 0 0 0.5469,-0.54688 v -4.43945 l 6.4883,-12.61133 a 0.54746475,0.54746475 0 0 0 -0.4864,-0.79883 h -4.6953 a 0.54746475,0.54746475 0 0 0 -0.4922,0.3086 l -3.5859,7.39062 -3.5859,-7.39062 a 0.54746475,0.54746475 0 0 0 -0.4922,-0.3086 z m 21.3809,0 a 0.54746475,0.54746475 0 0 0 -0.5118,0.35352 l -6.5507,17.30273 a 0.54746475,0.54746475 0 0 0 0.5117,0.74024 h 4.8203 a 0.54746475,0.54746475 0 0 0 0.5156,-0.36133 l 0.9805,-2.72852 h 5.4101 l 0.9825,2.72852 a 0.54746475,0.54746475 0 0 0 0.5156,0.36133 h 4.8183 a 0.54746475,0.54746475 0 0 0 0.5118,-0.74024 l -6.5489,-17.30273 a 0.54746475,0.54746475 0 0 0 -0.5117,-0.35352 z m 12.7285,0 a 0.54746475,0.54746475 0 0 0 -0.5469,0.54688 v 17.30273 a 0.54746475,0.54746475 0 0 0 0.5469,0.54688 h 13.4707 a 0.54746475,0.54746475 0 0 0 0.5469,-0.54688 v -3.46093 a 0.54746475,0.54746475 0 0 0 -0.5469,-0.54688 h -8.4746 v -13.29492 a 0.54746475,0.54746475 0 0 0 -0.5469,-0.54688 z m 15.2011,0 a 0.54746475,0.54746475 0 0 0 -0.5468,0.54688 v 17.30273 a 0.54746475,0.54746475 0 0 0 0.5468,0.54688 h 13.7168 a 0.54746475,0.54746475 0 0 0 0.5489,-0.54688 v -3.46093 a 0.54746475,0.54746475 0 0 0 -0.5489,-0.54688 h -8.7207 v -2.49023 h 6.7442 a 0.54746475,0.54746475 0 0 0 0.5469,-0.54688 v -3.46094 a 0.54746475,0.54746475 0 0 0 -0.5469,-0.54687 h -6.7442 v -2.24219 h 8.7207 a 0.54746475,0.54746475 0 0 0 0.5489,-0.54687 v -3.46094 a 0.54746475,0.54746475 0 0 0 -0.5489,-0.54688 z m -60.4335,0.84766 h 6.1796 c 1.6468,0 2.7334,0.37614 3.3653,1.02148 a 0.54746475,0.54746475 0 0 0 0.01,0.008 c 0.6454,0.63189 1.0215,1.72041 1.0215,3.36718 v 7.90821 c 0,1.64676 -0.3756,2.74471 -1.0254,3.39453 -0.6303,0.63035 -1.7226,1.00195 -3.3711,1.00195 h -6.1796 c -1.6461,0 -2.7458,-0.37071 -3.3946,-1.0039 -0.6315,-0.64911 -1,-1.74882 -1,-3.39258 v -7.90821 c 0,-1.6485 0.3697,-2.74075 1,-3.37109 0.6498,-0.64982 1.7478,-1.02539 3.3946,-1.02539 z m -124.0254,0.24805 h 9.3398 c 1.531,0 2.5567,0.34945 3.1758,0.95507 a 0.54746475,0.54746475 0 0 0 0.01,0.004 c 0.6218,0.59473 0.9668,1.53415 0.9668,2.94141 0,0.90802 -0.1953,1.59431 -0.5468,2.10937 -0.3757,0.53325 -0.8085,0.88397 -1.3301,1.08985 a 0.54746475,0.54746475 0 0 0 0.057,1.03711 c 1.1757,0.31931 1.9086,1.03202 2.3418,2.31445 4e-4,9.7e-4 0,9.8e-4 0,0.002 0.1418,0.44243 0.2187,0.97553 0.2187,1.60352 0,1.52918 -0.356,2.55328 -0.9765,3.17383 -0.6206,0.62055 -1.6428,0.97656 -3.1719,0.97656 h -10.082 z m 22.1992,0 h 4.1875 l 6.1367,16.20703 h -3.6426 l -0.9824,-2.72852 a 0.54746475,0.54746475 0 0 0 -0.5156,-0.36133 h -6.1797 a 0.54746475,0.54746475 0 0 0 -0.5137,0.36133 l -0.9824,2.72852 h -3.6445 z m 9.9336,0 h 13.7343 v 2.36523 h -4.6425 a 0.54746475,0.54746475 0 0 0 -0.5469,0.54688 v 13.29492 h -3.3555 v -13.29492 a 0.54746475,0.54746475 0 0 0 -0.5468,-0.54688 h -4.6426 z m 15.3242,0 h 13.7344 v 2.36523 h -4.6426 a 0.54746475,0.54746475 0 0 0 -0.5469,0.54688 v 13.29492 h -3.3535 v -13.29492 a 0.54746475,0.54746475 0 0 0 -0.5488,-0.54688 h -4.6426 z m 16.5605,0 h 3.3536 v 13.29297 a 0.54746475,0.54746475 0 0 0 0.5468,0.54687 h 8.4746 v 2.36719 h -12.375 z m 15.2012,0 h 12.6231 v 2.36523 h -8.7227 a 0.54746475,0.54746475 0 0 0 -0.5469,0.54688 v 3.33593 a 0.54746475,0.54746475 0 0 0 0.5469,0.54883 h 6.7441 v 2.36524 h -6.7441 a 0.54746475,0.54746475 0 0 0 -0.5469,0.54687 v 3.58399 a 0.54746475,0.54746475 0 0 0 0.5469,0.54687 h 8.7227 v 2.36719 h -12.6231 z m 23.1094,0 h 9.834 c 1.6468,0 2.7333,0.37614 3.3652,1.02148 a 0.54746475,0.54746475 0 0 0 0.01,0.008 c 0.6453,0.63189 1.0235,1.71847 1.0235,3.36524 v 2.22461 c 0,1.30611 -0.228,2.27121 -0.6133,2.90429 a 0.54746475,0.54746475 0 0 0 0,0.008 c -0.3685,0.62773 -0.9309,1.03398 -1.8106,1.2539 a 0.54746475,0.54746475 0 0 0 -0.3437,0.80078 l 2.625,4.6211 h -3.5547 l -2.6875,-4.90625 a 0.54746475,0.54746475 0 0 0 -0.4785,-0.28516 h -3.461 a 0.54746475,0.54746475 0 0 0 -0.5468,0.54688 v 4.64453 h -3.3555 z m 33.7168,0 h 3.457 l 3.9297,8.09375 a 0.54746475,0.54746475 0 0 0 0.9844,0 l 3.9277,-8.09375 h 3.457 l -6.1406,11.92968 a 0.54746475,0.54746475 0 0 0 -0.06,0.25196 v 4.02539 h -3.3535 v -4.02539 a 0.54746475,0.54746475 0 0 0 -0.061,-0.25196 z m 20.8613,0 h 4.1875 l 6.1367,16.20703 h -3.6425 l -0.9825,-2.72852 a 0.54746475,0.54746475 0 0 0 -0.5156,-0.36133 h -6.1797 a 0.54746475,0.54746475 0 0 0 -0.5137,0.36133 l -0.9824,2.72852 h -3.6445 z m 12.8984,0 h 3.3555 v 13.29297 a 0.54746475,0.54746475 0 0 0 0.5469,0.54687 h 8.4746 v 2.36719 h -12.377 z m 15.2012,0 h 12.6231 v 2.36523 h -8.7207 a 0.54746475,0.54746475 0 0 0 -0.5469,0.54688 v 3.33593 a 0.54746475,0.54746475 0 0 0 0.5469,0.54883 h 6.7441 v 2.36524 h -6.7441 a 0.54746475,0.54746475 0 0 0 -0.5469,0.54687 v 3.58399 a 0.54746475,0.54746475 0 0 0 0.5469,0.54687 h 8.7207 v 2.36719 h -12.6231 z m -59.9902,2.11718 c -0.5856,0 -1.1238,0.15506 -1.5,0.53125 -0.3762,0.3762 -0.5313,0.91443 -0.5313,1.5 v 7.90821 c 0,0.58557 0.1551,1.1238 0.5313,1.5 0.3762,0.37619 0.9144,0.53125 1.5,0.53125 h 4.2012 c 0.5855,0 1.1238,-0.15506 1.5,-0.53125 0.3762,-0.3762 0.5312,-0.91443 0.5312,-1.5 v -7.90821 c 0,-0.58557 -0.155,-1.1238 -0.5312,-1.5 -0.3762,-0.37619 -0.9145,-0.53125 -1.5,-0.53125 z m -121.1133,0.24805 a 0.54746475,0.54746475 0 0 0 -0.5469,0.54688 v 3.46093 a 0.54746475,0.54746475 0 0 0 0.5469,0.54688 h 4.2012 c 0.5855,0 1.1238,-0.15506 1.5,-0.53125 0.3762,-0.3762 0.5312,-0.91443 0.5312,-1.5 v -0.49414 c 0,-0.58558 -0.155,-1.12185 -0.5312,-1.49805 -0.3762,-0.3762 -0.9145,-0.53125 -1.5,-0.53125 z m 102.3281,0 a 0.54746475,0.54746475 0 0 0 -0.5468,0.54688 v 5.1914 a 0.54746475,0.54746475 0 0 0 0.5468,0.54688 h 4.9434 c 0.5856,0 1.1218,-0.15506 1.498,-0.53125 0.3762,-0.3762 0.5313,-0.91443 0.5313,-1.5 v -2.22461 c 0,-0.58558 -0.1551,-1.12185 -0.5313,-1.49805 -0.3762,-0.3762 -0.9124,-0.53125 -1.498,-0.53125 z m 18.7852,0.84766 h 4.2012 c 0.4031,0 0.6064,0.0908 0.7246,0.20898 0.1181,0.11814 0.2109,0.32346 0.2109,0.72656 v 7.90821 c 0,0.4031 -0.093,0.60842 -0.2109,0.72656 -0.1182,0.11814 -0.3215,0.20898 -0.7246,0.20898 h -4.2012 c -0.4031,0 -0.6084,-0.0908 -0.7266,-0.20898 -0.1181,-0.11814 -0.209,-0.32346 -0.209,-0.72656 v -7.90821 c 0,-0.4031 0.091,-0.60842 0.209,-0.72656 0.1182,-0.11814 0.3235,-0.20898 0.7266,-0.20898 z m -120.5664,0.24609 h 3.6543 c 0.4031,0 0.6084,0.0928 0.7265,0.21094 0.1182,0.11814 0.209,0.3215 0.209,0.72461 v 0.49414 c 0,0.4031 -0.091,0.60842 -0.209,0.72656 -0.1181,0.11814 -0.3234,0.20899 -0.7265,0.20899 h -3.6543 z m 102.3281,0 h 4.3965 c 0.4031,0 0.6065,0.0928 0.7246,0.21094 0.1181,0.11814 0.2109,0.3215 0.2109,0.72461 v 2.22461 c 0,0.4031 -0.093,0.60842 -0.2109,0.72656 -0.1181,0.11814 -0.3215,0.20898 -0.7246,0.20898 h -4.3965 z M 6109.0195,844.5 a 0.54746475,0.54746475 0 0 0 -0.5175,0.37109 l -1.9766,5.80664 a 0.54746475,0.54746475 0 0 0 0.5176,0.72461 h 3.955 a 0.54746475,0.54746475 0 0 0 0.5176,-0.72461 l -1.9765,-5.80664 A 0.54746475,0.54746475 0 0 0 6109.0195,844.5 Z m 134.7071,0 a 0.54746475,0.54746475 0 0 0 -0.5176,0.37109 l -1.9766,5.80664 a 0.54746475,0.54746475 0 0 0 0.5176,0.72461 h 3.9551 a 0.54746475,0.54746475 0 0 0 0.5176,-0.72461 l -1.9766,-5.80664 A 0.54746475,0.54746475 0 0 0 6243.7266,844.5 Z m -134.7071,2.24609 1.2129,3.5625 h -2.4258 z m 134.7071,0 1.2129,3.5625 h -2.4258 z m -155.0977,2.94336 a 0.54746475,0.54746475 0 0 0 -0.5469,0.54688 v 3.46094 a 0.54746475,0.54746475 0 0 0 0.5469,0.54687 h 4.9434 c 0.5855,0 1.1238,-0.15506 1.5,-0.53125 0.3762,-0.37619 0.5312,-0.91248 0.5312,-1.49805 v -0.49414 c 0,-0.58557 -0.155,-1.1238 -0.5312,-1.5 -0.3762,-0.37619 -0.9145,-0.53125 -1.5,-0.53125 z m 0.5469,1.09571 h 4.3965 c 0.4031,0 0.6064,0.0908 0.7246,0.20898 0.1181,0.11814 0.2109,0.32346 0.2109,0.72656 v 0.49414 c 0,0.40311 -0.093,0.60647 -0.2109,0.72461 -0.1182,0.11815 -0.3215,0.21094 -0.7246,0.21094 h -4.3965 z"
           id="path9" />
      </g>
    </g>
  </g>
</svg>
