<?xml version="1.0" encoding="UTF-8" standalone="no"?>
<svg
   version="1.1"
   width="84"
   height="84"
   viewBox="0 0 83.999996 83.999996"
   id="svg40"
   sodipodi:docname="boykisser.svg"
   inkscape:version="1.3 (0e150ed, 2023-07-21)"
   xmlns:inkscape="http://www.inkscape.org/namespaces/inkscape"
   xmlns:sodipodi="http://sodipodi.sourceforge.net/DTD/sodipodi-0.dtd"
   xmlns="http://www.w3.org/2000/svg"
   xmlns:svg="http://www.w3.org/2000/svg">
  <defs
     id="defs44" />
  <sodipodi:namedview
     id="namedview42"
     pagecolor="#505050"
     bordercolor="#ffffff"
     borderopacity="1"
     inkscape:pageshadow="0"
     inkscape:pageopacity="0"
     inkscape:pagecheckerboard="1"
     showgrid="false"
     inkscape:zoom="3.3589188"
     inkscape:cx="14.141455"
     inkscape:cy="22.626329"
     inkscape:window-width="1312"
     inkscape:window-height="449"
     inkscape:window-x="0"
     inkscape:window-y="25"
     inkscape:window-maximized="0"
     inkscape:current-layer="svg40"
     inkscape:showpageshadow="2"
     inkscape:deskcolor="#d1d1d1" />
  <g
     id="g1"
     transform="matrix(0.15687883,0,0,0.15687883,1.4119088,52.868167)">
    <rect
       style="fill:#ffffff;fill-opacity:1;stroke:none;stroke-width:15.1181;stroke-linecap:round;stroke-linejoin:round;stroke-opacity:1"
       id="rect25"
       width="49.345387"
       height="15.676892"
       x="451.64499"
       y="-101.5135" />
    <path
       style="fill:none;fill-opacity:1;stroke:#000000;stroke-width:15.1181;stroke-linecap:round;stroke-linejoin:round;stroke-opacity:1"
       d="m 31.868876,-326.48826 c -13.471692,83.85134 -13.306031,159.64669 26.307167,228.969801 16.144286,28.639106 -47.577056,-7.960291 -59.4347077,3.897336 -3.9718942,3.971905 42.1245247,41.479711 51.7752157,51.158022 0.731618,0.73372 -5.916832,19.443175 -8.90428,29.71219 -0.82738,2.8440187 -10.694801,37.999219 -9.743395,37.999219 5.834653,0 50.917429,-5.594268 54.563014,-1.948687 21.74411,21.744114 90.79122,35.076246 122.76678,35.076246"
       id="path1"
       sodipodi:nodetypes="ccsssssc" />
    <path
       style="fill:none;fill-opacity:1;stroke:#000000;stroke-width:15.1181;stroke-linecap:round;stroke-linejoin:round;stroke-opacity:1"
       d="m 140.02056,55.452819 c 0.19231,16.311534 25.8096,26.783962 41.8966,42.870954 11.72136,11.721337 -39.97721,29.200897 -28.25585,40.922227 5.03142,5.03142 25.75969,-14.18819 34.10188,-5.84602 7.29853,7.29853 -6.82036,19.88285 -6.82036,30.20455 0,8.38076 -2.20779,12.99126 -3.19193,21.8485"
       id="path2-7"
       sodipodi:nodetypes="cssssc" />
    <path
       style="fill:none;fill-opacity:1;stroke:#000000;stroke-width:15.1181;stroke-linecap:round;stroke-linejoin:round;stroke-opacity:1"
       d="m 144.74809,-325.65808 c 18.05962,21.83732 44.46435,79.22942 72.24529,76.14264 3.89831,-0.43314 12.30332,-8.40595 14.6151,-10.71773 8.32159,-8.32159 4.28869,-20.65279 -0.97434,-31.17887 -8.6962,-17.39239 -23.08364,-46.9929 3.89736,-35.07622 23.41861,10.34328 57.50194,17.55403 76.97283,37.0249 2.86201,2.86201 29.96274,31.17887 31.17884,31.17887 2.68074,0 7.76791,-24.2781 8.76907,-27.28151 5.25343,-15.76027 14.82769,-29.38204 28.25586,-38.97358"
       id="path3"
       sodipodi:nodetypes="csssssscc" />
    <path
       style="fill:none;fill-opacity:1;stroke:#000000;stroke-width:15.1181;stroke-linecap:round;stroke-linejoin:round;stroke-opacity:1"
       d="m 204.32696,-252.31439 c -78.80887,40.04246 13.38232,25.33282 50.66567,25.33282"
       id="path4" />
    <path
       style="fill:none;fill-opacity:1;stroke:#000000;stroke-width:15.1181;stroke-linecap:round;stroke-linejoin:round;stroke-opacity:1"
       d="m 357.29826,43.760774 c 21.67684,45.294842 47.37328,91.186736 53.58868,147.125256"
       id="path6" />
    <path
       style="fill:none;fill-opacity:1;stroke:#000000;stroke-width:15.1181;stroke-linecap:round;stroke-linejoin:round;stroke-opacity:1"
       d="m 113.97937,-134.79866 c -9.48898,15.8894 -19.849331,63.072718 -2.05905,84.42104"
       id="path9" />
    <path
       style="fill:none;fill-opacity:1;stroke:#000000;stroke-width:15.1181;stroke-linecap:round;stroke-linejoin:round;stroke-opacity:1"
       d="m 400.1976,-142.61159 c 8.96069,24.17995 24.76558,61.156993 10.29525,86.48013"
       id="path10-9" />
    <path
       style="fill:none;fill-opacity:1;stroke:#000000;stroke-width:15.1181;stroke-linecap:round;stroke-linejoin:round;stroke-opacity:1"
       d="m 223.1193,-47.208902 c 11.4977,1.521297 22.07718,-0.686362 33.63114,-0.686362"
       id="path12-3" />
    <path
       style="fill:none;fill-opacity:1;stroke:#ff0200;stroke-width:15.1181;stroke-linecap:round;stroke-linejoin:round;stroke-opacity:1"
       d="m 72.808636,-25.932052 c 32.594314,-19.757329 15.221707,6.985475 22.649548,14.413342 1.546231,1.5462051 29.744966,-14.47132 32.258466,-15.099704"
       id="path13" />
    <path
       style="fill:none;fill-opacity:1;stroke:#ff0200;stroke-width:15.1181;stroke-linecap:round;stroke-linejoin:round;stroke-opacity:1"
       d="m 377.54803,-24.559365 c -4.67312,4.802154 5.78819,-6.536617 15.78606,-14.413342 3.18448,-2.50885 2.14976,7.821922 3.43174,11.667931 0.61489,1.844598 1.88198,13.904088 2.05905,13.727017 6.4549,-6.454904 13.69054,-15.641272 21.27685,-21.963212"
       id="path14-8"
       sodipodi:nodetypes="csssc" />
    <path
       style="fill:#000000;fill-opacity:1;stroke:#000000;stroke-width:14.5988;stroke-linecap:round;stroke-linejoin:round;stroke-opacity:1"
       d="m 156.44548,-131.11321 c -5.99548,21.49081 -7.35752,59.224597 21.79779,72.571281 4.01511,1.838022 8.68529,-1.783332 10.30441,-3.265701 18.53842,-16.972989 25.95553,-46.09621 18.62721,-72.93415"
       id="path15" />
    <path
       style="fill:#000000;fill-opacity:1;stroke:#000000;stroke-width:14.6271;stroke-linecap:round;stroke-linejoin:round;stroke-opacity:1"
       d="m 313.00231,-141.93063 c -2.22693,24.52456 -9.89238,63.189583 16.65067,75.380184 35.09171,16.116851 33.74355,-62.172244 32.11197,-78.657604"
       id="path16-0" />
    <path
       style="fill:none;fill-opacity:1;stroke:#000000;stroke-width:15.1181;stroke-linecap:round;stroke-linejoin:round;stroke-opacity:1"
       d="m 206.19069,2.1122322 c 14.55186,10.4470298 33.42946,3.5670048 45.61965,-8.623219 1.43029,-1.4302866 34.96159,7.07138277 35.60558,7.23239065 C 298.8781,3.5869283 309.10547,-7.8027537 315.2328,-12.908858"
       id="path17" />
    <path
       style="fill:none;fill-opacity:1;stroke:#000000;stroke-width:15.1181;stroke-linecap:round;stroke-linejoin:round;stroke-opacity:1"
       d="m 93.165304,-139.34139 c 37.340586,-0.1149 74.936406,1.68926 111.913626,1.68926"
       id="path18-2" />
    <path
       style="fill:none;fill-opacity:1;stroke:#000000;stroke-width:15.1181;stroke-linecap:round;stroke-linejoin:round;stroke-opacity:1"
       d="m 421.30449,-151.58853 c -34.56507,7.42904 -71.64688,6.33475 -107.69046,6.33475"
       id="path19" />
    <path
       style="fill:#ffffff;fill-opacity:1;stroke:none;stroke-width:7.83398;stroke-linecap:round;stroke-linejoin:round;stroke-opacity:1"
       d="m 272.23659,194.2113 c -49.30529,-0.41513 -89.72464,-0.82636 -89.82077,-0.91383 -0.0961,-0.0875 0.43286,-2.45108 1.17554,-5.25247 0.74268,-2.80138 2.03429,-7.68878 2.87023,-10.8609 0.83593,-3.17211 1.75047,-8.02139 2.0323,-10.77616 0.47695,-4.66179 0.76604,-5.53736 4.17427,-12.64188 3.97332,-8.28246 5.4612,-13.5604 4.88245,-17.31943 -0.73787,-4.79254 -3.86582,-9.16935 -8.12321,-11.36648 -2.93927,-1.51688 -9.50724,-1.89513 -13.34953,-0.7688 -1.52725,0.44771 -2.84967,0.74116 -2.9387,0.65213 -0.089,-0.089 1.65135,-1.51895 3.86751,-3.17759 6.13999,-4.59537 11.32515,-10.00169 12.90754,-13.45807 1.63726,-3.57626 1.84768,-8.24007 0.51285,-11.36687 -1.36244,-3.19144 -8.14871,-9.35703 -20.41604,-18.54878 -6.18413,-4.63369 -13.05423,-10.14664 -15.26689,-12.25102 -3.77517,-3.59041 -6.51096,-7.07125 -5.97719,-7.60501 0.12961,-0.12961 4.89652,0.69089 10.59312,1.82334 16.68635,3.31715 36.66238,5.72142 47.53682,5.72142 4.14631,0 5.06334,-0.16397 6.57864,-1.17625 4.53749,-3.03124 4.69529,-9.8027 0.30136,-12.93145 -1.37962,-0.98238 -2.59158,-1.18578 -9.13389,-1.53296 -18.85022,-1.00032 -38.66818,-4.07927 -58.32533,-9.06152 -25.31693,-6.41677 -43.97383,-14.36269 -53.022915,-22.58233 -4.36087,-3.96115 -5.67461,-4.27706 -17.70931,-4.25854 -5.85032,0.009 -15.69007,0.45141 -21.90177,0.98473 -6.20344,0.53261 -11.40298,0.84439 -11.55453,0.69283 -0.42298,-0.42298 7.07102,-27.24037 11.18889,-40.03959 5.8744,-18.25893 6.12406,-20.30694 2.92025,-23.95587 -0.89299,-1.01706 -6.524,-6.17816 -12.51336,-11.46911 -14.14259,-12.49347 -20.67445,-18.39053 -26.57249,-23.99009 -4.447226,-4.22216 -4.676253,-4.53549 -3.109109,-4.25347 2.561469,0.46096 8.950089,2.04839 19.569139,4.86253 12.98588,3.44136 18.03497,4.32367 22.73902,3.97358 4.81682,-0.35848 8.02931,-1.92764 10.16098,-4.96319 1.45921,-2.07795 1.55912,-2.52515 1.55663,-6.96718 -0.003,-5.34141 0.57684,-3.86041 -7.64044,-19.51498 -19.30582,-36.77909 -28.88893,-79.43389 -28.88893,-128.58581 v -7.6968 l 73.193605,0.0164 73.19362,0.0164 -1.55456,1.1326 c -3.67304,2.67606 -8.24147,7.52761 -9.39342,9.97554 -1.5396,3.27169 -1.62901,7.28979 -0.22352,10.04477 2.15537,4.22489 6.57419,6.65246 14.28349,7.84696 5.66862,0.87831 24.4412,0.75512 40.93372,-0.26862 7.41004,-0.45996 18.4158,-1.03076 24.45725,-1.26844 12.29543,-0.48372 13.72645,-0.89229 15.38783,-4.39335 2.005,-4.22525 0.4538,-8.93838 -3.52043,-10.69637 -2.11805,-0.93692 -2.91969,-0.96697 -13.43148,-0.50353 -6.14846,0.27106 -17.31243,0.86234 -24.80885,1.31395 -7.49642,0.45161 -18.2906,0.75236 -23.98708,0.66833 l -10.35721,-0.15277 4.139,-2.58321 c 2.27645,-1.42076 6.55691,-3.90733 9.51215,-5.52571 l 5.37315,-2.94251 2.14053,0.7815 c 1.17729,0.42983 4.14592,0.9064 6.59696,1.05904 5.09383,0.31724 8.03517,-0.4179 11.86639,-2.96582 l 2.33183,-1.55076 140.24194,-0.002 140.24194,-0.002 0.38118,10.1661 c 0.20965,5.59135 0.25787,18.12495 0.10715,27.85243 -0.33758,21.78878 -1.28422,30.62751 -4.60467,42.99388 -1.03932,3.87076 -1.30083,4.28339 -5.5556,8.76601 -2.4557,2.58722 -11.69361,11.38869 -20.52865,19.55883 -21.75985,20.12221 -26.5082,25.49882 -27.73399,31.40339 -0.51573,2.48426 -0.4754,3.24819 0.27519,5.21361 1.69581,4.44041 4.53209,5.37523 19.42693,6.40299 4.70253,0.32447 11.34825,1.01945 14.76827,1.54439 3.42002,0.52493 7.33851,1.10548 8.70776,1.2901 l 2.48952,0.33567 -1.39314,2.42541 c -0.76625,1.33397 -3.22176,4.99042 -5.4567,8.12543 -3.85486,5.40732 -6.71769,9.0418 -23.32096,29.6069 -9.48637,11.74997 -9.78574,12.21847 -9.78574,15.31414 0,1.39939 0.38334,3.29061 0.85186,4.20271 0.46853,0.91211 4.5126,6.43863 8.98682,12.28116 13.19937,17.23602 22.17535,29.82268 21.64547,30.35257 -0.47666,0.47666 -14.62068,1.80153 -29.9296,2.8035 -24.05382,1.57432 -24.10165,1.58159 -39.46432,6.00211 -28.28354,8.13843 -49.97371,12.92887 -72.46361,16.00413 -3.27752,0.44816 -6.72248,1.20134 -7.65547,1.67372 -5.32119,2.69416 -4.97275,11.10828 0.57256,13.8262 1.80157,0.883 2.40443,0.91386 6.98866,0.3577 2.75935,-0.33477 5.38429,-0.7141 5.83319,-0.84297 1.14737,-0.32938 19.60148,37.63677 29.23527,60.14653 11.42473,26.69437 19.36778,54.14411 22.04199,76.17318 0.31138,2.56501 0.77284,5.30491 1.02546,6.08867 l 0.45932,1.42501 -21.08908,-0.0814 c -11.59899,-0.0448 -61.42977,-0.42107 -110.73506,-0.83621 z M 232.02208,13.75068 c 6.82574,-1.63631 14.67769,-5.7283 21.81896,-11.37081 l 1.29546,-1.02358 7.09375,1.51635 c 3.90157,0.83399 10.89706,2.43803 15.54555,3.56454 11.05408,2.67882 12.53575,2.86913 17.06936,2.19244 6.9691,-1.04023 15.24278,-6.00894 24.36951,-14.63495 2.03476,-1.92313 3.10221,-3.40095 3.48723,-4.82789 1.55681,-5.76955 -3.69731,-11.10322 -9.41969,-9.56234 -1.19835,0.32268 -3.48343,1.83415 -5.71637,3.78111 -5.03734,4.39218 -8.38403,6.90655 -10.92308,8.20656 -4.07867,2.08828 -4.95081,2.06711 -15.03797,-0.36488 -22.51351,-5.42797 -30.54646,-6.51447 -33.53242,-4.53544 -0.75025,0.49726 -2.94476,2.23846 -4.87667,3.86934 -6.50492,5.49132 -14.29606,8.69392 -21.15017,8.69392 -3.90297,0 -7.11867,-0.95741 -10.77773,-3.20885 -3.14876,-1.93745 -6.99418,-2.17231 -9.17113,-0.56014 -4.9153,3.64009 -4.90442,9.50868 0.0246,13.2682 2.29858,1.75321 7.748,4.26901 11.30137,5.21744 4.30537,1.14914 13.33135,1.04188 18.59947,-0.22102 z M 101.81916,-5.15536 c 1.90148,-0.71572 9.73531,-4.50472 17.4085,-8.41999 15.58309,-7.95134 16.14834,-8.41246 16.14834,-13.17374 0,-2.83214 -1.06013,-4.62667 -3.87425,-6.55814 -3.10495,-2.13109 -5.26622,-1.53031 -18.08832,5.02809 -6.20486,3.17373 -11.39316,5.77043 -11.52955,5.77043 -0.13639,0 -0.36195,-2.17878 -0.50124,-4.84173 -0.30333,-5.79901 -1.864855,-9.26084 -5.227515,-11.58912 -1.93539,-1.34006 -2.45466,-1.44568 -7.0544,-1.4349 -4.43654,0.0104 -5.38354,0.19099 -8.89375,1.69606 -6.26563,2.68653 -12.527,6.48754 -13.81931,8.38913 -2.36631,3.48193 -1.06499,9.3252 2.48567,11.16132 2.93387,1.51717 5.77175,1.00948 11.52345,-2.06148 l 5.29326,-2.82619 0.0171,5.02847 c 0.01,2.83536 0.32479,5.93249 0.72264,7.10123 0.96783,2.8432 3.41914,6.31005 5.11098,7.22835 2.17452,1.18031 6.35846,0.97767 10.278425,-0.49779 z m 301.20286,-2.2973 c 1.14602,-0.58465 4.84711,-4.16338 8.81644,-8.52496 3.76268,-4.1345 8.54389,-9.10737 10.62492,-11.05082 2.08102,-1.94344 4.16709,-4.27499 4.63572,-5.18121 2.58939,-5.00731 -1.19089,-11.02646 -6.92505,-11.02646 -3.12605,0 -5.01663,1.2433 -11.23435,7.38799 -5.33146,5.26885 -4.96721,5.31997 -5.57423,-0.7823 -0.66949,-6.72994 -3.73015,-10.23298 -8.94072,-10.23298 -3.316,0 -4.71528,0.65636 -9.06548,4.25233 -4.87936,4.03339 -14.92531,13.94385 -15.75499,15.54251 -0.39941,0.7696 -0.7262,2.55888 -0.7262,3.97617 0,2.02393 0.29122,2.92301 1.35718,4.18982 2.45366,2.91602 5.92196,3.88333 9.30791,2.59599 0.77287,-0.29384 3.23568,-2.31556 5.4729,-4.4927 2.23721,-2.17715 4.15177,-3.86049 4.25457,-3.74077 0.10279,0.11973 0.56488,3.07594 1.02686,6.56938 0.46197,3.49342 1.20614,7.05978 1.65368,7.92523 1.78566,3.45308 6.99369,4.67279 11.07084,2.59278 z M 114.45457,-39.22018 c 2.78273,-1.8939 3.74162,-3.57636 3.74162,-6.56507 0,-2.30844 -0.32141,-3.13904 -2.4318,-6.28452 -5.24572,-7.81861 -7.29222,-17.11057 -6.84226,-31.06657 0.47033,-14.5876 4.00396,-30.12221 9.22042,-40.53506 1.10296,-2.20167 2.06399,-4.84336 2.13563,-5.87043 l 0.13025,-1.86739 14.50917,0.36525 c 7.98005,0.20088 14.59369,0.4398 14.69699,0.53092 0.1033,0.0911 -0.17993,1.86892 -0.62941,3.95063 -1.92799,8.92945 -2.63899,19.44468 -1.89722,28.05851 1.67669,19.47045 9.29858,34.08647 22.31575,42.79351 6.20163,4.1482 9.66423,5.40913 13.82326,5.03385 5.17719,-0.46716 8.4876,-2.35056 14.15329,-8.05229 11.21211,-11.28341 18.43317,-26.46538 20.71722,-43.55707 0.85168,-6.37327 0.72619,-18.5548 -0.25382,-24.63705 -1.51934,-9.42952 -2.11676,-11.08652 -5.10543,-14.16046 -1.4761,-1.51822 -3.26678,-3.06628 -3.97928,-3.44014 -0.99281,-0.52094 -8.92256,-0.81423 -33.94111,-1.25531 -17.95511,-0.31654 -34.7443,-0.68887 -37.30931,-0.82738 -2.56502,-0.13852 -14.12089,-0.29498 -25.67972,-0.34769 -23.051785,-0.10514 -22.670655,-0.15159 -25.056485,3.05342 -1.40321,1.885 -1.6749,5.75439 -0.56785,8.08731 1.60387,3.37991 3.70142,4.20003 11.27428,4.40817 3.633765,0.0999 6.606845,0.28404 6.606845,0.40928 0,0.12523 -0.44557,1.1011 -0.99017,2.16859 -2.86828,5.6223 -6.485445,18.28397 -8.389805,29.368 -1.54606,8.99865 -1.91205,24.51036 -0.76239,32.3128 1.84249,12.50442 7.151325,24.17952 12.692895,27.91399 2.32069,1.56391 5.53115,1.56892 7.81844,0.0122 z m 139.90464,-0.82063 c 6.33561,-0.45296 7.69203,-1.11269 9.35636,-4.55072 1.85618,-3.83437 0.25632,-8.53528 -3.51365,-10.32425 -1.68779,-0.80091 -2.77275,-0.85875 -9.18961,-0.48989 -4.00174,0.23002 -12.56725,0.47173 -19.03447,0.53713 -11.16498,0.11289 -11.83897,0.17614 -13.35107,1.25285 -2.14556,1.52778 -3.13211,3.60841 -3.12801,6.59701 0.005,3.86706 2.30085,6.64645 6.18229,7.4854 2.0508,0.44327 24.188,0.0995 32.67816,-0.50753 z m 160.15971,-9.5554 c 2.32127,-1.5643 3.73105,-3.75091 5.70288,-8.84529 2.82463,-7.2977 3.74812,-12.92051 3.71548,-22.6221 -0.0495,-14.69943 -3.19465,-28.59295 -11.76526,-51.97184 -1.65036,-4.50187 -2.91421,-8.24647 -2.80855,-8.32136 0.10566,-0.0749 3.22349,-0.66739 6.92851,-1.3167 3.70502,-0.6493 7.54947,-1.56836 8.54321,-2.04234 5.35256,-2.55296 5.5818,-10.33776 0.40022,-13.59062 -2.04659,-1.28479 -4.02971,-1.18864 -14.90255,0.72253 -18.17788,3.19522 -30.03843,3.95563 -67.10494,4.30231 -29.47602,0.27569 -31.20388,0.34364 -33.26223,1.30807 -3.53903,1.65821 -4.02066,3.26768 -5.63549,18.83237 -3.01472,29.05769 -1.57921,44.79552 5.20378,57.05002 2.99198,5.40548 9.71518,11.82098 15.29837,14.59821 11.74582,5.84269 21.55647,4.82551 29.43372,-3.05173 9.80926,-9.80926 14.81545,-29.21384 15.49819,-60.07271 l 0.29292,-13.23998 10.82859,-0.64467 c 5.95573,-0.35457 11.11194,-0.75223 11.45825,-0.88369 0.41423,-0.15725 2.01361,3.52917 4.67503,10.77554 12.60664,34.32469 14.47908,52.23231 7.09381,67.84344 -1.8591,3.92979 -1.91898,5.19681 -0.38686,8.18472 2.0643,4.02575 7.15851,5.43505 10.79292,2.98582 z"
       id="path21" />
    <path
       style="fill:#ffffff;fill-opacity:1;stroke:none;stroke-width:7.83398;stroke-linecap:round;stroke-linejoin:round;stroke-opacity:1"
       d="m 99.940125,-251.83221 c -37.19271,-0.34945 -67.71533,-0.6613 -67.82803,-0.69298 -0.35625,-0.10014 0.46532,-13.86544 1.54981,-25.96684 1.05774,-11.80298 2.54609,-24.03344 4.67154,-38.3884 l 1.16747,-7.88485 47.70835,0.37524 47.708335,0.37524 1.22486,1.12716 c 2.061,1.89663 10.8437,13.90459 20.53261,28.07278 14.32391,20.94602 21.38804,30.08264 29.22125,37.79421 l 3.6507,3.594 -1.92365,1.18304 c -1.82397,1.12173 -2.39354,1.1795 -10.99189,1.11491 -4.98753,-0.0375 -39.49864,-0.35405 -76.691355,-0.70351 z"
       id="path22-4" />
    <path
       style="fill:#ffffff;fill-opacity:1;stroke:none;stroke-width:7.83398;stroke-linecap:round;stroke-linejoin:round;stroke-opacity:1"
       d="m 439.09212,-249.00254 c -112.66776,-1.02339 -174.4593,-1.51619 -189.59199,-1.51204 l -16.51825,0.005 3.67214,-3.86581 c 5.56858,-5.86227 7.3415,-10.19115 7.3415,-17.92556 0,-6.79751 -1.74107,-12.81442 -6.77593,-23.4168 -2.33555,-4.91818 -4.93575,-10.45784 -5.77822,-12.31035 -1.67592,-3.68519 -4.68145,-12.47367 -4.37173,-12.78339 0.10656,-0.10656 2.73426,0.8735 5.83934,2.17792 3.10508,1.30442 12.29132,4.79368 20.41386,7.75391 24.27775,8.84794 32.43638,12.48394 42.49116,18.93677 4.23492,2.71783 7.42994,5.68196 22.86628,21.21382 9.86893,9.93001 18.66757,18.42898 19.55254,18.88662 2.83911,1.46816 5.8332,1.58726 8.29749,0.33007 4.06005,-2.07128 6.15643,-6.87393 10.44321,-23.92458 1.16955,-4.6519 2.94858,-10.44404 3.9534,-12.87142 4.65193,-11.23788 12.05641,-20.99014 21.77521,-28.67964 2.04571,-1.61855 3.87465,-3.43178 4.06433,-4.0294 l 0.34486,-1.08657 24.17675,0.30572 c 13.29721,0.16814 40.1498,0.44818 59.67241,0.62229 l 35.49567,0.31657 0.0107,18.98164 c 0.01,17.2567 0.94057,47.59797 1.5878,51.75683 l 0.26208,1.6841 -12.84856,-0.0849 c -7.0667,-0.0467 -32.43593,-0.26284 -56.37609,-0.4803 z"
       id="path23" />
    <path
       style="fill:#ffffff;fill-opacity:1;stroke:none;stroke-width:7.83398;stroke-linecap:round;stroke-linejoin:round;stroke-opacity:1"
       d="m 76.426375,-241.24725 c -24.47513,-0.22699 -44.60009,-0.51256 -44.72213,-0.6346 -0.12205,-0.12204 -0.0607,-3.6873 0.1363,-7.9228 l 0.3582,-7.7009 14.8274,0.12101 c 8.15507,0.0666 42.91856,0.36316 77.252205,0.65913 l 62.42481,0.53811 1.4223,1.36264 1.42229,1.36265 -4.94855,3.01714 c -5.87611,3.58267 -10.95524,7.16129 -12.32305,8.6825 -0.9819,1.09201 -1.12066,1.09738 -26.16834,1.01283 -13.84966,-0.0467 -45.20631,-0.27072 -69.681435,-0.49771 z"
       id="path24-8" />
    <path
       style="fill:#ffffff;fill-opacity:1;stroke:none;stroke-width:7.83398;stroke-linecap:round;stroke-linejoin:round;stroke-opacity:1"
       d="m 424.06475,-238.36592 c -171.337,-1.50681 -204.69843,-1.78737 -215.0467,-1.8085 l -10.88189,-0.0222 3.3542,-1.72475 c 3.26718,-1.67999 3.40837,-1.70496 5.44095,-0.96223 3.39489,1.24054 10.52996,1.47359 13.62653,0.44508 3.33184,-1.10666 8.97022,-5.05692 13.89454,-9.73454 l 3.83265,-3.64065 48.16828,0.38621 48.16829,0.38621 1.19405,1.27849 c 2.77816,2.97465 7.37624,3.95311 10.67305,2.2712 1.16142,-0.59251 2.44891,-1.55878 2.8611,-2.14725 0.73287,-1.04632 1.13705,-1.06933 18.30026,-1.04167 28.60156,0.0461 139.81472,1.12001 140.04706,1.35234 0.11775,0.11775 0.32646,3.71479 0.4638,7.99343 l 0.24969,7.77934 -4.86361,-0.0771 c -2.67499,-0.0424 -38.442,-0.37243 -79.48224,-0.73336 z"
       id="path25" />
    <path
       style="fill:none;fill-opacity:1;stroke:#000000;stroke-width:15.1181;stroke-linecap:round;stroke-linejoin:round;stroke-opacity:1"
       d="m 514.56528,-324.03085 c -3.4893,45.82046 -1.86135,140.25673 -10.6537,163.31245 -3.64921,9.56916 -46.25635,48.95097 -46.25635,57.35388 0,1.35005 19.47284,1.66273 26.30717,1.66046 3.48499,-0.41458 27.80757,1.34657 27.2815,2.236915 -0.31748,0.537033 -5.21718,8.010028 -5.53039,8.636409 -8.92675,14.486665 -28.40217,37.25658 -42.21222,55.669985 -0.55816,0.744227 38.37229,47.369575 34.10188,51.639988 -5.28816,5.288164 -56.9811,5.719824 -65.28076,7.794747 -29.95589,9.058356 -57.37224,16.30594 -90.61356,20.461115"
       id="path5"
       sodipodi:nodetypes="csscscsscc" />
  </g>
</svg>
