<?xml version="1.0" encoding="UTF-8" standalone="no"?>
<!-- Created with Inkscape (http://www.inkscape.org/) -->

<svg
   width="71.641998mm"
   height="18.910999mm"
   viewBox="0 0 71.641998 18.910999"
   version="1.1"
   id="svg1"
   xml:space="preserve"
   sodipodi:docname="mk81.svg"
   inkscape:version="1.3 (0e150ed6c4, 2023-07-21)"
   xmlns:inkscape="http://www.inkscape.org/namespaces/inkscape"
   xmlns:sodipodi="http://sodipodi.sourceforge.net/DTD/sodipodi-0.dtd"
   xmlns="http://www.w3.org/2000/svg"
   xmlns:svg="http://www.w3.org/2000/svg"><sodipodi:namedview
     id="namedview1"
     pagecolor="#ffffff"
     bordercolor="#000000"
     borderopacity="0.25"
     inkscape:showpageshadow="2"
     inkscape:pageopacity="0.0"
     inkscape:pagecheckerboard="0"
     inkscape:deskcolor="#d1d1d1"
     inkscape:document-units="mm"
     inkscape:zoom="0.35355339"
     inkscape:cx="-11.313708"
     inkscape:cy="428.50671"
     inkscape:window-width="1920"
     inkscape:window-height="991"
     inkscape:window-x="-9"
     inkscape:window-y="-9"
     inkscape:window-maximized="1"
     inkscape:current-layer="layer1"
     showgrid="false" /><defs
     id="defs1" /><g
     inkscape:label="Layer 1"
     inkscape:groupmode="layer"
     id="layer1"><ellipse
       style="opacity:1;fill:#bebbb0;fill-opacity:1;stroke:#9f9a88;stroke-width:1.05833;stroke-linecap:round;stroke-linejoin:round;stroke-miterlimit:5;stroke-dasharray:none;stroke-opacity:1"
       id="ellipse45"
       cx="70.350853"
       cy="9.0913715"
       rx="0.76196265"
       ry="0.90232414" /><path
       style="fill:#535540;fill-opacity:1;stroke:#474937;stroke-width:1.05833;stroke-linecap:round;stroke-linejoin:round;stroke-miterlimit:5;stroke-dasharray:none;stroke-opacity:1"
       d="m 9.0453549,8.449515 1.4475141,-6.93714 c 0,0 0.273115,-0.98320997 0.955905,-0.98320997 h 4.178671 c 0,0 0.53788,-0.0105 1.201708,0.54622997 0.846661,0.71009 4.615657,4.15135 4.615657,4.15135 z"
       id="path45"
       sodipodi:nodetypes="ccscscc" /><path
       style="fill:#535540;fill-opacity:1;stroke:#474937;stroke-width:1.05833;stroke-linecap:round;stroke-linejoin:round;stroke-miterlimit:5;stroke-dasharray:none;stroke-opacity:1"
       d="m 8.4445004,10.825625 -1.6660066,6.80058 c 0,0 -0.245804,0.73741 0.6554784,0.73741 0.9012817,0 4.3971638,0 4.3971638,0 0,0 0.35505,0.16388 1.338266,-0.49161 0.983217,-0.65547 7.838423,-5.29844 7.838423,-5.29844 z"
       id="path46" /><path
       style="fill:#4e4e42;fill-opacity:1;stroke:#404036;stroke-width:1.05833;stroke-linecap:round;stroke-linejoin:round;stroke-miterlimit:5;stroke-dasharray:none;stroke-opacity:1"
       d="m 31.225204,15.771528 c 8.112473,0.741936 21.865292,0.378909 28.533139,-1.626543 7.02443,-3.47738 4.87901,-6.66457 0.49735,-9.78098 C 52.64936,2.433656 35.078072,2.72435 31.579557,3.124417 23.245182,3.984313 16.758742,4.576763 5.0578649,7.630125 c 0,0 -0.9399468,0.24846 -0.9399468,1.56168 0,1.07183 1.2130622,1.333365 1.2130622,1.333365 0,0 13.4286167,4.328683 25.8942237,5.246358 z"
       id="path47"
       sodipodi:nodetypes="cccccscc" /><path
       style="fill:#474937;fill-opacity:1;stroke:#404030;stroke-width:1.05833;stroke-linecap:round;stroke-linejoin:round;stroke-miterlimit:5;stroke-dasharray:none;stroke-opacity:1"
       d="m 0.90650555,6.182655 c 0,0 -0.6281663,0.19119 -0.2731159,0.32774 0.3550506,0.13656 6.36359725,2.103 6.36359725,2.103 L 18.467849,8.067155 7.1335444,6.209975 Z"
       id="path48" /><path
       id="path49"
       style="opacity:1;fill:#bebbb0;stroke:#9f9a88;stroke-width:1.05833;stroke-linecap:round;stroke-linejoin:round;stroke-miterlimit:5;stroke-dasharray:none;stroke-opacity:1"
       d="m 66.728176,7.119615 h 2.41958 c 0.81471,0.2183 1.32773,0.97283 1.32214,2.06645 0,1.14966 -0.34425,1.55213 -1.16174,2.02409 h -2.57998 z"
       sodipodi:nodetypes="cccccc" /><path
       style="fill:#f4dd34;fill-opacity:1;stroke:#c3ae09;stroke-width:1.05833;stroke-linecap:round;stroke-linejoin:round;stroke-miterlimit:5;stroke-dasharray:none;stroke-opacity:1"
       d="m 59.223574,14.276755 c 2.32432,-0.32676 3.90739,-1.003325 5.81747,-1.431255 0,0 2.003772,-0.474286 2.003772,-3.432592 0,-3.328406 -2.003951,-3.729848 -2.097022,-3.849845 0,0 -2.24527,-0.889788 -5.43972,-1.369968 3.59529,1.72358 3.56434,8.65555 -0.2845,10.08366 z"
       id="path50"
       sodipodi:nodetypes="ccsccc" /></g></svg>
