<?xml version="1.0" encoding="UTF-8" standalone="no"?>
<!-- Created with Inkscape (http://www.inkscape.org/) -->

<svg
   width="98.234001mm"
   height="152.94901mm"
   viewBox="0 0 98.233999 152.949"
   version="1.1"
   id="svg1"
   xml:space="preserve"
   sodipodi:docname="a4e.svg"
   inkscape:version="1.3 (0e150ed6c4, 2023-07-21)"
   xmlns:inkscape="http://www.inkscape.org/namespaces/inkscape"
   xmlns:sodipodi="http://sodipodi.sourceforge.net/DTD/sodipodi-0.dtd"
   xmlns="http://www.w3.org/2000/svg"
   xmlns:svg="http://www.w3.org/2000/svg"><sodipodi:namedview
     id="namedview1"
     pagecolor="#ffffff"
     bordercolor="#000000"
     borderopacity="0.25"
     inkscape:showpageshadow="2"
     inkscape:pageopacity="0.0"
     inkscape:pagecheckerboard="0"
     inkscape:deskcolor="#d1d1d1"
     inkscape:document-units="mm"
     inkscape:zoom="0.97890839"
     inkscape:cx="58.228125"
     inkscape:cy="215.03544"
     inkscape:window-width="1920"
     inkscape:window-height="991"
     inkscape:window-x="-9"
     inkscape:window-y="-9"
     inkscape:window-maximized="1"
     inkscape:current-layer="layer1" /><defs
     id="defs1"><filter
       inkscape:collect="always"
       style="color-interpolation-filters:sRGB"
       id="filter1"
       x="-0.03203458"
       y="-0.020113566"
       width="1.0640692"
       height="1.0402271"><feGaussianBlur
         inkscape:collect="always"
         stdDeviation="8.2242478"
         id="feGaussianBlur1" /></filter></defs><g
     inkscape:label="Layer 1"
     inkscape:groupmode="layer"
     id="layer1"><g
       id="g4398"
       transform="matrix(0.14260638,0,0,0.14260638,-2.5066155,0.75107554)"
       style="opacity:0.75;mix-blend-mode:normal;filter:url(#filter1)"><path
         id="path3773"
         style="fill:#000000;fill-opacity:1;stroke:#000000;stroke-width:2;stroke-linecap:butt;stroke-linejoin:round;stroke-miterlimit:4;stroke-dasharray:none;stroke-opacity:1"
         d="m 410.29192,15.473505 c -2.28821,-0.117458 -4.1692,4.466784 -4.46484,10.226562 -0.29563,5.759776 1.1063,10.513403 3.39453,10.63086 2.28822,0.117456 4.17116,-4.466786 4.4668,-10.226563 0.29562,-5.759775 -1.10827,-10.513404 -3.39649,-10.630859 z m -0.44921,20.833984 -9.42579,172.076171 z m -1.45313,0.136719 -9.125,158.212892 z M 359.89349,63.46374 c -4.59955,0.122619 -7.14606,1.543342 -10.72657,8.77539 -20.01672,33.15467 -31.04378,171.63905 -31.7539,263.31641 h -0.16407 c -0.91932,-0.8875 -1.97056,-1.3912 -3.11523,-1.41406 -1.14467,-0.0229 -2.38181,0.43343 -3.66992,1.46289 l 0.0332,41.58203 c -1.17701,-0.12191 -2.42978,-0.1582 -3.71289,-0.1582 -10.23999,0 -17.82843,2.44314 -18.51563,5.00781 -5.10029,14.84739 -6.61718,31.17488 -8.04882,46.97266 L 53.077076,628.35437 c -6.463706,7.13873 -13.347371,13.80986 -14.472657,27.4961 l -0.289062,86.2539 275.628913,-1.04101 c 1.45828,49.08205 4.89399,99.1527 10.45703,150.28711 h -0.004 l -100.49805,93.96875 c -3.48091,2.87307 -5.36961,8.61901 -5.41211,14.51367 v 25.33591 c -0.004,1.561 0.35368,2.8593 2.70508,2.7071 l 136.4668,0.033 c 0.65811,5.9216 2.10366,12.1554 4.33984,18.6113 2.23978,-6.4661 3.68887,-12.7111 4.34961,-18.627 l 136.45899,-0.017 c 2.3514,0.1522 2.70928,-1.1461 2.70508,-2.7071 v -25.33591 c -0.0425,-5.89466 -1.93115,-11.6406 -5.41211,-14.51367 l -100.3418,-93.96875 c 5.72886,-55.88429 8.51641,-90.36039 10.29688,-150.28711 h 0.0566 l 275.57227,1.04101 -0.28907,-86.2539 c -1.12529,-13.68624 -8.00896,-20.35737 -14.47265,-27.4961 L 443.75482,428.98718 c -1.40739,-15.77644 -2.92507,-32.10378 -8.0254,-46.95117 -0.70707,-2.63896 -8.27368,-5.00781 -18.51367,-5.00781 -1.22426,0 -2.42033,0.0329 -3.6289,0.10547 l -0.0508,-41.5293 c -2.57618,-2.05891 -4.94842,-1.82383 -6.7871,-0.0488 h -0.16211 c -0.71014,-91.67736 -11.7372,-230.16175 -31.75391,-263.31641 -4.09201,-8.265198 -6.8352,-8.94087 -12.83399,-8.761718 -0.74982,-0.02239 -1.44839,-0.03119 -2.10546,-0.01367 z" /><g
         transform="rotate(-2.9382315,314.23554,25.902164)"
         id="g4184" /></g></g></svg>
