<?xml version="1.0" encoding="UTF-8" standalone="no"?>
<!-- Created with Inkscape (http://www.inkscape.org/) -->

<svg
   width="34"
   height="34"
   viewBox="0 0 8.9958334 8.9958334"
   version="1.1"
   id="svg5"
   sodipodi:docname="donut_fist.svg"
   inkscape:version="1.3 (0e150ed, 2023-07-21)"
   xmlns:inkscape="http://www.inkscape.org/namespaces/inkscape"
   xmlns:sodipodi="http://sodipodi.sourceforge.net/DTD/sodipodi-0.dtd"
   xmlns="http://www.w3.org/2000/svg"
   xmlns:svg="http://www.w3.org/2000/svg">
  <sodipodi:namedview
     id="namedview5"
     pagecolor="#505050"
     bordercolor="#ffffff"
     borderopacity="1"
     inkscape:pageshadow="0"
     inkscape:pageopacity="0"
     inkscape:pagecheckerboard="1"
     showgrid="false"
     inkscape:zoom="9.4305662"
     inkscape:cx="17.125165"
     inkscape:cy="25.767276"
     inkscape:window-width="1360"
     inkscape:window-height="789"
     inkscape:window-x="0"
     inkscape:window-y="25"
     inkscape:window-maximized="0"
     inkscape:current-layer="svg5"
     inkscape:showpageshadow="2"
     inkscape:deskcolor="#d1d1d1" />
  <defs
     id="defs2" />
  <g
     id="g2"
     transform="rotate(-90,-14.082799,180.46736)">
    <circle
       style="fill:#b0803e;fill-opacity:1;stroke:#563b16;stroke-width:1.05833;stroke-linecap:round;stroke-miterlimit:4;stroke-dasharray:none;stroke-opacity:1"
       id="path292-6-0-5-4-6-3"
       cx="161.88666"
       cy="199.04808"
       r="3.96875" />
    <path
       id="path846-7-2-5-6-9-4-0-1"
       d="m 166.38456,199.08339 c 0,-1.62439 -0.86239,-3.12461 -2.26061,-3.9326 -1.39822,-0.80798 -3.11853,-0.80021 -4.50951,0.0204 -1.39098,0.82059 -2.23998,2.32855 -2.22553,3.95286 0,0 0.2865,-0.005 0.40761,0.0592 0.20589,0.11073 0.23493,0.50746 0.46872,0.52413 0.32969,0.0235 0.45249,-0.51464 0.7592,-0.63784 0.51905,-0.20848 1.09825,0.73917 1.67451,-0.10922 0.0946,-0.13926 0.56169,0.65586 0.94553,0.6573 0.41892,0.002 0.62145,-0.65889 1.0373,-0.70958 0.4775,-0.0582 0.8771,1.05558 1.35193,0.50485 0.44745,-0.51899 0.67039,0.3641 1.01157,0.28493 0.30503,-0.0708 0.51885,-0.82473 0.70278,-0.62773 0.60314,0.64599 0.6365,0.0134 0.6365,0.0134 z"
       style="fill:#36260e;fill-opacity:1;stroke:none;stroke-width:0.0989489;stroke-linecap:round;stroke-linejoin:round;stroke-miterlimit:10;stroke-dasharray:none;stroke-opacity:1"
       sodipodi:nodetypes="csscaaasaasascc" />
    <rect
       style="fill:#61becb;fill-opacity:1;stroke:none;stroke-width:0;stroke-dasharray:none;paint-order:fill markers stroke"
       id="use318-2-4-8-8"
       width="0.3449764"
       height="1.2689527"
       x="205.11143"
       y="152.69342"
       transform="rotate(13.633334)" />
    <rect
       style="fill:#a365b9;fill-opacity:1;stroke:none;stroke-width:0;stroke-dasharray:none;paint-order:fill markers stroke"
       id="use325-5-4-6-9"
       width="0.3449764"
       height="1.2689527"
       x="93.51889"
       y="-240.69258"
       transform="rotate(119.06416)" />
    <rect
       style="fill:#61becb;fill-opacity:1;stroke:none;stroke-width:0;stroke-dasharray:none;paint-order:fill markers stroke"
       id="use375-9-7-4-3"
       width="0.3449764"
       height="1.2689527"
       x="216.1983"
       y="135.72029"
       transform="rotate(18.481626)" />
    <rect
       style="fill:#7dc7a6;fill-opacity:1;stroke:none;stroke-width:0;stroke-dasharray:none;paint-order:fill markers stroke"
       id="use376-8-0-1-4"
       width="0.3449764"
       height="1.2689527"
       x="41.322044"
       y="250.29358"
       transform="rotate(-30.35504)" />
    <rect
       style="fill:#a365b9;fill-opacity:1;stroke:none;stroke-width:0;stroke-dasharray:none;paint-order:fill markers stroke"
       id="use395-9-5-5-8"
       width="0.3449764"
       height="1.2689527"
       x="115.83257"
       y="-225.44502"
       transform="rotate(113.32969)" />
    <rect
       style="fill:#61becb;fill-opacity:1;stroke:none;stroke-width:0;stroke-dasharray:none;paint-order:fill markers stroke"
       id="use398-6-6-9-0"
       width="0.3449764"
       height="1.2689527"
       x="208.80069"
       y="145.54697"
       transform="rotate(16.048849)" />
    <rect
       style="fill:#a365b9;fill-opacity:1;stroke:none;stroke-width:0;stroke-dasharray:none;paint-order:fill markers stroke"
       id="use402-9-1-2-3"
       width="0.3449764"
       height="1.2689527"
       x="93.767227"
       y="-236.4917"
       transform="rotate(119.67231)" />
    <rect
       style="fill:#d77d82;fill-opacity:1;stroke:none;stroke-width:0;stroke-dasharray:none;paint-order:fill markers stroke"
       id="use448-6-4-6-7"
       width="0.3449764"
       height="1.2689527"
       x="245.06346"
       y="75.344482"
       transform="rotate(32.862169)" />
    <rect
       style="fill:#61becb;fill-opacity:1;stroke:none;stroke-width:0;stroke-dasharray:none;paint-order:fill markers stroke"
       id="use471-7-6-9-8"
       width="0.3449764"
       height="1.2689527"
       x="231.35414"
       y="114.56216"
       transform="rotate(23.657436)" />
    <rect
       style="fill:#b99b72;fill-opacity:1;stroke:none;stroke-width:0;stroke-dasharray:none;paint-order:fill markers stroke"
       id="use492-7-4-8-2"
       width="0.3449764"
       height="1.2689527"
       x="134.39894"
       y="213.87788"
       transform="rotate(-6.9649994)" />
  </g>
</svg>
